<svg version="1.1" viewBox="0.0 0.0 445.0 245.0" fill="none" stroke="none" stroke-linecap="square" stroke-miterlimit="10" width="445" height="245" xmlns:xlink="http://www.w3.org/1999/xlink" xmlns="http://www.w3.org/2000/svg"><path fill="#ffffff" d="M0 0L445.0 0L445.0 245.0L0 245.0L0 0Z" fill-rule="nonzero"/><path stroke="#cccccc" stroke-width="1.0" stroke-linecap="butt" d="M40.5 225.5L432.5 225.5" fill-rule="nonzero"/><path stroke="#cccccc" stroke-width="1.0" stroke-linecap="butt" d="M40.5 188.5L432.5 188.5" fill-rule="nonzero"/><path stroke="#333333" stroke-width="1.0" stroke-linecap="butt" d="M40.5 150.5L432.5 150.5" fill-rule="nonzero"/><path stroke="#cccccc" stroke-width="1.0" stroke-linecap="butt" d="M40.5 112.5L432.5 112.5" fill-rule="nonzero"/><path stroke="#cccccc" stroke-width="1.0" stroke-linecap="butt" d="M40.5 74.5L432.5 74.5" fill-rule="nonzero"/><clipPath id="id_0"><path d="M40.25 74.916664L432.75 74.916664L432.75 225.75L40.25 225.75L40.25 74.916664Z" clip-rule="nonzero"/></clipPath><path stroke="#000000" stroke-width="2.0" stroke-linecap="butt" stroke-opacity="0.0" clip-path="url(#id_0)" d="M52.0 150.0L44.0 150.0L44.0 150.0L52.0 150.0Z" fill-rule="nonzero"/><path fill="#34a853" clip-path="url(#id_0)" d="M52.0 150.0L44.0 150.0L44.0 150.0L52.0 150.0Z" fill-rule="nonzero"/><path stroke="#000000" stroke-width="2.0" stroke-linecap="butt" stroke-opacity="0.0" clip-path="url(#id_0)" d="M65.0 150.0L57.0 150.0L57.0 150.0L65.0 150.0Z" fill-rule="nonzero"/><path fill="#34a853" clip-path="url(#id_0)" d="M65.0 150.0L57.0 150.0L57.0 150.0L65.0 150.0Z" fill-rule="nonzero"/><path stroke="#000000" stroke-width="2.0" stroke-linecap="butt" stroke-opacity="0.0" clip-path="url(#id_0)" d="M77.0 150.0L69.0 150.0L69.0 150.0L77.0 150.0Z" fill-rule="nonzero"/><path fill="#34a853" clip-path="url(#id_0)" d="M77.0 150.0L69.0 150.0L69.0 150.0L77.0 150.0Z" fill-rule="nonzero"/><path stroke="#000000" stroke-width="2.0" stroke-linecap="butt" stroke-opacity="0.0" clip-path="url(#id_0)" d="M89.0 150.0L81.0 150.0L81.0 113.0L89.0 113.0Z" fill-rule="nonzero"/><path fill="#34a853" clip-path="url(#id_0)" d="M89.0 150.0L81.0 150.0L81.0 113.0L89.0 113.0Z" fill-rule="nonzero"/><path stroke="#000000" stroke-width="2.0" stroke-linecap="butt" stroke-opacity="0.0" clip-path="url(#id_0)" d="M101.0 150.0L93.0 150.0L93.0 131.0L101.0 131.0Z" fill-rule="nonzero"/><path fill="#34a853" clip-path="url(#id_0)" d="M101.0 150.0L93.0 150.0L93.0 131.0L101.0 131.0Z" fill-rule="nonzero"/><path stroke="#000000" stroke-width="2.0" stroke-linecap="butt" stroke-opacity="0.0" clip-path="url(#id_0)" d="M113.0 150.0L105.0 150.0L105.0 150.0L113.0 150.0Z" fill-rule="nonzero"/><path fill="#34a853" clip-path="url(#id_0)" d="M113.0 150.0L105.0 150.0L105.0 150.0L113.0 150.0Z" fill-rule="nonzero"/><path stroke="#000000" stroke-width="2.0" stroke-linecap="butt" stroke-opacity="0.0" clip-path="url(#id_0)" d="M125.0 150.0L117.0 150.0L117.0 131.0L125.0 131.0Z" fill-rule="nonzero"/><path fill="#34a853" clip-path="url(#id_0)" d="M125.0 150.0L117.0 150.0L117.0 131.0L125.0 131.0Z" fill-rule="nonzero"/><path stroke="#000000" stroke-width="2.0" stroke-linecap="butt" stroke-opacity="0.0" clip-path="url(#id_0)" d="M137.0 150.0L129.0 150.0L129.0 150.0L137.0 150.0Z" fill-rule="nonzero"/><path fill="#34a853" clip-path="url(#id_0)" d="M137.0 150.0L129.0 150.0L129.0 150.0L137.0 150.0Z" fill-rule="nonzero"/><path stroke="#000000" stroke-width="2.0" stroke-linecap="butt" stroke-opacity="0.0" clip-path="url(#id_0)" d="M150.0 150.0L142.0 150.0L142.0 150.0L150.0 150.0Z" fill-rule="nonzero"/><path fill="#34a853" clip-path="url(#id_0)" d="M150.0 150.0L142.0 150.0L142.0 150.0L150.0 150.0Z" fill-rule="nonzero"/><path stroke="#000000" stroke-width="2.0" stroke-linecap="butt" stroke-opacity="0.0" clip-path="url(#id_0)" d="M162.0 150.0L154.0 150.0L154.0 150.0L162.0 150.0Z" fill-rule="nonzero"/><path fill="#34a853" clip-path="url(#id_0)" d="M162.0 150.0L154.0 150.0L154.0 150.0L162.0 150.0Z" fill-rule="nonzero"/><path stroke="#000000" stroke-width="2.0" stroke-linecap="butt" stroke-opacity="0.0" clip-path="url(#id_0)" d="M174.0 150.0L166.0 150.0L166.0 150.0L174.0 150.0Z" fill-rule="nonzero"/><path fill="#34a853" clip-path="url(#id_0)" d="M174.0 150.0L166.0 150.0L166.0 150.0L174.0 150.0Z" fill-rule="nonzero"/><path stroke="#000000" stroke-width="2.0" stroke-linecap="butt" stroke-opacity="0.0" clip-path="url(#id_0)" d="M186.0 150.0L178.0 150.0L178.0 150.0L186.0 150.0Z" fill-rule="nonzero"/><path fill="#34a853" clip-path="url(#id_0)" d="M186.0 150.0L178.0 150.0L178.0 150.0L186.0 150.0Z" fill-rule="nonzero"/><path stroke="#000000" stroke-width="2.0" stroke-linecap="butt" stroke-opacity="0.0" clip-path="url(#id_0)" d="M198.0 150.0L190.0 150.0L190.0 131.0L198.0 131.0Z" fill-rule="nonzero"/><path fill="#34a853" clip-path="url(#id_0)" d="M198.0 150.0L190.0 150.0L190.0 131.0L198.0 131.0Z" fill-rule="nonzero"/><path stroke="#000000" stroke-width="2.0" stroke-linecap="butt" stroke-opacity="0.0" clip-path="url(#id_0)" d="M210.0 150.0L202.0 150.0L202.0 131.0L210.0 131.0Z" fill-rule="nonzero"/><path fill="#34a853" clip-path="url(#id_0)" d="M210.0 150.0L202.0 150.0L202.0 131.0L210.0 131.0Z" fill-rule="nonzero"/><path stroke="#000000" stroke-width="2.0" stroke-linecap="butt" stroke-opacity="0.0" clip-path="url(#id_0)" d="M222.0 150.0L214.0 150.0L214.0 94.0L222.0 94.0Z" fill-rule="nonzero"/><path fill="#34a853" clip-path="url(#id_0)" d="M222.0 150.0L214.0 150.0L214.0 94.0L222.0 94.0Z" fill-rule="nonzero"/><path stroke="#000000" stroke-width="2.0" stroke-linecap="butt" stroke-opacity="0.0" clip-path="url(#id_0)" d="M234.0 150.0L226.0 150.0L226.0 150.0L234.0 150.0Z" fill-rule="nonzero"/><path fill="#34a853" clip-path="url(#id_0)" d="M234.0 150.0L226.0 150.0L226.0 150.0L234.0 150.0Z" fill-rule="nonzero"/><path stroke="#000000" stroke-width="2.0" stroke-linecap="butt" stroke-opacity="0.0" clip-path="url(#id_0)" d="M247.0 150.0L239.0 150.0L239.0 150.0L247.0 150.0Z" fill-rule="nonzero"/><path fill="#34a853" clip-path="url(#id_0)" d="M247.0 150.0L239.0 150.0L239.0 150.0L247.0 150.0Z" fill-rule="nonzero"/><path stroke="#000000" stroke-width="2.0" stroke-linecap="butt" stroke-opacity="0.0" clip-path="url(#id_0)" d="M259.0 150.0L251.0 150.0L251.0 150.0L259.0 150.0Z" fill-rule="nonzero"/><path fill="#34a853" clip-path="url(#id_0)" d="M259.0 150.0L251.0 150.0L251.0 150.0L259.0 150.0Z" fill-rule="nonzero"/><path stroke="#000000" stroke-width="2.0" stroke-linecap="butt" stroke-opacity="0.0" clip-path="url(#id_0)" d="M271.0 150.0L263.0 150.0L263.0 150.0L271.0 150.0Z" fill-rule="nonzero"/><path fill="#34a853" clip-path="url(#id_0)" d="M271.0 150.0L263.0 150.0L263.0 150.0L271.0 150.0Z" fill-rule="nonzero"/><path stroke="#000000" stroke-width="2.0" stroke-linecap="butt" stroke-opacity="0.0" clip-path="url(#id_0)" d="M283.0 150.0L275.0 150.0L275.0 150.0L283.0 150.0Z" fill-rule="nonzero"/><path fill="#34a853" clip-path="url(#id_0)" d="M283.0 150.0L275.0 150.0L275.0 150.0L283.0 150.0Z" fill-rule="nonzero"/><path stroke="#000000" stroke-width="2.0" stroke-linecap="butt" stroke-opacity="0.0" clip-path="url(#id_0)" d="M295.0 150.0L287.0 150.0L287.0 131.0L295.0 131.0Z" fill-rule="nonzero"/><path fill="#34a853" clip-path="url(#id_0)" d="M295.0 150.0L287.0 150.0L287.0 131.0L295.0 131.0Z" fill-rule="nonzero"/><path stroke="#000000" stroke-width="2.0" stroke-linecap="butt" stroke-opacity="0.0" clip-path="url(#id_0)" d="M307.0 150.0L299.0 150.0L299.0 113.0L307.0 113.0Z" fill-rule="nonzero"/><path fill="#34a853" clip-path="url(#id_0)" d="M307.0 150.0L299.0 150.0L299.0 113.0L307.0 113.0Z" fill-rule="nonzero"/><path stroke="#000000" stroke-width="2.0" stroke-linecap="butt" stroke-opacity="0.0" clip-path="url(#id_0)" d="M319.0 150.0L311.0 150.0L311.0 113.0L319.0 113.0Z" fill-rule="nonzero"/><path fill="#34a853" clip-path="url(#id_0)" d="M319.0 150.0L311.0 150.0L311.0 113.0L319.0 113.0Z" fill-rule="nonzero"/><path stroke="#000000" stroke-width="2.0" stroke-linecap="butt" stroke-opacity="0.0" clip-path="url(#id_0)" d="M331.0 150.0L323.0 150.0L323.0 150.0L331.0 150.0Z" fill-rule="nonzero"/><path fill="#34a853" clip-path="url(#id_0)" d="M331.0 150.0L323.0 150.0L323.0 150.0L331.0 150.0Z" fill-rule="nonzero"/><path stroke="#000000" stroke-width="2.0" stroke-linecap="butt" stroke-opacity="0.0" clip-path="url(#id_0)" d="M344.0 150.0L336.0 150.0L336.0 150.0L344.0 150.0Z" fill-rule="nonzero"/><path fill="#34a853" clip-path="url(#id_0)" d="M344.0 150.0L336.0 150.0L336.0 150.0L344.0 150.0Z" fill-rule="nonzero"/><path stroke="#000000" stroke-width="2.0" stroke-linecap="butt" stroke-opacity="0.0" clip-path="url(#id_0)" d="M356.0 150.0L348.0 150.0L348.0 150.0L356.0 150.0Z" fill-rule="nonzero"/><path fill="#34a853" clip-path="url(#id_0)" d="M356.0 150.0L348.0 150.0L348.0 150.0L356.0 150.0Z" fill-rule="nonzero"/><path stroke="#000000" stroke-width="2.0" stroke-linecap="butt" stroke-opacity="0.0" clip-path="url(#id_0)" d="M368.0 150.0L360.0 150.0L360.0 150.0L368.0 150.0Z" fill-rule="nonzero"/><path fill="#34a853" clip-path="url(#id_0)" d="M368.0 150.0L360.0 150.0L360.0 150.0L368.0 150.0Z" fill-rule="nonzero"/><path stroke="#000000" stroke-width="2.0" stroke-linecap="butt" stroke-opacity="0.0" clip-path="url(#id_0)" d="M380.0 150.0L372.0 150.0L372.0 150.0L380.0 150.0Z" fill-rule="nonzero"/><path fill="#34a853" clip-path="url(#id_0)" d="M380.0 150.0L372.0 150.0L372.0 150.0L380.0 150.0Z" fill-rule="nonzero"/><path stroke="#000000" stroke-width="2.0" stroke-linecap="butt" stroke-opacity="0.0" clip-path="url(#id_0)" d="M392.0 150.0L384.0 150.0L384.0 150.0L392.0 150.0Z" fill-rule="nonzero"/><path fill="#34a853" clip-path="url(#id_0)" d="M392.0 150.0L384.0 150.0L384.0 150.0L392.0 150.0Z" fill-rule="nonzero"/><path stroke="#000000" stroke-width="2.0" stroke-linecap="butt" stroke-opacity="0.0" clip-path="url(#id_0)" d="M404.0 150.0L396.0 150.0L396.0 150.0L404.0 150.0Z" fill-rule="nonzero"/><path fill="#34a853" clip-path="url(#id_0)" d="M404.0 150.0L396.0 150.0L396.0 150.0L404.0 150.0Z" fill-rule="nonzero"/><path stroke="#000000" stroke-width="2.0" stroke-linecap="butt" stroke-opacity="0.0" clip-path="url(#id_0)" d="M416.0 150.0L408.0 150.0L408.0 131.0L416.0 131.0Z" fill-rule="nonzero"/><path fill="#34a853" clip-path="url(#id_0)" d="M416.0 150.0L408.0 150.0L408.0 131.0L416.0 131.0Z" fill-rule="nonzero"/><path stroke="#000000" stroke-width="2.0" stroke-linecap="butt" stroke-opacity="0.0" clip-path="url(#id_0)" d="M429.0 150.0L421.0 150.0L421.0 150.0L429.0 150.0Z" fill-rule="nonzero"/><path fill="#34a853" clip-path="url(#id_0)" d="M429.0 150.0L421.0 150.0L421.0 150.0L429.0 150.0Z" fill-rule="nonzero"/><path stroke="#000000" stroke-width="2.0" stroke-linecap="butt" stroke-opacity="0.0" clip-path="url(#id_0)" d="M52.0 150.0L44.0 150.0L44.0 167.0C44.0 168.10457 44.89543 169.0 46.0 169.0L50.0 169.0C51.10457 169.0 52.0 168.10457 52.0 167.0Z" fill-rule="nonzero"/><path fill="#ea4335" clip-path="url(#id_0)" d="M52.0 150.0L44.0 150.0L44.0 167.0C44.0 168.10457 44.89543 169.0 46.0 169.0L50.0 169.0C51.10457 169.0 52.0 168.10457 52.0 167.0Z" fill-rule="nonzero"/><path stroke="#000000" stroke-width="2.0" stroke-linecap="butt" stroke-opacity="0.0" clip-path="url(#id_0)" d="M65.0 150.0L57.0 150.0L57.0 167.0C57.0 168.10457 57.89543 169.0 59.0 169.0L63.0 169.0C64.10457 169.0 65.0 168.10457 65.0 167.0Z" fill-rule="nonzero"/><path fill="#ea4335" clip-path="url(#id_0)" d="M65.0 150.0L57.0 150.0L57.0 167.0C57.0 168.10457 57.89543 169.0 59.0 169.0L63.0 169.0C64.10457 169.0 65.0 168.10457 65.0 167.0Z" fill-rule="nonzero"/><path stroke="#000000" stroke-width="2.0" stroke-linecap="butt" stroke-opacity="0.0" clip-path="url(#id_0)" d="M77.0 150.0L69.0 150.0L69.0 167.0C69.0 168.10457 69.89543 169.0 71.0 169.0L75.0 169.0C76.10457 169.0 77.0 168.10457 77.0 167.0Z" fill-rule="nonzero"/><path fill="#ea4335" clip-path="url(#id_0)" d="M77.0 150.0L69.0 150.0L69.0 167.0C69.0 168.10457 69.89543 169.0 71.0 169.0L75.0 169.0C76.10457 169.0 77.0 168.10457 77.0 167.0Z" fill-rule="nonzero"/><path stroke="#000000" stroke-width="2.0" stroke-linecap="butt" stroke-opacity="0.0" clip-path="url(#id_0)" d="M89.0 113.0L81.0 113.0L81.0 113.0L89.0 113.0Z" fill-rule="nonzero"/><path fill="#ea4335" clip-path="url(#id_0)" d="M89.0 113.0L81.0 113.0L81.0 113.0L89.0 113.0Z" fill-rule="nonzero"/><path stroke="#000000" stroke-width="2.0" stroke-linecap="butt" stroke-opacity="0.0" clip-path="url(#id_0)" d="M101.0 131.0L93.0 131.0L93.0 131.0L101.0 131.0Z" fill-rule="nonzero"/><path fill="#ea4335" clip-path="url(#id_0)" d="M101.0 131.0L93.0 131.0L93.0 131.0L101.0 131.0Z" fill-rule="nonzero"/><path stroke="#000000" stroke-width="2.0" stroke-linecap="butt" stroke-opacity="0.0" clip-path="url(#id_0)" d="M113.0 150.0L105.0 150.0L105.0 167.0C105.0 168.10457 105.89543 169.0 107.0 169.0L111.0 169.0C112.10457 169.0 113.0 168.10457 113.0 167.0Z" fill-rule="nonzero"/><path fill="#ea4335" clip-path="url(#id_0)" d="M113.0 150.0L105.0 150.0L105.0 167.0C105.0 168.10457 105.89543 169.0 107.0 169.0L111.0 169.0C112.10457 169.0 113.0 168.10457 113.0 167.0Z" fill-rule="nonzero"/><path stroke="#000000" stroke-width="2.0" stroke-linecap="butt" stroke-opacity="0.0" clip-path="url(#id_0)" d="M125.0 131.0L117.0 131.0L117.0 131.0L125.0 131.0Z" fill-rule="nonzero"/><path fill="#ea4335" clip-path="url(#id_0)" d="M125.0 131.0L117.0 131.0L117.0 131.0L125.0 131.0Z" fill-rule="nonzero"/><path stroke="#000000" stroke-width="2.0" stroke-linecap="butt" stroke-opacity="0.0" clip-path="url(#id_0)" d="M137.0 150.0L129.0 150.0L129.0 150.0L137.0 150.0Z" fill-rule="nonzero"/><path fill="#ea4335" clip-path="url(#id_0)" d="M137.0 150.0L129.0 150.0L129.0 150.0L137.0 150.0Z" fill-rule="nonzero"/><path stroke="#000000" stroke-width="2.0" stroke-linecap="butt" stroke-opacity="0.0" clip-path="url(#id_0)" d="M150.0 150.0L142.0 150.0L142.0 167.0C142.0 168.10457 142.89543 169.0 144.0 169.0L148.0 169.0C149.10457 169.0 150.0 168.10457 150.0 167.0Z" fill-rule="nonzero"/><path fill="#ea4335" clip-path="url(#id_0)" d="M150.0 150.0L142.0 150.0L142.0 167.0C142.0 168.10457 142.89543 169.0 144.0 169.0L148.0 169.0C149.10457 169.0 150.0 168.10457 150.0 167.0Z" fill-rule="nonzero"/><path stroke="#000000" stroke-width="2.0" stroke-linecap="butt" stroke-opacity="0.0" clip-path="url(#id_0)" d="M162.0 150.0L154.0 150.0L154.0 167.0C154.0 168.10457 154.89543 169.0 156.0 169.0L160.0 169.0C161.10457 169.0 162.0 168.10457 162.0 167.0Z" fill-rule="nonzero"/><path fill="#ea4335" clip-path="url(#id_0)" d="M162.0 150.0L154.0 150.0L154.0 167.0C154.0 168.10457 154.89543 169.0 156.0 169.0L160.0 169.0C161.10457 169.0 162.0 168.10457 162.0 167.0Z" fill-rule="nonzero"/><path stroke="#000000" stroke-width="2.0" stroke-linecap="butt" stroke-opacity="0.0" clip-path="url(#id_0)" d="M174.0 150.0L166.0 150.0L166.0 205.0C166.0 206.10457 166.89543 207.0 168.0 207.0L172.0 207.0C173.10457 207.0 174.0 206.10457 174.0 205.0Z" fill-rule="nonzero"/><path fill="#ea4335" clip-path="url(#id_0)" d="M174.0 150.0L166.0 150.0L166.0 205.0C166.0 206.10457 166.89543 207.0 168.0 207.0L172.0 207.0C173.10457 207.0 174.0 206.10457 174.0 205.0Z" fill-rule="nonzero"/><path stroke="#000000" stroke-width="2.0" stroke-linecap="butt" stroke-opacity="0.0" clip-path="url(#id_0)" d="M186.0 150.0L178.0 150.0L178.0 150.0L186.0 150.0Z" fill-rule="nonzero"/><path fill="#ea4335" clip-path="url(#id_0)" d="M186.0 150.0L178.0 150.0L178.0 150.0L186.0 150.0Z" fill-rule="nonzero"/><path stroke="#000000" stroke-width="2.0" stroke-linecap="butt" stroke-opacity="0.0" clip-path="url(#id_0)" d="M198.0 131.0L190.0 131.0L190.0 131.0L198.0 131.0Z" fill-rule="nonzero"/><path fill="#ea4335" clip-path="url(#id_0)" d="M198.0 131.0L190.0 131.0L190.0 131.0L198.0 131.0Z" fill-rule="nonzero"/><path stroke="#000000" stroke-width="2.0" stroke-linecap="butt" stroke-opacity="0.0" clip-path="url(#id_0)" d="M210.0 131.0L202.0 131.0L202.0 131.0L210.0 131.0Z" fill-rule="nonzero"/><path fill="#ea4335" clip-path="url(#id_0)" d="M210.0 131.0L202.0 131.0L202.0 131.0L210.0 131.0Z" fill-rule="nonzero"/><path stroke="#000000" stroke-width="2.0" stroke-linecap="butt" stroke-opacity="0.0" clip-path="url(#id_0)" d="M222.0 94.0L214.0 94.0L214.0 94.0L222.0 94.0Z" fill-rule="nonzero"/><path fill="#ea4335" clip-path="url(#id_0)" d="M222.0 94.0L214.0 94.0L214.0 94.0L222.0 94.0Z" fill-rule="nonzero"/><path stroke="#000000" stroke-width="2.0" stroke-linecap="butt" stroke-opacity="0.0" clip-path="url(#id_0)" d="M234.0 150.0L226.0 150.0L226.0 167.0C226.0 168.10457 226.89543 169.0 228.0 169.0L232.0 169.0C233.10457 169.0 234.0 168.10457 234.0 167.0Z" fill-rule="nonzero"/><path fill="#ea4335" clip-path="url(#id_0)" d="M234.0 150.0L226.0 150.0L226.0 167.0C226.0 168.10457 226.89543 169.0 228.0 169.0L232.0 169.0C233.10457 169.0 234.0 168.10457 234.0 167.0Z" fill-rule="nonzero"/><path stroke="#000000" stroke-width="2.0" stroke-linecap="butt" stroke-opacity="0.0" clip-path="url(#id_0)" d="M247.0 150.0L239.0 150.0L239.0 167.0C239.0 168.10457 239.89543 169.0 241.0 169.0L245.0 169.0C246.10457 169.0 247.0 168.10457 247.0 167.0Z" fill-rule="nonzero"/><path fill="#ea4335" clip-path="url(#id_0)" d="M247.0 150.0L239.0 150.0L239.0 167.0C239.0 168.10457 239.89543 169.0 241.0 169.0L245.0 169.0C246.10457 169.0 247.0 168.10457 247.0 167.0Z" fill-rule="nonzero"/><path stroke="#000000" stroke-width="2.0" stroke-linecap="butt" stroke-opacity="0.0" clip-path="url(#id_0)" d="M259.0 150.0L251.0 150.0L251.0 150.0L259.0 150.0Z" fill-rule="nonzero"/><path fill="#ea4335" clip-path="url(#id_0)" d="M259.0 150.0L251.0 150.0L251.0 150.0L259.0 150.0Z" fill-rule="nonzero"/><path stroke="#000000" stroke-width="2.0" stroke-linecap="butt" stroke-opacity="0.0" clip-path="url(#id_0)" d="M271.0 150.0L263.0 150.0L263.0 150.0L271.0 150.0Z" fill-rule="nonzero"/><path fill="#ea4335" clip-path="url(#id_0)" d="M271.0 150.0L263.0 150.0L263.0 150.0L271.0 150.0Z" fill-rule="nonzero"/><path stroke="#000000" stroke-width="2.0" stroke-linecap="butt" stroke-opacity="0.0" clip-path="url(#id_0)" d="M283.0 150.0L275.0 150.0L275.0 167.0C275.0 168.10457 275.89542 169.0 277.0 169.0L281.0 169.0C282.10458 169.0 283.0 168.10457 283.0 167.0Z" fill-rule="nonzero"/><path fill="#ea4335" clip-path="url(#id_0)" d="M283.0 150.0L275.0 150.0L275.0 167.0C275.0 168.10457 275.89542 169.0 277.0 169.0L281.0 169.0C282.10458 169.0 283.0 168.10457 283.0 167.0Z" fill-rule="nonzero"/><path stroke="#000000" stroke-width="2.0" stroke-linecap="butt" stroke-opacity="0.0" clip-path="url(#id_0)" d="M295.0 131.0L287.0 131.0L287.0 131.0L295.0 131.0Z" fill-rule="nonzero"/><path fill="#ea4335" clip-path="url(#id_0)" d="M295.0 131.0L287.0 131.0L287.0 131.0L295.0 131.0Z" fill-rule="nonzero"/><path stroke="#000000" stroke-width="2.0" stroke-linecap="butt" stroke-opacity="0.0" clip-path="url(#id_0)" d="M307.0 113.0L299.0 113.0L299.0 113.0L307.0 113.0Z" fill-rule="nonzero"/><path fill="#ea4335" clip-path="url(#id_0)" d="M307.0 113.0L299.0 113.0L299.0 113.0L307.0 113.0Z" fill-rule="nonzero"/><path stroke="#000000" stroke-width="2.0" stroke-linecap="butt" stroke-opacity="0.0" clip-path="url(#id_0)" d="M319.0 113.0L311.0 113.0L311.0 113.0L319.0 113.0Z" fill-rule="nonzero"/><path fill="#ea4335" clip-path="url(#id_0)" d="M319.0 113.0L311.0 113.0L311.0 113.0L319.0 113.0Z" fill-rule="nonzero"/><path stroke="#000000" stroke-width="2.0" stroke-linecap="butt" stroke-opacity="0.0" clip-path="url(#id_0)" d="M331.0 150.0L323.0 150.0L323.0 167.0C323.0 168.10457 323.89542 169.0 325.0 169.0L329.0 169.0C330.10458 169.0 331.0 168.10457 331.0 167.0Z" fill-rule="nonzero"/><path fill="#ea4335" clip-path="url(#id_0)" d="M331.0 150.0L323.0 150.0L323.0 167.0C323.0 168.10457 323.89542 169.0 325.0 169.0L329.0 169.0C330.10458 169.0 331.0 168.10457 331.0 167.0Z" fill-rule="nonzero"/><path stroke="#000000" stroke-width="2.0" stroke-linecap="butt" stroke-opacity="0.0" clip-path="url(#id_0)" d="M344.0 150.0L336.0 150.0L336.0 167.0C336.0 168.10457 336.89542 169.0 338.0 169.0L342.0 169.0C343.10458 169.0 344.0 168.10457 344.0 167.0Z" fill-rule="nonzero"/><path fill="#ea4335" clip-path="url(#id_0)" d="M344.0 150.0L336.0 150.0L336.0 167.0C336.0 168.10457 336.89542 169.0 338.0 169.0L342.0 169.0C343.10458 169.0 344.0 168.10457 344.0 167.0Z" fill-rule="nonzero"/><path stroke="#000000" stroke-width="2.0" stroke-linecap="butt" stroke-opacity="0.0" clip-path="url(#id_0)" d="M356.0 150.0L348.0 150.0L348.0 186.0C348.0 187.10457 348.89542 188.0 350.0 188.0L354.0 188.0C355.10458 188.0 356.0 187.10457 356.0 186.0Z" fill-rule="nonzero"/><path fill="#ea4335" clip-path="url(#id_0)" d="M356.0 150.0L348.0 150.0L348.0 186.0C348.0 187.10457 348.89542 188.0 350.0 188.0L354.0 188.0C355.10458 188.0 356.0 187.10457 356.0 186.0Z" fill-rule="nonzero"/><path stroke="#000000" stroke-width="2.0" stroke-linecap="butt" stroke-opacity="0.0" clip-path="url(#id_0)" d="M368.0 150.0L360.0 150.0L360.0 167.0C360.0 168.10457 360.89542 169.0 362.0 169.0L366.0 169.0C367.10458 169.0 368.0 168.10457 368.0 167.0Z" fill-rule="nonzero"/><path fill="#ea4335" clip-path="url(#id_0)" d="M368.0 150.0L360.0 150.0L360.0 167.0C360.0 168.10457 360.89542 169.0 362.0 169.0L366.0 169.0C367.10458 169.0 368.0 168.10457 368.0 167.0Z" fill-rule="nonzero"/><path stroke="#000000" stroke-width="2.0" stroke-linecap="butt" stroke-opacity="0.0" clip-path="url(#id_0)" d="M380.0 150.0L372.0 150.0L372.0 150.0L380.0 150.0Z" fill-rule="nonzero"/><path fill="#ea4335" clip-path="url(#id_0)" d="M380.0 150.0L372.0 150.0L372.0 150.0L380.0 150.0Z" fill-rule="nonzero"/><path stroke="#000000" stroke-width="2.0" stroke-linecap="butt" stroke-opacity="0.0" clip-path="url(#id_0)" d="M392.0 150.0L384.0 150.0L384.0 167.0C384.0 168.10457 384.89542 169.0 386.0 169.0L390.0 169.0C391.10458 169.0 392.0 168.10457 392.0 167.0Z" fill-rule="nonzero"/><path fill="#ea4335" clip-path="url(#id_0)" d="M392.0 150.0L384.0 150.0L384.0 167.0C384.0 168.10457 384.89542 169.0 386.0 169.0L390.0 169.0C391.10458 169.0 392.0 168.10457 392.0 167.0Z" fill-rule="nonzero"/><path stroke="#000000" stroke-width="2.0" stroke-linecap="butt" stroke-opacity="0.0" clip-path="url(#id_0)" d="M404.0 150.0L396.0 150.0L396.0 150.0L404.0 150.0Z" fill-rule="nonzero"/><path fill="#ea4335" clip-path="url(#id_0)" d="M404.0 150.0L396.0 150.0L396.0 150.0L404.0 150.0Z" fill-rule="nonzero"/><path stroke="#000000" stroke-width="2.0" stroke-linecap="butt" stroke-opacity="0.0" clip-path="url(#id_0)" d="M416.0 131.0L408.0 131.0L408.0 131.0L416.0 131.0Z" fill-rule="nonzero"/><path fill="#ea4335" clip-path="url(#id_0)" d="M416.0 131.0L408.0 131.0L408.0 131.0L416.0 131.0Z" fill-rule="nonzero"/><path stroke="#000000" stroke-width="2.0" stroke-linecap="butt" stroke-opacity="0.0" clip-path="url(#id_0)" d="M429.0 150.0L421.0 150.0L421.0 150.0L429.0 150.0Z" fill-rule="nonzero"/><path fill="#ea4335" clip-path="url(#id_0)" d="M429.0 150.0L421.0 150.0L421.0 150.0L429.0 150.0Z" fill-rule="nonzero"/><path fill="#000000" d="M12.625 227.17188L12.625 226.10938L15.875 226.10938L15.875 227.17188L12.625 227.17188ZM20.125 229.75L20.125 227.6875L16.40625 227.6875L16.40625 226.71875L20.328125 221.15625L21.1875 221.15625L21.1875 226.71875L22.34375 226.71875L22.34375 227.6875L21.1875 227.6875L21.1875 229.75L20.125 229.75ZM20.125 226.71875L20.125 222.85938L17.4375 226.71875L20.125 226.71875ZM23.953125 223.21875Q23.953125 222.29688 24.40625 221.65625Q24.875 221.01562 25.75 221.01562Q26.5625 221.01562 27.09375 221.59375Q27.625 222.17188 27.625 223.28125Q27.625 224.375 27.078125 224.96875Q26.546875 225.54688 25.765625 225.54688Q24.984375 225.54688 24.46875 224.96875Q23.953125 224.39062 23.953125 223.21875ZM25.78125 221.73438Q25.390625 221.73438 25.125 222.07812Q24.875 222.42188 24.875 223.32812Q24.875 224.15625 25.125 224.5Q25.390625 224.82812 25.78125 224.82812Q26.1875 224.82812 26.4375 224.48438Q26.703125 224.14062 26.703125 223.25Q26.703125 222.40625 26.4375 222.07812Q26.171875 221.73438 25.78125 221.73438ZM25.78125 230.0625L30.484375 221.01562L31.34375 221.01562L26.65625 230.0625L25.78125 230.0625ZM29.5 227.73438Q29.5 226.8125 29.953125 226.17188Q30.421875 225.53125 31.3125 225.53125Q32.125 225.53125 32.65625 226.10938Q33.1875 226.67188 33.1875 227.79688Q33.1875 228.89062 32.640625 229.48438Q32.109375 230.0625 31.3125 230.0625Q30.546875 230.0625 30.015625 229.48438Q29.5 228.90625 29.5 227.73438ZM31.34375 226.25Q30.9375 226.25 30.671875 226.59375Q30.421875 226.9375 30.421875 227.84375Q30.421875 228.65625 30.6875 229.0Q30.953125 229.34375 31.34375 229.34375Q31.734375 229.34375 32.0 229.0Q32.265625 228.65625 32.265625 227.75Q32.265625 226.92188 32.0 226.59375Q31.734375 226.25 31.34375 226.25Z" fill-rule="nonzero"/><path fill="#000000" d="M12.625 189.46355L12.625 188.40105L15.875 188.40105L15.875 189.46355L12.625 189.46355ZM22.296875 191.02605L22.296875 192.04167L16.609375 192.04167Q16.609375 191.66667 16.734375 191.3073Q16.953125 190.72917 17.421875 190.16667Q17.90625 189.60417 18.8125 188.8698Q20.21875 187.71355 20.703125 187.04167Q21.203125 186.3698 21.203125 185.77605Q21.203125 185.15105 20.75 184.72917Q20.296875 184.29167 19.578125 184.29167Q18.8125 184.29167 18.359375 184.7448Q17.90625 185.19792 17.890625 186.01042L16.8125 185.90105Q16.921875 184.6823 17.640625 184.0573Q18.375 183.41667 19.609375 183.41667Q20.84375 183.41667 21.5625 184.10417Q22.28125 184.79167 22.28125 185.8073Q22.28125 186.32292 22.0625 186.82292Q21.859375 187.3073 21.359375 187.8698Q20.875 188.41667 19.75 189.3698Q18.796875 190.16667 18.515625 190.46355Q18.25 190.7448 18.078125 191.02605L22.296875 191.02605ZM23.953125 185.51042Q23.953125 184.58855 24.40625 183.94792Q24.875 183.3073 25.75 183.3073Q26.5625 183.3073 27.09375 183.88542Q27.625 184.46355 27.625 185.57292Q27.625 186.66667 27.078125 187.26042Q26.546875 187.83855 25.765625 187.83855Q24.984375 187.83855 24.46875 187.26042Q23.953125 186.6823 23.953125 185.51042ZM25.78125 184.02605Q25.390625 184.02605 25.125 184.3698Q24.875 184.71355 24.875 185.6198Q24.875 186.44792 25.125 186.79167Q25.390625 187.1198 25.78125 187.1198Q26.1875 187.1198 26.4375 186.77605Q26.703125 186.4323 26.703125 185.54167Q26.703125 184.69792 26.4375 184.3698Q26.171875 184.02605 25.78125 184.02605ZM25.78125 192.35417L30.484375 183.3073L31.34375 183.3073L26.65625 192.35417L25.78125 192.35417ZM29.5 190.02605Q29.5 189.10417 29.953125 188.46355Q30.421875 187.82292 31.3125 187.82292Q32.125 187.82292 32.65625 188.40105Q33.1875 188.96355 33.1875 190.08855Q33.1875 191.1823 32.640625 191.77605Q32.109375 192.35417 31.3125 192.35417Q30.546875 192.35417 30.015625 191.77605Q29.5 191.19792 29.5 190.02605ZM31.34375 188.54167Q30.9375 188.54167 30.671875 188.88542Q30.421875 189.22917 30.421875 190.13542Q30.421875 190.94792 30.6875 191.29167Q30.953125 191.63542 31.34375 191.63542Q31.734375 191.63542 32.0 191.29167Q32.265625 190.94792 32.265625 190.04167Q32.265625 189.21355 32.0 188.88542Q31.734375 188.54167 31.34375 188.54167Z" fill-rule="nonzero"/><path fill="#000000" d="M16.75 150.09895Q16.75 148.5677 17.0625 147.64583Q17.375 146.70833 17.984375 146.20833Q18.609375 145.70833 19.546875 145.70833Q20.234375 145.70833 20.75 145.98958Q21.28125 146.27083 21.625 146.80208Q21.96875 147.3177 22.15625 148.0677Q22.34375 148.8177 22.34375 150.09895Q22.34375 151.61458 22.03125 152.53645Q21.734375 153.45833 21.109375 153.97395Q20.5 154.47395 19.546875 154.47395Q18.3125 154.47395 17.59375 153.58333Q16.75 152.52083 16.75 150.09895ZM17.828125 150.09895Q17.828125 152.20833 18.328125 152.91145Q18.828125 153.61458 19.546875 153.61458Q20.28125 153.61458 20.765625 152.91145Q21.265625 152.20833 21.265625 150.09895Q21.265625 147.97395 20.765625 147.28645Q20.28125 146.58333 19.53125 146.58333Q18.8125 146.58333 18.375 147.1927Q17.828125 147.97395 17.828125 150.09895ZM23.953125 147.80208Q23.953125 146.8802 24.40625 146.23958Q24.875 145.59895 25.75 145.59895Q26.5625 145.59895 27.09375 146.17708Q27.625 146.7552 27.625 147.86458Q27.625 148.95833 27.078125 149.55208Q26.546875 150.1302 25.765625 150.1302Q24.984375 150.1302 24.46875 149.55208Q23.953125 148.97395 23.953125 147.80208ZM25.78125 146.3177Q25.390625 146.3177 25.125 146.66145Q24.875 147.0052 24.875 147.91145Q24.875 148.73958 25.125 149.08333Q25.390625 149.41145 25.78125 149.41145Q26.1875 149.41145 26.4375 149.0677Q26.703125 148.72395 26.703125 147.83333Q26.703125 146.98958 26.4375 146.66145Q26.171875 146.3177 25.78125 146.3177ZM25.78125 154.64583L30.484375 145.59895L31.34375 145.59895L26.65625 154.64583L25.78125 154.64583ZM29.5 152.3177Q29.5 151.39583 29.953125 150.7552Q30.421875 150.11458 31.3125 150.11458Q32.125 150.11458 32.65625 150.6927Q33.1875 151.2552 33.1875 152.3802Q33.1875 153.47395 32.640625 154.0677Q32.109375 154.64583 31.3125 154.64583Q30.546875 154.64583 30.015625 154.0677Q29.5 153.48958 29.5 152.3177ZM31.34375 150.83333Q30.9375 150.83333 30.671875 151.17708Q30.421875 151.52083 30.421875 152.42708Q30.421875 153.23958 30.6875 153.58333Q30.953125 153.92708 31.34375 153.92708Q31.734375 153.92708 32.0 153.58333Q32.265625 153.23958 32.265625 152.33333Q32.265625 151.5052 32.0 151.17708Q31.734375 150.83333 31.34375 150.83333Z" fill-rule="nonzero"/><path fill="#000000" d="M22.296875 115.609375L22.296875 116.625L16.609375 116.625Q16.609375 116.25 16.734375 115.890625Q16.953125 115.3125 17.421875 114.75Q17.90625 114.1875 18.8125 113.453125Q20.21875 112.296875 20.703125 111.625Q21.203125 110.953125 21.203125 110.359375Q21.203125 109.734375 20.75 109.3125Q20.296875 108.875 19.578125 108.875Q18.8125 108.875 18.359375 109.328125Q17.90625 109.78125 17.890625 110.59375L16.8125 110.484375Q16.921875 109.265625 17.640625 108.640625Q18.375 108.0 19.609375 108.0Q20.84375 108.0 21.5625 108.6875Q22.28125 109.375 22.28125 110.390625Q22.28125 110.90625 22.0625 111.40625Q21.859375 111.890625 21.359375 112.453125Q20.875 113.0 19.75 113.953125Q18.796875 114.75 18.515625 115.046875Q18.25 115.328125 18.078125 115.609375L22.296875 115.609375ZM23.953125 110.09375Q23.953125 109.171875 24.40625 108.53125Q24.875 107.890625 25.75 107.890625Q26.5625 107.890625 27.09375 108.46875Q27.625 109.046875 27.625 110.15625Q27.625 111.25 27.078125 111.84375Q26.546875 112.421875 25.765625 112.421875Q24.984375 112.421875 24.46875 111.84375Q23.953125 111.265625 23.953125 110.09375ZM25.78125 108.609375Q25.390625 108.609375 25.125 108.953125Q24.875 109.296875 24.875 110.203125Q24.875 111.03125 25.125 111.375Q25.390625 111.703125 25.78125 111.703125Q26.1875 111.703125 26.4375 111.359375Q26.703125 111.015625 26.703125 110.125Q26.703125 109.28125 26.4375 108.953125Q26.171875 108.609375 25.78125 108.609375ZM25.78125 116.9375L30.484375 107.890625L31.34375 107.890625L26.65625 116.9375L25.78125 116.9375ZM29.5 114.609375Q29.5 113.6875 29.953125 113.046875Q30.421875 112.40625 31.3125 112.40625Q32.125 112.40625 32.65625 112.984375Q33.1875 113.546875 33.1875 114.671875Q33.1875 115.765625 32.640625 116.359375Q32.109375 116.9375 31.3125 116.9375Q30.546875 116.9375 30.015625 116.359375Q29.5 115.78125 29.5 114.609375ZM31.34375 113.125Q30.9375 113.125 30.671875 113.46875Q30.421875 113.8125 30.421875 114.71875Q30.421875 115.53125 30.6875 115.875Q30.953125 116.21875 31.34375 116.21875Q31.734375 116.21875 32.0 115.875Q32.265625 115.53125 32.265625 114.625Q32.265625 113.796875 32.0 113.46875Q31.734375 113.125 31.34375 113.125Z" fill-rule="nonzero"/><path fill="#000000" d="M20.125 78.916664L20.125 76.854164L16.40625 76.854164L16.40625 75.885414L20.328125 70.322914L21.1875 70.322914L21.1875 75.885414L22.34375 75.885414L22.34375 76.854164L21.1875 76.854164L21.1875 78.916664L20.125 78.916664ZM20.125 75.885414L20.125 72.02604L17.4375 75.885414L20.125 75.885414ZM23.953125 72.385414Q23.953125 71.46354 24.40625 70.822914Q24.875 70.18229 25.75 70.18229Q26.5625 70.18229 27.09375 70.760414Q27.625 71.33854 27.625 72.447914Q27.625 73.541664 27.078125 74.135414Q26.546875 74.71354 25.765625 74.71354Q24.984375 74.71354 24.46875 74.135414Q23.953125 73.55729 23.953125 72.385414ZM25.78125 70.90104Q25.390625 70.90104 25.125 71.24479Q24.875 71.58854 24.875 72.49479Q24.875 73.322914 25.125 73.666664Q25.390625 73.99479 25.78125 73.99479Q26.1875 73.99479 26.4375 73.65104Q26.703125 73.30729 26.703125 72.416664Q26.703125 71.572914 26.4375 71.24479Q26.171875 70.90104 25.78125 70.90104ZM25.78125 79.229164L30.484375 70.18229L31.34375 70.18229L26.65625 79.229164L25.78125 79.229164ZM29.5 76.90104Q29.5 75.979164 29.953125 75.33854Q30.421875 74.697914 31.3125 74.697914Q32.125 74.697914 32.65625 75.27604Q33.1875 75.83854 33.1875 76.96354Q33.1875 78.05729 32.640625 78.65104Q32.109375 79.229164 31.3125 79.229164Q30.546875 79.229164 30.015625 78.65104Q29.5 78.072914 29.5 76.90104ZM31.34375 75.416664Q30.9375 75.416664 30.671875 75.760414Q30.421875 76.104164 30.421875 77.010414Q30.421875 77.822914 30.6875 78.166664Q30.953125 78.510414 31.34375 78.510414Q31.734375 78.510414 32.0 78.166664Q32.265625 77.822914 32.265625 76.916664Q32.265625 76.08854 32.0 75.760414Q31.734375 75.416664 31.34375 75.416664Z" fill-rule="nonzero"/><path fill="#999999" d="M12.234375 56.75L16.078125 46.734375L17.5 46.734375L21.609375 56.75L20.09375 56.75L18.921875 53.71875L14.734375 53.71875L13.640625 56.75L12.234375 56.75ZM15.125 52.640625L18.515625 52.640625L17.46875 49.859375Q17.0 48.59375 16.765625 47.78125Q16.578125 48.75 16.21875 49.6875L15.125 52.640625ZM26.890625 56.75L26.890625 55.828125Q26.1875 56.921875 24.859375 56.921875Q23.984375 56.921875 23.25 56.4375Q22.53125 55.953125 22.125 55.09375Q21.734375 54.234375 21.734375 53.125Q21.734375 52.046875 22.09375 51.15625Q22.453125 50.265625 23.171875 49.796875Q23.90625 49.328125 24.796875 49.328125Q25.453125 49.328125 25.96875 49.609375Q26.484375 49.875 26.796875 50.328125L26.796875 46.734375L28.03125 46.734375L28.03125 56.75L26.890625 56.75ZM23.0 53.125Q23.0 54.515625 23.578125 55.21875Q24.171875 55.90625 24.96875 55.90625Q25.78125 55.90625 26.34375 55.25Q26.90625 54.578125 26.90625 53.234375Q26.90625 51.734375 26.328125 51.046875Q25.75 50.34375 24.921875 50.34375Q24.09375 50.34375 23.546875 51.015625Q23.0 51.6875 23.0 53.125ZM34.890625 56.75L34.890625 55.828125Q34.1875 56.921875 32.859375 56.921875Q31.984375 56.921875 31.25 56.4375Q30.53125 55.953125 30.125 55.09375Q29.734375 54.234375 29.734375 53.125Q29.734375 52.046875 30.09375 51.15625Q30.453125 50.265625 31.171875 49.796875Q31.90625 49.328125 32.796875 49.328125Q33.453125 49.328125 33.96875 49.609375Q34.484375 49.875 34.796875 50.328125L34.796875 46.734375L36.03125 46.734375L36.03125 56.75L34.890625 56.75ZM31.0 53.125Q31.0 54.515625 31.578125 55.21875Q32.171875 55.90625 32.96875 55.90625Q33.78125 55.90625 34.34375 55.25Q34.90625 54.578125 34.90625 53.234375Q34.90625 51.734375 34.328125 51.046875Q33.75 50.34375 32.921875 50.34375Q32.09375 50.34375 31.546875 51.015625Q31.0 51.6875 31.0 53.125ZM38.1875 48.140625L38.1875 46.734375L39.40625 46.734375L39.40625 48.140625L38.1875 48.140625ZM38.1875 56.75L38.1875 49.484375L39.40625 49.484375L39.40625 56.75L38.1875 56.75ZM43.859375 55.65625L44.03125 56.734375Q43.515625 56.84375 43.109375 56.84375Q42.4375 56.84375 42.0625 56.640625Q41.703125 56.421875 41.546875 56.078125Q41.40625 55.734375 41.40625 54.625L41.40625 50.453125L40.5 50.453125L40.5 49.484375L41.40625 49.484375L41.40625 47.6875L42.625 46.953125L42.625 49.484375L43.859375 49.484375L43.859375 50.453125L42.625 50.453125L42.625 54.6875Q42.625 55.21875 42.6875 55.375Q42.75 55.515625 42.890625 55.609375Q43.046875 55.703125 43.3125 55.703125Q43.53125 55.703125 43.859375 55.65625ZM45.1875 48.140625L45.1875 46.734375L46.40625 46.734375L46.40625 48.140625L45.1875 48.140625ZM45.1875 56.75L45.1875 49.484375L46.40625 49.484375L46.40625 56.75L45.1875 56.75ZM47.71875 53.125Q47.71875 51.109375 48.84375 50.125Q49.765625 49.328125 51.125 49.328125Q52.609375 49.328125 53.5625 50.3125Q54.515625 51.28125 54.515625 53.015625Q54.515625 54.421875 54.09375 55.234375Q53.671875 56.03125 52.859375 56.484375Q52.0625 56.921875 51.125 56.921875Q49.59375 56.921875 48.65625 55.9375Q47.71875 54.953125 47.71875 53.125ZM48.984375 53.125Q48.984375 54.515625 49.59375 55.21875Q50.203125 55.90625 51.125 55.90625Q52.03125 55.90625 52.640625 55.203125Q53.25 54.5 53.25 53.078125Q53.25 51.734375 52.640625 51.046875Q52.03125 50.34375 51.125 50.34375Q50.203125 50.34375 49.59375 51.03125Q48.984375 51.71875 48.984375 53.125ZM56.171875 56.75L56.171875 49.484375L57.28125 49.484375L57.28125 50.515625Q58.078125 49.328125 59.59375 49.328125Q60.25 49.328125 60.796875 49.5625Q61.34375 49.796875 61.609375 50.1875Q61.890625 50.5625 62.0 51.09375Q62.078125 51.4375 62.078125 52.28125L62.078125 56.75L60.84375 56.75L60.84375 52.328125Q60.84375 51.578125 60.703125 51.21875Q60.5625 50.84375 60.1875 50.625Q59.828125 50.390625 59.328125 50.390625Q58.546875 50.390625 57.96875 50.890625Q57.40625 51.390625 57.40625 52.78125L57.40625 56.75L56.171875 56.75ZM63.6875 53.734375L63.6875 52.5L67.46875 52.5L67.46875 53.734375L63.6875 53.734375ZM70.3125 56.75L69.171875 56.75L69.171875 46.734375L70.390625 46.734375L70.390625 50.296875Q71.171875 49.328125 72.390625 49.328125Q73.0625 49.328125 73.65625 49.59375Q74.25 49.859375 74.640625 50.359375Q75.03125 50.84375 75.25 51.53125Q75.46875 52.21875 75.46875 53.015625Q75.46875 54.875 74.53125 55.90625Q73.609375 56.921875 72.328125 56.921875Q71.046875 56.921875 70.3125 55.84375L70.3125 56.75ZM70.296875 53.0625Q70.296875 54.375 70.65625 54.953125Q71.234375 55.90625 72.21875 55.90625Q73.03125 55.90625 73.609375 55.203125Q74.203125 54.5 74.203125 53.109375Q74.203125 51.6875 73.640625 51.015625Q73.078125 50.34375 72.28125 50.34375Q71.46875 50.34375 70.875 51.046875Q70.296875 51.734375 70.296875 53.0625ZM81.90625 55.859375Q81.234375 56.4375 80.59375 56.6875Q79.96875 56.921875 79.234375 56.921875Q78.046875 56.921875 77.390625 56.34375Q76.75 55.75 76.75 54.828125Q76.75 54.296875 76.984375 53.859375Q77.234375 53.421875 77.625 53.15625Q78.03125 52.890625 78.515625 52.75Q78.875 52.65625 79.609375 52.5625Q81.109375 52.390625 81.8125 52.140625Q81.8125 51.890625 81.8125 51.828125Q81.8125 51.0625 81.46875 50.765625Q81.0 50.34375 80.0625 50.34375Q79.203125 50.34375 78.78125 50.65625Q78.375 50.953125 78.171875 51.71875L76.96875 51.5625Q77.125 50.78125 77.5 50.3125Q77.890625 49.84375 78.59375 49.59375Q79.3125 49.328125 80.25 49.328125Q81.171875 49.328125 81.75 49.546875Q82.328125 49.765625 82.59375 50.09375Q82.875 50.421875 82.984375 50.9375Q83.046875 51.25 83.046875 52.0625L83.046875 53.703125Q83.046875 55.421875 83.125 55.875Q83.203125 56.328125 83.4375 56.75L82.15625 56.75Q81.96875 56.359375 81.90625 55.859375ZM81.8125 53.109375Q81.140625 53.375 79.796875 53.578125Q79.046875 53.6875 78.71875 53.828125Q78.40625 53.953125 78.234375 54.21875Q78.0625 54.484375 78.0625 54.796875Q78.0625 55.296875 78.4375 55.625Q78.8125 55.953125 79.53125 55.953125Q80.25 55.953125 80.796875 55.640625Q81.34375 55.328125 81.609375 54.78125Q81.8125 54.375 81.8125 53.5625L81.8125 53.109375ZM84.6875 54.578125L85.890625 54.390625Q86.0 55.125 86.46875 55.515625Q86.9375 55.90625 87.78125 55.90625Q88.625 55.90625 89.03125 55.5625Q89.453125 55.21875 89.453125 54.75Q89.453125 54.328125 89.078125 54.09375Q88.828125 53.921875 87.828125 53.671875Q86.46875 53.328125 85.9375 53.078125Q85.421875 52.828125 85.15625 52.390625Q84.890625 51.953125 84.890625 51.421875Q84.890625 50.9375 85.109375 50.53125Q85.328125 50.109375 85.71875 49.828125Q86.0 49.625 86.484375 49.484375Q86.984375 49.328125 87.5625 49.328125Q88.40625 49.328125 89.046875 49.578125Q89.703125 49.8125 90.015625 50.234375Q90.328125 50.65625 90.4375 51.359375L89.234375 51.53125Q89.15625 50.96875 88.75 50.65625Q88.359375 50.34375 87.640625 50.34375Q86.796875 50.34375 86.4375 50.625Q86.078125 50.890625 86.078125 51.28125Q86.078125 51.515625 86.21875 51.703125Q86.375 51.90625 86.703125 52.03125Q86.875 52.09375 87.78125 52.34375Q89.09375 52.703125 89.609375 52.921875Q90.125 53.140625 90.40625 53.5625Q90.703125 53.984375 90.703125 54.609375Q90.703125 55.234375 90.34375 55.78125Q90.0 56.3125 89.3125 56.625Q88.640625 56.921875 87.78125 56.921875Q86.375 56.921875 85.625 56.328125Q84.890625 55.734375 84.6875 54.578125ZM97.140625 54.40625L98.421875 54.5625Q98.109375 55.6875 97.296875 56.3125Q96.484375 56.921875 95.21875 56.921875Q93.625 56.921875 92.6875 55.9375Q91.765625 54.953125 91.765625 53.1875Q91.765625 51.34375 92.703125 50.34375Q93.65625 49.328125 95.15625 49.328125Q96.609375 49.328125 97.53125 50.328125Q98.453125 51.3125 98.453125 53.109375Q98.453125 53.21875 98.453125 53.4375L93.03125 53.4375Q93.109375 54.625 93.703125 55.265625Q94.3125 55.90625 95.234375 55.90625Q95.90625 55.90625 96.375 55.546875Q96.859375 55.1875 97.140625 54.40625ZM93.109375 52.421875L97.15625 52.421875Q97.078125 51.5 96.6875 51.046875Q96.109375 50.34375 95.171875 50.34375Q94.3125 50.34375 93.734375 50.90625Q93.171875 51.46875 93.109375 52.421875ZM104.890625 56.75L104.890625 55.828125Q104.1875 56.921875 102.859375 56.921875Q101.984375 56.921875 101.25 56.4375Q100.53125 55.953125 100.125 55.09375Q99.734375 54.234375 99.734375 53.125Q99.734375 52.046875 100.09375 51.15625Q100.453125 50.265625 101.171875 49.796875Q101.90625 49.328125 102.796875 49.328125Q103.453125 49.328125 103.96875 49.609375Q104.484375 49.875 104.796875 50.328125L104.796875 46.734375L106.03125 46.734375L106.03125 56.75L104.890625 56.75ZM101.0 53.125Q101.0 54.515625 101.578125 55.21875Q102.171875 55.90625 102.96875 55.90625Q103.78125 55.90625 104.34375 55.25Q104.90625 54.578125 104.90625 53.234375Q104.90625 51.734375 104.328125 51.046875Q103.75 50.34375 102.921875 50.34375Q102.09375 50.34375 101.546875 51.015625Q101.0 51.6875 101.0 53.125ZM112.171875 56.75L112.171875 46.734375L113.40625 46.734375L113.40625 50.328125Q114.265625 49.328125 115.578125 49.328125Q116.390625 49.328125 116.984375 49.65625Q117.578125 49.96875 117.828125 50.53125Q118.09375 51.078125 118.09375 52.15625L118.09375 56.75L116.859375 56.75L116.859375 52.15625Q116.859375 51.21875 116.453125 50.8125Q116.0625 50.390625 115.328125 50.390625Q114.78125 50.390625 114.296875 50.671875Q113.8125 50.953125 113.609375 51.4375Q113.40625 51.921875 113.40625 52.78125L113.40625 56.75L112.171875 56.75ZM124.90625 55.859375Q124.234375 56.4375 123.59375 56.6875Q122.96875 56.921875 122.234375 56.921875Q121.046875 56.921875 120.390625 56.34375Q119.75 55.75 119.75 54.828125Q119.75 54.296875 119.984375 53.859375Q120.234375 53.421875 120.625 53.15625Q121.03125 52.890625 121.515625 52.75Q121.875 52.65625 122.609375 52.5625Q124.109375 52.390625 124.8125 52.140625Q124.8125 51.890625 124.8125 51.828125Q124.8125 51.0625 124.46875 50.765625Q124.0 50.34375 123.0625 50.34375Q122.203125 50.34375 121.78125 50.65625Q121.375 50.953125 121.171875 51.71875L119.96875 51.5625Q120.125 50.78125 120.5 50.3125Q120.890625 49.84375 121.59375 49.59375Q122.3125 49.328125 123.25 49.328125Q124.171875 49.328125 124.75 49.546875Q125.328125 49.765625 125.59375 50.09375Q125.875 50.421875 125.984375 50.9375Q126.046875 51.25 126.046875 52.0625L126.046875 53.703125Q126.046875 55.421875 126.125 55.875Q126.203125 56.328125 126.4375 56.75L125.15625 56.75Q124.96875 56.359375 124.90625 55.859375ZM124.8125 53.109375Q124.140625 53.375 122.796875 53.578125Q122.046875 53.6875 121.71875 53.828125Q121.40625 53.953125 121.234375 54.21875Q121.0625 54.484375 121.0625 54.796875Q121.0625 55.296875 121.4375 55.625Q121.8125 55.953125 122.53125 55.953125Q123.25 55.953125 123.796875 55.640625Q124.34375 55.328125 124.609375 54.78125Q124.8125 54.375 124.8125 53.5625L124.8125 53.109375ZM127.6875 54.578125L128.89062 54.390625Q129.0 55.125 129.46875 55.515625Q129.9375 55.90625 130.78125 55.90625Q131.625 55.90625 132.03125 55.5625Q132.45312 55.21875 132.45312 54.75Q132.45312 54.328125 132.07812 54.09375Q131.82812 53.921875 130.82812 53.671875Q129.46875 53.328125 128.9375 53.078125Q128.42188 52.828125 128.15625 52.390625Q127.890625 51.953125 127.890625 51.421875Q127.890625 50.9375 128.10938 50.53125Q128.32812 50.109375 128.71875 49.828125Q129.0 49.625 129.48438 49.484375Q129.98438 49.328125 130.5625 49.328125Q131.40625 49.328125 132.04688 49.578125Q132.70312 49.8125 133.01562 50.234375Q133.32812 50.65625 133.4375 51.359375L132.23438 51.53125Q132.15625 50.96875 131.75 50.65625Q131.35938 50.34375 130.64062 50.34375Q129.79688 50.34375 129.4375 50.625Q129.07812 50.890625 129.07812 51.28125Q129.07812 51.515625 129.21875 51.703125Q129.375 51.90625 129.70312 52.03125Q129.875 52.09375 130.78125 52.34375Q132.09375 52.703125 132.60938 52.921875Q133.125 53.140625 133.40625 53.5625Q133.70312 53.984375 133.70312 54.609375Q133.70312 55.234375 133.34375 55.78125Q133.0 56.3125 132.3125 56.625Q131.64062 56.921875 130.78125 56.921875Q129.375 56.921875 128.625 56.328125Q127.890625 55.734375 127.6875 54.578125ZM135.17188 56.75L135.17188 46.734375L136.40625 46.734375L136.40625 50.328125Q137.26562 49.328125 138.57812 49.328125Q139.39062 49.328125 139.98438 49.65625Q140.57812 49.96875 140.82812 50.53125Q141.09375 51.078125 141.09375 52.15625L141.09375 56.75L139.85938 56.75L139.85938 52.15625Q139.85938 51.21875 139.45312 50.8125Q139.0625 50.390625 138.32812 50.390625Q137.78125 50.390625 137.29688 50.671875Q136.8125 50.953125 136.60938 51.4375Q136.40625 51.921875 136.40625 52.78125L136.40625 56.75L135.17188 56.75ZM143.5 56.75L143.5 55.34375L144.89062 55.34375L144.89062 56.75Q144.89062 57.515625 144.60938 57.984375Q144.34375 58.46875 143.75 58.734375L143.40625 58.203125Q143.79688 58.03125 143.98438 57.703125Q144.17188 57.375 144.1875 56.75L143.5 56.75ZM153.85938 55.65625L154.03125 56.734375Q153.51562 56.84375 153.10938 56.84375Q152.4375 56.84375 152.0625 56.640625Q151.70312 56.421875 151.54688 56.078125Q151.40625 55.734375 151.40625 54.625L151.40625 50.453125L150.5 50.453125L150.5 49.484375L151.40625 49.484375L151.40625 47.6875L152.625 46.953125L152.625 49.484375L153.85938 49.484375L153.85938 50.453125L152.625 50.453125L152.625 54.6875Q152.625 55.21875 152.6875 55.375Q152.75 55.515625 152.89062 55.609375Q153.04688 55.703125 153.3125 55.703125Q153.53125 55.703125 153.85938 55.65625ZM160.14062 54.40625L161.42188 54.5625Q161.10938 55.6875 160.29688 56.3125Q159.48438 56.921875 158.21875 56.921875Q156.625 56.921875 155.6875 55.9375Q154.76562 54.953125 154.76562 53.1875Q154.76562 51.34375 155.70312 50.34375Q156.65625 49.328125 158.15625 49.328125Q159.60938 49.328125 160.53125 50.328125Q161.45312 51.3125 161.45312 53.109375Q161.45312 53.21875 161.45312 53.4375L156.03125 53.4375Q156.10938 54.625 156.70312 55.265625Q157.3125 55.90625 158.23438 55.90625Q158.90625 55.90625 159.375 55.546875Q159.85938 55.1875 160.14062 54.40625ZM156.10938 52.421875L160.15625 52.421875Q160.07812 51.5 159.6875 51.046875Q159.10938 50.34375 158.17188 50.34375Q157.3125 50.34375 156.73438 50.90625Q156.17188 51.46875 156.10938 52.421875ZM162.35938 56.75L165.0 52.96875L162.54688 49.484375L164.09375 49.484375L165.20312 51.1875Q165.51562 51.671875 165.70312 52.0Q166.01562 51.546875 166.26562 51.203125L167.48438 49.484375L168.95312 49.484375L166.45312 52.90625L169.14062 56.75L167.64062 56.75L166.14062 54.5L165.75 53.890625L163.84375 56.75L162.35938 56.75ZM172.85938 55.65625L173.03125 56.734375Q172.51562 56.84375 172.10938 56.84375Q171.4375 56.84375 171.0625 56.640625Q170.70312 56.421875 170.54688 56.078125Q170.40625 55.734375 170.40625 54.625L170.40625 50.453125L169.5 50.453125L169.5 49.484375L170.40625 49.484375L170.40625 47.6875L171.625 46.953125L171.625 49.484375L172.85938 49.484375L172.85938 50.453125L171.625 50.453125L171.625 54.6875Q171.625 55.21875 171.6875 55.375Q171.75 55.515625 171.89062 55.609375Q172.04688 55.703125 172.3125 55.703125Q172.53125 55.703125 172.85938 55.65625ZM178.17188 59.53125L178.17188 49.484375L179.29688 49.484375L179.29688 50.4375Q179.6875 49.875 180.1875 49.609375Q180.6875 49.328125 181.40625 49.328125Q182.32812 49.328125 183.03125 49.8125Q183.75 50.28125 184.10938 51.15625Q184.46875 52.03125 184.46875 53.0625Q184.46875 54.171875 184.0625 55.078125Q183.67188 55.96875 182.90625 56.453125Q182.15625 56.921875 181.3125 56.921875Q180.70312 56.921875 180.20312 56.65625Q179.71875 56.390625 179.40625 56.0L179.40625 59.53125L178.17188 59.53125ZM179.28125 53.15625Q179.28125 54.5625 179.84375 55.234375Q180.42188 55.90625 181.23438 55.90625Q182.04688 55.90625 182.625 55.21875Q183.21875 54.515625 183.21875 53.0625Q183.21875 51.671875 182.64062 50.984375Q182.07812 50.296875 181.28125 50.296875Q180.5 50.296875 179.89062 51.03125Q179.28125 51.765625 179.28125 53.15625ZM190.90625 55.859375Q190.23438 56.4375 189.59375 56.6875Q188.96875 56.921875 188.23438 56.921875Q187.04688 56.921875 186.39062 56.34375Q185.75 55.75 185.75 54.828125Q185.75 54.296875 185.98438 53.859375Q186.23438 53.421875 186.625 53.15625Q187.03125 52.890625 187.51562 52.75Q187.875 52.65625 188.60938 52.5625Q190.10938 52.390625 190.8125 52.140625Q190.8125 51.890625 190.8125 51.828125Q190.8125 51.0625 190.46875 50.765625Q190.0 50.34375 189.0625 50.34375Q188.20312 50.34375 187.78125 50.65625Q187.375 50.953125 187.17188 51.71875L185.96875 51.5625Q186.125 50.78125 186.5 50.3125Q186.89062 49.84375 187.59375 49.59375Q188.3125 49.328125 189.25 49.328125Q190.17188 49.328125 190.75 49.546875Q191.32812 49.765625 191.59375 50.09375Q191.875 50.421875 191.98438 50.9375Q192.04688 51.25 192.04688 52.0625L192.04688 53.703125Q192.04688 55.421875 192.125 55.875Q192.20312 56.328125 192.4375 56.75L191.15625 56.75Q190.96875 56.359375 190.90625 55.859375ZM190.8125 53.109375Q190.14062 53.375 188.79688 53.578125Q188.04688 53.6875 187.71875 53.828125Q187.40625 53.953125 187.23438 54.21875Q187.0625 54.484375 187.0625 54.796875Q187.0625 55.296875 187.4375 55.625Q187.8125 55.953125 188.53125 55.953125Q189.25 55.953125 189.79688 55.640625Q190.34375 55.328125 190.60938 54.78125Q190.8125 54.375 190.8125 53.5625L190.8125 53.109375ZM194.15625 56.75L194.15625 49.484375L195.26562 49.484375L195.26562 50.59375Q195.6875 49.8125 196.04688 49.578125Q196.40625 49.328125 196.84375 49.328125Q197.46875 49.328125 198.10938 49.71875L197.6875 50.859375Q197.23438 50.59375 196.78125 50.59375Q196.375 50.59375 196.04688 50.84375Q195.73438 51.078125 195.59375 51.515625Q195.39062 52.171875 195.39062 52.953125L195.39062 56.75L194.15625 56.75ZM203.90625 55.859375Q203.23438 56.4375 202.59375 56.6875Q201.96875 56.921875 201.23438 56.921875Q200.04688 56.921875 199.39062 56.34375Q198.75 55.75 198.75 54.828125Q198.75 54.296875 198.98438 53.859375Q199.23438 53.421875 199.625 53.15625Q200.03125 52.890625 200.51562 52.75Q200.875 52.65625 201.60938 52.5625Q203.10938 52.390625 203.8125 52.140625Q203.8125 51.890625 203.8125 51.828125Q203.8125 51.0625 203.46875 50.765625Q203.0 50.34375 202.0625 50.34375Q201.20312 50.34375 200.78125 50.65625Q200.375 50.953125 200.17188 51.71875L198.96875 51.5625Q199.125 50.78125 199.5 50.3125Q199.89062 49.84375 200.59375 49.59375Q201.3125 49.328125 202.25 49.328125Q203.17188 49.328125 203.75 49.546875Q204.32812 49.765625 204.59375 50.09375Q204.875 50.421875 204.98438 50.9375Q205.04688 51.25 205.04688 52.0625L205.04688 53.703125Q205.04688 55.421875 205.125 55.875Q205.20312 56.328125 205.4375 56.75L204.15625 56.75Q203.96875 56.359375 203.90625 55.859375ZM203.8125 53.109375Q203.14062 53.375 201.79688 53.578125Q201.04688 53.6875 200.71875 53.828125Q200.40625 53.953125 200.23438 54.21875Q200.0625 54.484375 200.0625 54.796875Q200.0625 55.296875 200.4375 55.625Q200.8125 55.953125 201.53125 55.953125Q202.25 55.953125 202.79688 55.640625Q203.34375 55.328125 203.60938 54.78125Q203.8125 54.375 203.8125 53.5625L203.8125 53.109375ZM206.95312 57.359375L208.14062 57.53125Q208.21875 58.078125 208.5625 58.34375Q209.01562 58.671875 209.8125 58.671875Q210.67188 58.671875 211.125 58.328125Q211.59375 58.0 211.76562 57.375Q211.85938 57.0 211.84375 55.796875Q211.04688 56.75 209.84375 56.75Q208.34375 56.75 207.51562 55.671875Q206.70312 54.59375 206.70312 53.078125Q206.70312 52.046875 207.07812 51.171875Q207.45312 50.28125 208.15625 49.8125Q208.875 49.328125 209.84375 49.328125Q211.125 49.328125 211.96875 50.359375L211.96875 49.484375L213.09375 49.484375L213.09375 55.765625Q213.09375 57.46875 212.75 58.171875Q212.40625 58.875 211.65625 59.28125Q210.90625 59.703125 209.8125 59.703125Q208.51562 59.703125 207.71875 59.109375Q206.92188 58.53125 206.95312 57.359375ZM207.96875 52.984375Q207.96875 54.421875 208.53125 55.078125Q209.09375 55.734375 209.95312 55.734375Q210.79688 55.734375 211.375 55.078125Q211.95312 54.421875 211.95312 53.03125Q211.95312 51.703125 211.35938 51.03125Q210.76562 50.34375 209.9375 50.34375Q209.10938 50.34375 208.53125 51.015625Q207.96875 51.671875 207.96875 52.984375ZM215.15625 56.75L215.15625 49.484375L216.26562 49.484375L216.26562 50.59375Q216.6875 49.8125 217.04688 49.578125Q217.40625 49.328125 217.84375 49.328125Q218.46875 49.328125 219.10938 49.71875L218.6875 50.859375Q218.23438 50.59375 217.78125 50.59375Q217.375 50.59375 217.04688 50.84375Q216.73438 51.078125 216.59375 51.515625Q216.39062 52.171875 216.39062 52.953125L216.39062 56.75L215.15625 56.75ZM224.90625 55.859375Q224.23438 56.4375 223.59375 56.6875Q222.96875 56.921875 222.23438 56.921875Q221.04688 56.921875 220.39062 56.34375Q219.75 55.75 219.75 54.828125Q219.75 54.296875 219.98438 53.859375Q220.23438 53.421875 220.625 53.15625Q221.03125 52.890625 221.51562 52.75Q221.875 52.65625 222.60938 52.5625Q224.10938 52.390625 224.8125 52.140625Q224.8125 51.890625 224.8125 51.828125Q224.8125 51.0625 224.46875 50.765625Q224.0 50.34375 223.0625 50.34375Q222.20312 50.34375 221.78125 50.65625Q221.375 50.953125 221.17188 51.71875L219.96875 51.5625Q220.125 50.78125 220.5 50.3125Q220.89062 49.84375 221.59375 49.59375Q222.3125 49.328125 223.25 49.328125Q224.17188 49.328125 224.75 49.546875Q225.32812 49.765625 225.59375 50.09375Q225.875 50.421875 225.98438 50.9375Q226.04688 51.25 226.04688 52.0625L226.04688 53.703125Q226.04688 55.421875 226.125 55.875Q226.20312 56.328125 226.4375 56.75L225.15625 56.75Q224.96875 56.359375 224.90625 55.859375ZM224.8125 53.109375Q224.14062 53.375 222.79688 53.578125Q222.04688 53.6875 221.71875 53.828125Q221.40625 53.953125 221.23438 54.21875Q221.0625 54.484375 221.0625 54.796875Q221.0625 55.296875 221.4375 55.625Q221.8125 55.953125 222.53125 55.953125Q223.25 55.953125 223.79688 55.640625Q224.34375 55.328125 224.60938 54.78125Q224.8125 54.375 224.8125 53.5625L224.8125 53.109375ZM228.17188 59.53125L228.17188 49.484375L229.29688 49.484375L229.29688 50.4375Q229.6875 49.875 230.1875 49.609375Q230.6875 49.328125 231.40625 49.328125Q232.32812 49.328125 233.03125 49.8125Q233.75 50.28125 234.10938 51.15625Q234.46875 52.03125 234.46875 53.0625Q234.46875 54.171875 234.0625 55.078125Q233.67188 55.96875 232.90625 56.453125Q232.15625 56.921875 231.3125 56.921875Q230.70312 56.921875 230.20312 56.65625Q229.71875 56.390625 229.40625 56.0L229.40625 59.53125L228.17188 59.53125ZM229.28125 53.15625Q229.28125 54.5625 229.84375 55.234375Q230.42188 55.90625 231.23438 55.90625Q232.04688 55.90625 232.625 55.21875Q233.21875 54.515625 233.21875 53.0625Q233.21875 51.671875 232.64062 50.984375Q232.07812 50.296875 231.28125 50.296875Q230.5 50.296875 229.89062 51.03125Q229.28125 51.765625 229.28125 53.15625ZM236.17188 56.75L236.17188 46.734375L237.40625 46.734375L237.40625 50.328125Q238.26562 49.328125 239.57812 49.328125Q240.39062 49.328125 240.98438 49.65625Q241.57812 49.96875 241.82812 50.53125Q242.09375 51.078125 242.09375 52.15625L242.09375 56.75L240.85938 56.75L240.85938 52.15625Q240.85938 51.21875 240.45312 50.8125Q240.0625 50.390625 239.32812 50.390625Q238.78125 50.390625 238.29688 50.671875Q237.8125 50.953125 237.60938 51.4375Q237.40625 51.921875 237.40625 52.78125L237.40625 56.75L236.17188 56.75ZM243.6875 54.578125L244.89062 54.390625Q245.0 55.125 245.46875 55.515625Q245.9375 55.90625 246.78125 55.90625Q247.625 55.90625 248.03125 55.5625Q248.45312 55.21875 248.45312 54.75Q248.45312 54.328125 248.07812 54.09375Q247.82812 53.921875 246.82812 53.671875Q245.46875 53.328125 244.9375 53.078125Q244.42188 52.828125 244.15625 52.390625Q243.89062 51.953125 243.89062 51.421875Q243.89062 50.9375 244.10938 50.53125Q244.32812 50.109375 244.71875 49.828125Q245.0 49.625 245.48438 49.484375Q245.98438 49.328125 246.5625 49.328125Q247.40625 49.328125 248.04688 49.578125Q248.70312 49.8125 249.01562 50.234375Q249.32812 50.65625 249.4375 51.359375L248.23438 51.53125Q248.15625 50.96875 247.75 50.65625Q247.35938 50.34375 246.64062 50.34375Q245.79688 50.34375 245.4375 50.625Q245.07812 50.890625 245.07812 51.28125Q245.07812 51.515625 245.21875 51.703125Q245.375 51.90625 245.70312 52.03125Q245.875 52.09375 246.78125 52.34375Q248.09375 52.703125 248.60938 52.921875Q249.125 53.140625 249.40625 53.5625Q249.70312 53.984375 249.70312 54.609375Q249.70312 55.234375 249.34375 55.78125Q249.0 56.3125 248.3125 56.625Q247.64062 56.921875 246.78125 56.921875Q245.375 56.921875 244.625 56.328125Q243.89062 55.734375 243.6875 54.578125Z" fill-rule="nonzero"/><path fill="#757575" d="M13.71875 31.25L13.71875 16.9375L19.09375 16.9375Q20.734375 16.9375 21.71875 17.375Q22.703125 17.796875 23.265625 18.703125Q23.828125 19.609375 23.828125 20.59375Q23.828125 21.515625 23.328125 22.328125Q22.84375 23.140625 21.828125 23.625Q23.125 24.015625 23.828125 24.9375Q24.53125 25.84375 24.53125 27.09375Q24.53125 28.109375 24.09375 28.96875Q23.671875 29.828125 23.046875 30.296875Q22.421875 30.765625 21.484375 31.015625Q20.546875 31.25 19.171875 31.25L13.71875 31.25ZM15.609375 22.953125L18.703125 22.953125Q19.96875 22.953125 20.515625 22.78125Q21.234375 22.5625 21.59375 22.078125Q21.96875 21.578125 21.96875 20.8125Q21.96875 20.109375 21.625 19.5625Q21.28125 19.015625 20.640625 18.828125Q20.015625 18.625 18.46875 18.625L15.609375 18.625L15.609375 22.953125ZM15.609375 29.5625L19.171875 29.5625Q20.09375 29.5625 20.46875 29.484375Q21.125 29.375 21.5625 29.109375Q22.0 28.828125 22.28125 28.3125Q22.5625 27.78125 22.5625 27.09375Q22.5625 26.296875 22.15625 25.703125Q21.75 25.109375 21.015625 24.875Q20.28125 24.640625 18.921875 24.640625L15.609375 24.640625L15.609375 29.5625ZM26.578125 18.953125L26.578125 16.9375L28.34375 16.9375L28.34375 18.953125L26.578125 18.953125ZM26.578125 31.25L26.578125 20.875L28.34375 20.875L28.34375 31.25L26.578125 31.25ZM34.40625 29.671875L34.65625 31.234375Q33.921875 31.390625 33.328125 31.390625Q32.375 31.390625 31.84375 31.09375Q31.328125 30.78125 31.109375 30.296875Q30.890625 29.796875 30.890625 28.21875L30.890625 22.25L29.609375 22.25L29.609375 20.875L30.890625 20.875L30.890625 18.3125L32.640625 17.25L32.640625 20.875L34.40625 20.875L34.40625 22.25L32.640625 22.25L32.640625 28.3125Q32.640625 29.0625 32.734375 29.28125Q32.828125 29.484375 33.03125 29.625Q33.25 29.75 33.640625 29.75Q33.921875 29.75 34.40625 29.671875ZM42.5625 35.21875L42.5625 20.875L44.171875 20.875L44.171875 22.21875Q44.734375 21.4375 45.4375 21.046875Q46.15625 20.640625 47.171875 20.640625Q48.5 20.640625 49.515625 21.328125Q50.53125 22.015625 51.046875 23.265625Q51.578125 24.5 51.578125 25.984375Q51.578125 27.578125 51.0 28.859375Q50.4375 30.125 49.34375 30.8125Q48.25 31.484375 47.046875 31.484375Q46.171875 31.484375 45.46875 31.109375Q44.78125 30.734375 44.328125 30.171875L44.328125 35.21875L42.5625 35.21875ZM44.15625 26.125Q44.15625 28.125 44.96875 29.078125Q45.78125 30.03125 46.9375 30.03125Q48.109375 30.03125 48.9375 29.046875Q49.78125 28.0625 49.78125 25.96875Q49.78125 24.0 48.953125 23.015625Q48.140625 22.015625 47.015625 22.015625Q45.890625 22.015625 45.015625 23.078125Q44.15625 24.125 44.15625 26.125ZM53.546875 31.25L53.546875 20.875L55.125 20.875L55.125 22.453125Q55.734375 21.34375 56.25 21.0Q56.765625 20.640625 57.375 20.640625Q58.265625 20.640625 59.1875 21.203125L58.578125 22.84375Q57.9375 22.453125 57.296875 22.453125Q56.71875 22.453125 56.25 22.8125Q55.796875 23.15625 55.59375 23.765625Q55.3125 24.703125 55.3125 25.8125L55.3125 31.25L53.546875 31.25ZM59.921875 26.0625Q59.921875 23.1875 61.515625 21.796875Q62.859375 20.640625 64.78125 20.640625Q66.921875 20.640625 68.265625 22.046875Q69.625 23.453125 69.625 25.921875Q69.625 27.921875 69.03125 29.078125Q68.4375 30.21875 67.28125 30.859375Q66.140625 31.484375 64.78125 31.484375Q62.59375 31.484375 61.25 30.09375Q59.921875 28.6875 59.921875 26.0625ZM61.71875 26.0625Q61.71875 28.0625 62.578125 29.046875Q63.453125 30.03125 64.78125 30.03125Q66.09375 30.03125 66.953125 29.046875Q67.828125 28.046875 67.828125 26.0Q67.828125 24.078125 66.953125 23.09375Q66.078125 22.09375 64.78125 22.09375Q63.453125 22.09375 62.578125 23.09375Q61.71875 24.078125 61.71875 26.0625ZM73.1875 31.25L71.5625 31.25L71.5625 16.9375L73.3125 16.9375L73.3125 22.046875Q74.4375 20.640625 76.15625 20.640625Q77.109375 20.640625 77.96875 21.03125Q78.828125 21.421875 79.375 22.125Q79.921875 22.8125 80.234375 23.796875Q80.546875 24.78125 80.546875 25.90625Q80.546875 28.578125 79.234375 30.03125Q77.921875 31.484375 76.078125 31.484375Q74.234375 31.484375 73.1875 29.953125L73.1875 31.25ZM73.171875 25.984375Q73.171875 27.84375 73.671875 28.6875Q74.515625 30.03125 75.921875 30.03125Q77.078125 30.03125 77.90625 29.03125Q78.75 28.03125 78.75 26.046875Q78.75 24.015625 77.9375 23.0625Q77.140625 22.09375 76.0 22.09375Q74.84375 22.09375 74.0 23.09375Q73.171875 24.09375 73.171875 25.984375ZM89.34375 29.96875Q88.359375 30.796875 87.453125 31.140625Q86.546875 31.484375 85.515625 31.484375Q83.8125 31.484375 82.890625 30.65625Q81.96875 29.8125 81.96875 28.515625Q81.96875 27.75 82.3125 27.125Q82.671875 26.5 83.234375 26.125Q83.796875 25.734375 84.5 25.53125Q85.015625 25.40625 86.0625 25.265625Q88.1875 25.015625 89.1875 24.671875Q89.203125 24.3125 89.203125 24.203125Q89.203125 23.140625 88.703125 22.6875Q88.03125 22.09375 86.703125 22.09375Q85.453125 22.09375 84.859375 22.53125Q84.28125 22.96875 84.0 24.078125L82.28125 23.84375Q82.515625 22.734375 83.046875 22.0625Q83.578125 21.375 84.59375 21.015625Q85.609375 20.640625 86.953125 20.640625Q88.28125 20.640625 89.109375 20.953125Q89.9375 21.265625 90.328125 21.75Q90.71875 22.21875 90.875 22.9375Q90.96875 23.390625 90.96875 24.5625L90.96875 26.90625Q90.96875 29.359375 91.078125 30.015625Q91.1875 30.65625 91.53125 31.25L89.6875 31.25Q89.421875 30.703125 89.34375 29.96875ZM89.1875 26.046875Q88.234375 26.4375 86.3125 26.703125Q85.234375 26.859375 84.78125 27.0625Q84.34375 27.25 84.09375 27.625Q83.84375 28.0 83.84375 28.46875Q83.84375 29.171875 84.375 29.640625Q84.90625 30.109375 85.9375 30.109375Q86.953125 30.109375 87.734375 29.671875Q88.53125 29.21875 88.90625 28.453125Q89.1875 27.84375 89.1875 26.6875L89.1875 26.046875ZM95.1875 31.25L93.5625 31.25L93.5625 16.9375L95.3125 16.9375L95.3125 22.046875Q96.4375 20.640625 98.15625 20.640625Q99.109375 20.640625 99.96875 21.03125Q100.828125 21.421875 101.375 22.125Q101.921875 22.8125 102.234375 23.796875Q102.546875 24.78125 102.546875 25.90625Q102.546875 28.578125 101.234375 30.03125Q99.921875 31.484375 98.078125 31.484375Q96.234375 31.484375 95.1875 29.953125L95.1875 31.25ZM95.171875 25.984375Q95.171875 27.84375 95.671875 28.6875Q96.515625 30.03125 97.921875 30.03125Q99.078125 30.03125 99.90625 29.03125Q100.75 28.03125 100.75 26.046875Q100.75 24.015625 99.9375 23.0625Q99.140625 22.09375 98.0 22.09375Q96.84375 22.09375 96.0 23.09375Q95.171875 24.09375 95.171875 25.984375ZM104.578125 18.953125L104.578125 16.9375L106.34375 16.9375L106.34375 18.953125L104.578125 18.953125ZM104.578125 31.25L104.578125 20.875L106.34375 20.875L106.34375 31.25L104.578125 31.25ZM108.53125 31.25L108.53125 16.9375L110.28125 16.9375L110.28125 31.25L108.53125 31.25ZM112.578125 18.953125L112.578125 16.9375L114.34375 16.9375L114.34375 18.953125L112.578125 18.953125ZM112.578125 31.25L112.578125 20.875L114.34375 20.875L114.34375 31.25L112.578125 31.25ZM120.40625 29.671875L120.65625 31.234375Q119.921875 31.390625 119.328125 31.390625Q118.375 31.390625 117.84375 31.09375Q117.328125 30.78125 117.109375 30.296875Q116.890625 29.796875 116.890625 28.21875L116.890625 22.25L115.609375 22.25L115.609375 20.875L116.890625 20.875L116.890625 18.3125L118.640625 17.25L118.640625 20.875L120.40625 20.875L120.40625 22.25L118.640625 22.25L118.640625 28.3125Q118.640625 29.0625 118.734375 29.28125Q118.828125 29.484375 119.03125 29.625Q119.25 29.75 119.640625 29.75Q119.921875 29.75 120.40625 29.671875ZM122.578125 18.953125L122.578125 16.9375L124.34375 16.9375L124.34375 18.953125L122.578125 18.953125ZM122.578125 31.25L122.578125 20.875L124.34375 20.875L124.34375 31.25L122.578125 31.25ZM133.67188 27.90625L135.48438 28.140625Q135.0625 29.71875 133.89062 30.609375Q132.73438 31.484375 130.92188 31.484375Q128.65625 31.484375 127.3125 30.09375Q125.984375 28.6875 125.984375 26.15625Q125.984375 23.53125 127.328125 22.09375Q128.67188 20.640625 130.82812 20.640625Q132.90625 20.640625 134.21875 22.0625Q135.54688 23.46875 135.54688 26.046875Q135.54688 26.203125 135.53125 26.515625L127.796875 26.515625Q127.890625 28.21875 128.76562 29.125Q129.64062 30.03125 130.9375 30.03125Q131.90625 30.03125 132.57812 29.53125Q133.26562 29.015625 133.67188 27.90625ZM127.890625 25.0625L133.6875 25.0625Q133.57812 23.765625 133.03125 23.109375Q132.1875 22.09375 130.84375 22.09375Q129.64062 22.09375 128.8125 22.90625Q127.984375 23.703125 127.890625 25.0625ZM136.85938 28.15625L138.60938 27.875Q138.75 28.921875 139.42188 29.484375Q140.09375 30.03125 141.29688 30.03125Q142.5 30.03125 143.07812 29.546875Q143.67188 29.046875 143.67188 28.390625Q143.67188 27.796875 143.15625 27.453125Q142.79688 27.21875 141.35938 26.859375Q139.42188 26.359375 138.67188 26.015625Q137.9375 25.65625 137.54688 25.03125Q137.15625 24.390625 137.15625 23.625Q137.15625 22.9375 137.46875 22.34375Q137.79688 21.75 138.34375 21.359375Q138.75 21.0625 139.45312 20.859375Q140.17188 20.640625 140.98438 20.640625Q142.20312 20.640625 143.125 21.0Q144.04688 21.34375 144.48438 21.953125Q144.92188 22.546875 145.09375 23.546875L143.375 23.78125Q143.25 22.984375 142.6875 22.546875Q142.125 22.09375 141.10938 22.09375Q139.89062 22.09375 139.375 22.5Q138.85938 22.890625 138.85938 23.421875Q138.85938 23.765625 139.07812 24.046875Q139.28125 24.328125 139.75 24.515625Q140.01562 24.609375 141.29688 24.953125Q143.17188 25.453125 143.90625 25.78125Q144.64062 26.09375 145.0625 26.703125Q145.48438 27.296875 145.48438 28.203125Q145.48438 29.078125 144.96875 29.859375Q144.45312 30.640625 143.48438 31.0625Q142.51562 31.484375 141.29688 31.484375Q139.28125 31.484375 138.21875 30.640625Q137.15625 29.796875 136.85938 28.15625ZM148.03125 31.25L148.03125 29.25L150.03125 29.25L150.03125 31.25Q150.03125 32.359375 149.64062 33.03125Q149.25 33.71875 148.40625 34.078125L147.90625 33.328125Q148.46875 33.09375 148.73438 32.609375Q149.0 32.140625 149.03125 31.25L148.03125 31.25ZM158.92188 26.0625Q158.92188 23.1875 160.51562 21.796875Q161.85938 20.640625 163.78125 20.640625Q165.92188 20.640625 167.26562 22.046875Q168.625 23.453125 168.625 25.921875Q168.625 27.921875 168.03125 29.078125Q167.4375 30.21875 166.28125 30.859375Q165.14062 31.484375 163.78125 31.484375Q161.59375 31.484375 160.25 30.09375Q158.92188 28.6875 158.92188 26.0625ZM160.71875 26.0625Q160.71875 28.0625 161.57812 29.046875Q162.45312 30.03125 163.78125 30.03125Q165.09375 30.03125 165.95312 29.046875Q166.82812 28.046875 166.82812 26.0Q166.82812 24.078125 165.95312 23.09375Q165.07812 22.09375 163.78125 22.09375Q162.45312 22.09375 161.57812 23.09375Q160.71875 24.078125 160.71875 26.0625ZM170.98438 31.25L170.98438 22.25L169.4375 22.25L169.4375 20.875L170.98438 20.875L170.98438 19.78125Q170.98438 18.734375 171.17188 18.21875Q171.42188 17.53125 172.0625 17.109375Q172.70312 16.6875 173.85938 16.6875Q174.60938 16.6875 175.5 16.859375L175.23438 18.390625Q174.6875 18.296875 174.20312 18.296875Q173.40625 18.296875 173.0625 18.640625Q172.73438 18.984375 172.73438 19.921875L172.73438 20.875L174.76562 20.875L174.76562 22.25L172.73438 22.25L172.73438 31.25L170.98438 31.25ZM176.98438 31.25L176.98438 22.25L175.4375 22.25L175.4375 20.875L176.98438 20.875L176.98438 19.78125Q176.98438 18.734375 177.17188 18.21875Q177.42188 17.53125 178.0625 17.109375Q178.70312 16.6875 179.85938 16.6875Q180.60938 16.6875 181.5 16.859375L181.23438 18.390625Q180.6875 18.296875 180.20312 18.296875Q179.40625 18.296875 179.0625 18.640625Q178.73438 18.984375 178.73438 19.921875L178.73438 20.875L180.76562 20.875L180.76562 22.25L178.73438 22.25L178.73438 31.25L176.98438 31.25ZM181.85938 28.15625L183.60938 27.875Q183.75 28.921875 184.42188 29.484375Q185.09375 30.03125 186.29688 30.03125Q187.5 30.03125 188.07812 29.546875Q188.67188 29.046875 188.67188 28.390625Q188.67188 27.796875 188.15625 27.453125Q187.79688 27.21875 186.35938 26.859375Q184.42188 26.359375 183.67188 26.015625Q182.9375 25.65625 182.54688 25.03125Q182.15625 24.390625 182.15625 23.625Q182.15625 22.9375 182.46875 22.34375Q182.79688 21.75 183.34375 21.359375Q183.75 21.0625 184.45312 20.859375Q185.17188 20.640625 185.98438 20.640625Q187.20312 20.640625 188.125 21.0Q189.04688 21.34375 189.48438 21.953125Q189.92188 22.546875 190.09375 23.546875L188.375 23.78125Q188.25 22.984375 187.6875 22.546875Q187.125 22.09375 186.10938 22.09375Q184.89062 22.09375 184.375 22.5Q183.85938 22.890625 183.85938 23.421875Q183.85938 23.765625 184.07812 24.046875Q184.28125 24.328125 184.75 24.515625Q185.01562 24.609375 186.29688 24.953125Q188.17188 25.453125 188.90625 25.78125Q189.64062 26.09375 190.0625 26.703125Q190.48438 27.296875 190.48438 28.203125Q190.48438 29.078125 189.96875 29.859375Q189.45312 30.640625 188.48438 31.0625Q187.51562 31.484375 186.29688 31.484375Q184.28125 31.484375 183.21875 30.640625Q182.15625 29.796875 181.85938 28.15625ZM199.67188 27.90625L201.48438 28.140625Q201.0625 29.71875 199.89062 30.609375Q198.73438 31.484375 196.92188 31.484375Q194.65625 31.484375 193.3125 30.09375Q191.98438 28.6875 191.98438 26.15625Q191.98438 23.53125 193.32812 22.09375Q194.67188 20.640625 196.82812 20.640625Q198.90625 20.640625 200.21875 22.0625Q201.54688 23.46875 201.54688 26.046875Q201.54688 26.203125 201.53125 26.515625L193.79688 26.515625Q193.89062 28.21875 194.76562 29.125Q195.64062 30.03125 196.9375 30.03125Q197.90625 30.03125 198.57812 29.53125Q199.26562 29.015625 199.67188 27.90625ZM193.89062 25.0625L199.6875 25.0625Q199.57812 23.765625 199.03125 23.109375Q198.1875 22.09375 196.84375 22.09375Q195.64062 22.09375 194.8125 22.90625Q193.98438 23.703125 193.89062 25.0625ZM207.40625 29.671875L207.65625 31.234375Q206.92188 31.390625 206.32812 31.390625Q205.375 31.390625 204.84375 31.09375Q204.32812 30.78125 204.10938 30.296875Q203.89062 29.796875 203.89062 28.21875L203.89062 22.25L202.60938 22.25L202.60938 20.875L203.89062 20.875L203.89062 18.3125L205.64062 17.25L205.64062 20.875L207.40625 20.875L207.40625 22.25L205.64062 22.25L205.64062 28.3125Q205.64062 29.0625 205.73438 29.28125Q205.82812 29.484375 206.03125 29.625Q206.25 29.75 206.64062 29.75Q206.92188 29.75 207.40625 29.671875ZM215.98438 31.25L215.98438 22.25L214.4375 22.25L214.4375 20.875L215.98438 20.875L215.98438 19.78125Q215.98438 18.734375 216.17188 18.21875Q216.42188 17.53125 217.0625 17.109375Q217.70312 16.6875 218.85938 16.6875Q219.60938 16.6875 220.5 16.859375L220.23438 18.390625Q219.6875 18.296875 219.20312 18.296875Q218.40625 18.296875 218.0625 18.640625Q217.73438 18.984375 217.73438 19.921875L217.73438 20.875L219.76562 20.875L219.76562 22.25L217.73438 22.25L217.73438 31.25L215.98438 31.25ZM221.54688 31.25L221.54688 20.875L223.125 20.875L223.125 22.453125Q223.73438 21.34375 224.25 21.0Q224.76562 20.640625 225.375 20.640625Q226.26562 20.640625 227.1875 21.203125L226.57812 22.84375Q225.9375 22.453125 225.29688 22.453125Q224.71875 22.453125 224.25 22.8125Q223.79688 23.15625 223.59375 23.765625Q223.3125 24.703125 223.3125 25.8125L223.3125 31.25L221.54688 31.25ZM227.92188 26.0625Q227.92188 23.1875 229.51562 21.796875Q230.85938 20.640625 232.78125 20.640625Q234.92188 20.640625 236.26562 22.046875Q237.625 23.453125 237.625 25.921875Q237.625 27.921875 237.03125 29.078125Q236.4375 30.21875 235.28125 30.859375Q234.14062 31.484375 232.78125 31.484375Q230.59375 31.484375 229.25 30.09375Q227.92188 28.6875 227.92188 26.0625ZM229.71875 26.0625Q229.71875 28.0625 230.57812 29.046875Q231.45312 30.03125 232.78125 30.03125Q234.09375 30.03125 234.95312 29.046875Q235.82812 28.046875 235.82812 26.0Q235.82812 24.078125 234.95312 23.09375Q234.07812 22.09375 232.78125 22.09375Q231.45312 22.09375 230.57812 23.09375Q229.71875 24.078125 229.71875 26.0625ZM239.5625 31.25L239.5625 20.875L241.14062 20.875L241.14062 22.328125Q241.625 21.578125 242.4375 21.109375Q243.25 20.640625 244.28125 20.640625Q245.4375 20.640625 246.17188 21.125Q246.90625 21.59375 247.21875 22.453125Q248.45312 20.640625 250.42188 20.640625Q251.96875 20.640625 252.79688 21.5Q253.625 22.359375 253.625 24.125L253.625 31.25L251.875 31.25L251.875 24.71875Q251.875 23.65625 251.70312 23.203125Q251.53125 22.734375 251.07812 22.453125Q250.64062 22.171875 250.03125 22.171875Q248.9375 22.171875 248.20312 22.90625Q247.48438 23.625 247.48438 25.21875L247.48438 31.25L245.73438 31.25L245.73438 24.515625Q245.73438 23.34375 245.29688 22.765625Q244.875 22.171875 243.89062 22.171875Q243.15625 22.171875 242.51562 22.5625Q241.89062 22.953125 241.60938 23.703125Q241.32812 24.453125 241.32812 25.875L241.32812 31.25L239.5625 31.25ZM262.07812 27.5L263.92188 27.34375Q264.125 28.6875 264.875 29.375Q265.625 30.046875 266.6875 30.046875Q267.95312 30.046875 268.82812 29.09375Q269.70312 28.140625 269.70312 26.546875Q269.70312 25.046875 268.85938 24.1875Q268.01562 23.3125 266.65625 23.3125Q265.79688 23.3125 265.10938 23.703125Q264.4375 24.078125 264.04688 24.703125L262.39062 24.484375L263.78125 17.125L270.90625 17.125L270.90625 18.8125L265.1875 18.8125L264.42188 22.65625Q265.70312 21.75 267.125 21.75Q269.0 21.75 270.28125 23.0625Q271.57812 24.359375 271.57812 26.390625Q271.57812 28.34375 270.4375 29.75Q269.0625 31.5 266.6875 31.5Q264.73438 31.5 263.48438 30.40625Q262.25 29.3125 262.07812 27.5ZM273.07812 24.1875Q273.07812 21.65625 273.59375 20.109375Q274.125 18.546875 275.15625 17.71875Q276.1875 16.875 277.75 16.875Q278.90625 16.875 279.76562 17.34375Q280.64062 17.796875 281.20312 18.671875Q281.76562 19.546875 282.09375 20.8125Q282.42188 22.0625 282.42188 24.1875Q282.42188 26.703125 281.89062 28.25Q281.375 29.796875 280.34375 30.65625Q279.32812 31.5 277.75 31.5Q275.67188 31.5 274.5 30.015625Q273.07812 28.21875 273.07812 24.1875ZM274.89062 24.1875Q274.89062 27.71875 275.70312 28.890625Q276.53125 30.046875 277.75 30.046875Q278.95312 30.046875 279.78125 28.875Q280.60938 27.703125 280.60938 24.1875Q280.60938 20.65625 279.78125 19.5Q278.95312 18.328125 277.73438 18.328125Q276.51562 18.328125 275.79688 19.359375Q274.89062 20.65625 274.89062 24.1875ZM284.40625 20.375Q284.40625 18.84375 285.17188 17.765625Q285.95312 16.6875 287.42188 16.6875Q288.76562 16.6875 289.64062 17.65625Q290.53125 18.609375 290.53125 20.484375Q290.53125 22.296875 289.64062 23.28125Q288.75 24.25 287.4375 24.25Q286.14062 24.25 285.26562 23.296875Q284.40625 22.328125 284.40625 20.375ZM287.46875 17.90625Q286.8125 17.90625 286.375 18.46875Q285.95312 19.03125 285.95312 20.546875Q285.95312 21.921875 286.39062 22.484375Q286.82812 23.046875 287.46875 23.046875Q288.14062 23.046875 288.5625 22.484375Q289.0 21.90625 289.0 20.40625Q289.0 19.015625 288.5625 18.46875Q288.125 17.90625 287.46875 17.90625ZM287.48438 31.78125L295.3125 16.6875L296.73438 16.6875L288.9375 31.78125L287.48438 31.78125ZM293.67188 27.890625Q293.67188 26.34375 294.4375 25.28125Q295.21875 24.203125 296.6875 24.203125Q298.03125 24.203125 298.90625 25.171875Q299.79688 26.125 299.79688 28.0Q299.79688 29.8125 298.90625 30.796875Q298.01562 31.78125 296.70312 31.78125Q295.40625 31.78125 294.53125 30.8125Q293.67188 29.828125 293.67188 27.890625ZM296.73438 25.421875Q296.07812 25.421875 295.64062 25.984375Q295.20312 26.546875 295.20312 28.0625Q295.20312 29.4375 295.64062 30.0Q296.07812 30.5625 296.73438 30.5625Q297.40625 30.5625 297.82812 30.0Q298.26562 29.4375 298.26562 27.921875Q298.26562 26.546875 297.82812 25.984375Q297.39062 25.421875 296.73438 25.421875Z" fill-rule="nonzero"/></svg>