<svg version="1.1" viewBox="0.0 0.0 445.0 245.0" fill="none" stroke="none" stroke-linecap="square" stroke-miterlimit="10" width="445" height="245" xmlns:xlink="http://www.w3.org/1999/xlink" xmlns="http://www.w3.org/2000/svg"><path fill="#ffffff" d="M0 0L445.0 0L445.0 245.0L0 245.0L0 0Z" fill-rule="nonzero"/><path stroke="#cccccc" stroke-width="1.0" stroke-linecap="butt" d="M47.5 225.5L432.5 225.5" fill-rule="nonzero"/><path stroke="#cccccc" stroke-width="1.0" stroke-linecap="butt" d="M47.5 195.5L432.5 195.5" fill-rule="nonzero"/><path stroke="#cccccc" stroke-width="1.0" stroke-linecap="butt" d="M47.5 165.5L432.5 165.5" fill-rule="nonzero"/><path stroke="#333333" stroke-width="1.0" stroke-linecap="butt" d="M47.5 135.5L432.5 135.5" fill-rule="nonzero"/><path stroke="#cccccc" stroke-width="1.0" stroke-linecap="butt" d="M47.5 105.5L432.5 105.5" fill-rule="nonzero"/><path stroke="#cccccc" stroke-width="1.0" stroke-linecap="butt" d="M47.5 74.5L432.5 74.5" fill-rule="nonzero"/><clipPath id="id_0"><path d="M47.25 74.916664L432.75 74.916664L432.75 225.75L47.25 225.75L47.25 74.916664Z" clip-rule="nonzero"/></clipPath><path stroke="#000000" stroke-width="2.0" stroke-linecap="butt" stroke-opacity="0.0" clip-path="url(#id_0)" d="M59.0 135.0L51.0 135.0L51.0 135.0L59.0 135.0Z" fill-rule="nonzero"/><path fill="#34a853" clip-path="url(#id_0)" d="M59.0 135.0L51.0 135.0L51.0 135.0L59.0 135.0Z" fill-rule="nonzero"/><path stroke="#000000" stroke-width="2.0" stroke-linecap="butt" stroke-opacity="0.0" clip-path="url(#id_0)" d="M71.0 135.0L63.0 135.0L63.0 135.0L71.0 135.0Z" fill-rule="nonzero"/><path fill="#34a853" clip-path="url(#id_0)" d="M71.0 135.0L63.0 135.0L63.0 135.0L71.0 135.0Z" fill-rule="nonzero"/><path stroke="#000000" stroke-width="2.0" stroke-linecap="butt" stroke-opacity="0.0" clip-path="url(#id_0)" d="M83.0 135.0L75.0 135.0L75.0 135.0L83.0 135.0Z" fill-rule="nonzero"/><path fill="#34a853" clip-path="url(#id_0)" d="M83.0 135.0L75.0 135.0L75.0 135.0L83.0 135.0Z" fill-rule="nonzero"/><path stroke="#000000" stroke-width="2.0" stroke-linecap="butt" stroke-opacity="0.0" clip-path="url(#id_0)" d="M95.0 135.0L87.0 135.0L87.0 135.0L95.0 135.0Z" fill-rule="nonzero"/><path fill="#34a853" clip-path="url(#id_0)" d="M95.0 135.0L87.0 135.0L87.0 135.0L95.0 135.0Z" fill-rule="nonzero"/><path stroke="#000000" stroke-width="2.0" stroke-linecap="butt" stroke-opacity="0.0" clip-path="url(#id_0)" d="M107.0 135.0L99.0 135.0L99.0 135.0L107.0 135.0Z" fill-rule="nonzero"/><path fill="#34a853" clip-path="url(#id_0)" d="M107.0 135.0L99.0 135.0L99.0 135.0L107.0 135.0Z" fill-rule="nonzero"/><path stroke="#000000" stroke-width="2.0" stroke-linecap="butt" stroke-opacity="0.0" clip-path="url(#id_0)" d="M119.0 135.0L111.0 135.0L111.0 135.0L119.0 135.0Z" fill-rule="nonzero"/><path fill="#34a853" clip-path="url(#id_0)" d="M119.0 135.0L111.0 135.0L111.0 135.0L119.0 135.0Z" fill-rule="nonzero"/><path stroke="#000000" stroke-width="2.0" stroke-linecap="butt" stroke-opacity="0.0" clip-path="url(#id_0)" d="M131.0 135.0L123.0 135.0L123.0 135.0L131.0 135.0Z" fill-rule="nonzero"/><path fill="#34a853" clip-path="url(#id_0)" d="M131.0 135.0L123.0 135.0L123.0 135.0L131.0 135.0Z" fill-rule="nonzero"/><path stroke="#000000" stroke-width="2.0" stroke-linecap="butt" stroke-opacity="0.0" clip-path="url(#id_0)" d="M143.0 135.0L135.0 135.0L135.0 135.0L143.0 135.0Z" fill-rule="nonzero"/><path fill="#34a853" clip-path="url(#id_0)" d="M143.0 135.0L135.0 135.0L135.0 135.0L143.0 135.0Z" fill-rule="nonzero"/><path stroke="#000000" stroke-width="2.0" stroke-linecap="butt" stroke-opacity="0.0" clip-path="url(#id_0)" d="M155.0 135.0L147.0 135.0L147.0 135.0L155.0 135.0Z" fill-rule="nonzero"/><path fill="#34a853" clip-path="url(#id_0)" d="M155.0 135.0L147.0 135.0L147.0 135.0L155.0 135.0Z" fill-rule="nonzero"/><path stroke="#000000" stroke-width="2.0" stroke-linecap="butt" stroke-opacity="0.0" clip-path="url(#id_0)" d="M167.0 135.0L159.0 135.0L159.0 135.0L167.0 135.0Z" fill-rule="nonzero"/><path fill="#34a853" clip-path="url(#id_0)" d="M167.0 135.0L159.0 135.0L159.0 135.0L167.0 135.0Z" fill-rule="nonzero"/><path stroke="#000000" stroke-width="2.0" stroke-linecap="butt" stroke-opacity="0.0" clip-path="url(#id_0)" d="M178.0 135.0L170.0 135.0L170.0 135.0L178.0 135.0Z" fill-rule="nonzero"/><path fill="#34a853" clip-path="url(#id_0)" d="M178.0 135.0L170.0 135.0L170.0 135.0L178.0 135.0Z" fill-rule="nonzero"/><path stroke="#000000" stroke-width="2.0" stroke-linecap="butt" stroke-opacity="0.0" clip-path="url(#id_0)" d="M190.0 135.0L182.0 135.0L182.0 135.0L190.0 135.0Z" fill-rule="nonzero"/><path fill="#34a853" clip-path="url(#id_0)" d="M190.0 135.0L182.0 135.0L182.0 135.0L190.0 135.0Z" fill-rule="nonzero"/><path stroke="#000000" stroke-width="2.0" stroke-linecap="butt" stroke-opacity="0.0" clip-path="url(#id_0)" d="M202.0 135.0L194.0 135.0L194.0 129.0L202.0 129.0Z" fill-rule="nonzero"/><path fill="#34a853" clip-path="url(#id_0)" d="M202.0 135.0L194.0 135.0L194.0 129.0L202.0 129.0Z" fill-rule="nonzero"/><path stroke="#000000" stroke-width="2.0" stroke-linecap="butt" stroke-opacity="0.0" clip-path="url(#id_0)" d="M214.0 135.0L206.0 135.0L206.0 135.0L214.0 135.0Z" fill-rule="nonzero"/><path fill="#34a853" clip-path="url(#id_0)" d="M214.0 135.0L206.0 135.0L206.0 135.0L214.0 135.0Z" fill-rule="nonzero"/><path stroke="#000000" stroke-width="2.0" stroke-linecap="butt" stroke-opacity="0.0" clip-path="url(#id_0)" d="M226.0 135.0L218.0 135.0L218.0 135.0L226.0 135.0Z" fill-rule="nonzero"/><path fill="#34a853" clip-path="url(#id_0)" d="M226.0 135.0L218.0 135.0L218.0 135.0L226.0 135.0Z" fill-rule="nonzero"/><path stroke="#000000" stroke-width="2.0" stroke-linecap="butt" stroke-opacity="0.0" clip-path="url(#id_0)" d="M238.0 135.0L230.0 135.0L230.0 135.0L238.0 135.0Z" fill-rule="nonzero"/><path fill="#34a853" clip-path="url(#id_0)" d="M238.0 135.0L230.0 135.0L230.0 135.0L238.0 135.0Z" fill-rule="nonzero"/><path stroke="#000000" stroke-width="2.0" stroke-linecap="butt" stroke-opacity="0.0" clip-path="url(#id_0)" d="M250.0 135.0L242.0 135.0L242.0 135.0L250.0 135.0Z" fill-rule="nonzero"/><path fill="#34a853" clip-path="url(#id_0)" d="M250.0 135.0L242.0 135.0L242.0 135.0L250.0 135.0Z" fill-rule="nonzero"/><path stroke="#000000" stroke-width="2.0" stroke-linecap="butt" stroke-opacity="0.0" clip-path="url(#id_0)" d="M262.0 135.0L254.0 135.0L254.0 135.0L262.0 135.0Z" fill-rule="nonzero"/><path fill="#34a853" clip-path="url(#id_0)" d="M262.0 135.0L254.0 135.0L254.0 135.0L262.0 135.0Z" fill-rule="nonzero"/><path stroke="#000000" stroke-width="2.0" stroke-linecap="butt" stroke-opacity="0.0" clip-path="url(#id_0)" d="M274.0 135.0L266.0 135.0L266.0 129.0L274.0 129.0Z" fill-rule="nonzero"/><path fill="#34a853" clip-path="url(#id_0)" d="M274.0 135.0L266.0 135.0L266.0 129.0L274.0 129.0Z" fill-rule="nonzero"/><path stroke="#000000" stroke-width="2.0" stroke-linecap="butt" stroke-opacity="0.0" clip-path="url(#id_0)" d="M286.0 135.0L278.0 135.0L278.0 135.0L286.0 135.0Z" fill-rule="nonzero"/><path fill="#34a853" clip-path="url(#id_0)" d="M286.0 135.0L278.0 135.0L278.0 135.0L286.0 135.0Z" fill-rule="nonzero"/><path stroke="#000000" stroke-width="2.0" stroke-linecap="butt" stroke-opacity="0.0" clip-path="url(#id_0)" d="M298.0 135.0L290.0 135.0L290.0 117.0L298.0 117.0Z" fill-rule="nonzero"/><path fill="#34a853" clip-path="url(#id_0)" d="M298.0 135.0L290.0 135.0L290.0 117.0L298.0 117.0Z" fill-rule="nonzero"/><path stroke="#000000" stroke-width="2.0" stroke-linecap="butt" stroke-opacity="0.0" clip-path="url(#id_0)" d="M310.0 135.0L302.0 135.0L302.0 135.0L310.0 135.0Z" fill-rule="nonzero"/><path fill="#34a853" clip-path="url(#id_0)" d="M310.0 135.0L302.0 135.0L302.0 135.0L310.0 135.0Z" fill-rule="nonzero"/><path stroke="#000000" stroke-width="2.0" stroke-linecap="butt" stroke-opacity="0.0" clip-path="url(#id_0)" d="M321.0 135.0L313.0 135.0L313.0 135.0L321.0 135.0Z" fill-rule="nonzero"/><path fill="#34a853" clip-path="url(#id_0)" d="M321.0 135.0L313.0 135.0L313.0 135.0L321.0 135.0Z" fill-rule="nonzero"/><path stroke="#000000" stroke-width="2.0" stroke-linecap="butt" stroke-opacity="0.0" clip-path="url(#id_0)" d="M333.0 135.0L325.0 135.0L325.0 123.0L333.0 123.0Z" fill-rule="nonzero"/><path fill="#34a853" clip-path="url(#id_0)" d="M333.0 135.0L325.0 135.0L325.0 123.0L333.0 123.0Z" fill-rule="nonzero"/><path stroke="#000000" stroke-width="2.0" stroke-linecap="butt" stroke-opacity="0.0" clip-path="url(#id_0)" d="M345.0 135.0L337.0 135.0L337.0 135.0L345.0 135.0Z" fill-rule="nonzero"/><path fill="#34a853" clip-path="url(#id_0)" d="M345.0 135.0L337.0 135.0L337.0 135.0L345.0 135.0Z" fill-rule="nonzero"/><path stroke="#000000" stroke-width="2.0" stroke-linecap="butt" stroke-opacity="0.0" clip-path="url(#id_0)" d="M357.0 135.0L349.0 135.0L349.0 123.0L357.0 123.0Z" fill-rule="nonzero"/><path fill="#34a853" clip-path="url(#id_0)" d="M357.0 135.0L349.0 135.0L349.0 123.0L357.0 123.0Z" fill-rule="nonzero"/><path stroke="#000000" stroke-width="2.0" stroke-linecap="butt" stroke-opacity="0.0" clip-path="url(#id_0)" d="M369.0 135.0L361.0 135.0L361.0 123.0L369.0 123.0Z" fill-rule="nonzero"/><path fill="#34a853" clip-path="url(#id_0)" d="M369.0 135.0L361.0 135.0L361.0 123.0L369.0 123.0Z" fill-rule="nonzero"/><path stroke="#000000" stroke-width="2.0" stroke-linecap="butt" stroke-opacity="0.0" clip-path="url(#id_0)" d="M381.0 135.0L373.0 135.0L373.0 135.0L381.0 135.0Z" fill-rule="nonzero"/><path fill="#34a853" clip-path="url(#id_0)" d="M381.0 135.0L373.0 135.0L373.0 135.0L381.0 135.0Z" fill-rule="nonzero"/><path stroke="#000000" stroke-width="2.0" stroke-linecap="butt" stroke-opacity="0.0" clip-path="url(#id_0)" d="M393.0 135.0L385.0 135.0L385.0 129.0L393.0 129.0Z" fill-rule="nonzero"/><path fill="#34a853" clip-path="url(#id_0)" d="M393.0 135.0L385.0 135.0L385.0 129.0L393.0 129.0Z" fill-rule="nonzero"/><path stroke="#000000" stroke-width="2.0" stroke-linecap="butt" stroke-opacity="0.0" clip-path="url(#id_0)" d="M405.0 135.0L397.0 135.0L397.0 135.0L405.0 135.0Z" fill-rule="nonzero"/><path fill="#34a853" clip-path="url(#id_0)" d="M405.0 135.0L397.0 135.0L397.0 135.0L405.0 135.0Z" fill-rule="nonzero"/><path stroke="#000000" stroke-width="2.0" stroke-linecap="butt" stroke-opacity="0.0" clip-path="url(#id_0)" d="M417.0 135.0L409.0 135.0L409.0 93.0L417.0 93.0Z" fill-rule="nonzero"/><path fill="#34a853" clip-path="url(#id_0)" d="M417.0 135.0L409.0 135.0L409.0 93.0L417.0 93.0Z" fill-rule="nonzero"/><path stroke="#000000" stroke-width="2.0" stroke-linecap="butt" stroke-opacity="0.0" clip-path="url(#id_0)" d="M429.0 135.0L421.0 135.0L421.0 117.0L429.0 117.0Z" fill-rule="nonzero"/><path fill="#34a853" clip-path="url(#id_0)" d="M429.0 135.0L421.0 135.0L421.0 117.0L429.0 117.0Z" fill-rule="nonzero"/><path stroke="#000000" stroke-width="2.0" stroke-linecap="butt" stroke-opacity="0.0" clip-path="url(#id_0)" d="M59.0 135.0L51.0 135.0L51.0 135.0L59.0 135.0Z" fill-rule="nonzero"/><path fill="#ea4335" clip-path="url(#id_0)" d="M59.0 135.0L51.0 135.0L51.0 135.0L59.0 135.0Z" fill-rule="nonzero"/><path stroke="#000000" stroke-width="2.0" stroke-linecap="butt" stroke-opacity="0.0" clip-path="url(#id_0)" d="M71.0 135.0L63.0 135.0L63.0 139.0C63.0 140.10457 63.89543 141.0 65.0 141.0L69.0 141.0C70.10457 141.0 71.0 140.10457 71.0 139.0Z" fill-rule="nonzero"/><path fill="#ea4335" clip-path="url(#id_0)" d="M71.0 135.0L63.0 135.0L63.0 139.0C63.0 140.10457 63.89543 141.0 65.0 141.0L69.0 141.0C70.10457 141.0 71.0 140.10457 71.0 139.0Z" fill-rule="nonzero"/><path stroke="#000000" stroke-width="2.0" stroke-linecap="butt" stroke-opacity="0.0" clip-path="url(#id_0)" d="M83.0 135.0L75.0 135.0L75.0 135.0L83.0 135.0Z" fill-rule="nonzero"/><path fill="#ea4335" clip-path="url(#id_0)" d="M83.0 135.0L75.0 135.0L75.0 135.0L83.0 135.0Z" fill-rule="nonzero"/><path stroke="#000000" stroke-width="2.0" stroke-linecap="butt" stroke-opacity="0.0" clip-path="url(#id_0)" d="M95.0 135.0L87.0 135.0L87.0 139.0C87.0 140.10457 87.89543 141.0 89.0 141.0L93.0 141.0C94.10457 141.0 95.0 140.10457 95.0 139.0Z" fill-rule="nonzero"/><path fill="#ea4335" clip-path="url(#id_0)" d="M95.0 135.0L87.0 135.0L87.0 139.0C87.0 140.10457 87.89543 141.0 89.0 141.0L93.0 141.0C94.10457 141.0 95.0 140.10457 95.0 139.0Z" fill-rule="nonzero"/><path stroke="#000000" stroke-width="2.0" stroke-linecap="butt" stroke-opacity="0.0" clip-path="url(#id_0)" d="M107.0 135.0L99.0 135.0L99.0 139.0C99.0 140.10457 99.89543 141.0 101.0 141.0L105.0 141.0C106.10457 141.0 107.0 140.10457 107.0 139.0Z" fill-rule="nonzero"/><path fill="#ea4335" clip-path="url(#id_0)" d="M107.0 135.0L99.0 135.0L99.0 139.0C99.0 140.10457 99.89543 141.0 101.0 141.0L105.0 141.0C106.10457 141.0 107.0 140.10457 107.0 139.0Z" fill-rule="nonzero"/><path stroke="#000000" stroke-width="2.0" stroke-linecap="butt" stroke-opacity="0.0" clip-path="url(#id_0)" d="M119.0 135.0L111.0 135.0L111.0 139.0C111.0 140.10457 111.89543 141.0 113.0 141.0L117.0 141.0C118.10457 141.0 119.0 140.10457 119.0 139.0Z" fill-rule="nonzero"/><path fill="#ea4335" clip-path="url(#id_0)" d="M119.0 135.0L111.0 135.0L111.0 139.0C111.0 140.10457 111.89543 141.0 113.0 141.0L117.0 141.0C118.10457 141.0 119.0 140.10457 119.0 139.0Z" fill-rule="nonzero"/><path stroke="#000000" stroke-width="2.0" stroke-linecap="butt" stroke-opacity="0.0" clip-path="url(#id_0)" d="M131.0 135.0L123.0 135.0L123.0 200.0C123.0 201.10457 123.89543 202.0 125.0 202.0L129.0 202.0C130.10457 202.0 131.0 201.10457 131.0 200.0Z" fill-rule="nonzero"/><path fill="#ea4335" clip-path="url(#id_0)" d="M131.0 135.0L123.0 135.0L123.0 200.0C123.0 201.10457 123.89543 202.0 125.0 202.0L129.0 202.0C130.10457 202.0 131.0 201.10457 131.0 200.0Z" fill-rule="nonzero"/><path stroke="#000000" stroke-width="2.0" stroke-linecap="butt" stroke-opacity="0.0" clip-path="url(#id_0)" d="M143.0 135.0L135.0 135.0L135.0 175.0C135.0 176.10457 135.89543 177.0 137.0 177.0L141.0 177.0C142.10457 177.0 143.0 176.10457 143.0 175.0Z" fill-rule="nonzero"/><path fill="#ea4335" clip-path="url(#id_0)" d="M143.0 135.0L135.0 135.0L135.0 175.0C135.0 176.10457 135.89543 177.0 137.0 177.0L141.0 177.0C142.10457 177.0 143.0 176.10457 143.0 175.0Z" fill-rule="nonzero"/><path stroke="#000000" stroke-width="2.0" stroke-linecap="butt" stroke-opacity="0.0" clip-path="url(#id_0)" d="M155.0 135.0L147.0 135.0L147.0 139.0C147.0 140.10457 147.89543 141.0 149.0 141.0L153.0 141.0C154.10457 141.0 155.0 140.10457 155.0 139.0Z" fill-rule="nonzero"/><path fill="#ea4335" clip-path="url(#id_0)" d="M155.0 135.0L147.0 135.0L147.0 139.0C147.0 140.10457 147.89543 141.0 149.0 141.0L153.0 141.0C154.10457 141.0 155.0 140.10457 155.0 139.0Z" fill-rule="nonzero"/><path stroke="#000000" stroke-width="2.0" stroke-linecap="butt" stroke-opacity="0.0" clip-path="url(#id_0)" d="M167.0 135.0L159.0 135.0L159.0 139.0C159.0 140.10457 159.89543 141.0 161.0 141.0L165.0 141.0C166.10457 141.0 167.0 140.10457 167.0 139.0Z" fill-rule="nonzero"/><path fill="#ea4335" clip-path="url(#id_0)" d="M167.0 135.0L159.0 135.0L159.0 139.0C159.0 140.10457 159.89543 141.0 161.0 141.0L165.0 141.0C166.10457 141.0 167.0 140.10457 167.0 139.0Z" fill-rule="nonzero"/><path stroke="#000000" stroke-width="2.0" stroke-linecap="butt" stroke-opacity="0.0" clip-path="url(#id_0)" d="M178.0 135.0L170.0 135.0L170.0 135.0L178.0 135.0Z" fill-rule="nonzero"/><path fill="#ea4335" clip-path="url(#id_0)" d="M178.0 135.0L170.0 135.0L170.0 135.0L178.0 135.0Z" fill-rule="nonzero"/><path stroke="#000000" stroke-width="2.0" stroke-linecap="butt" stroke-opacity="0.0" clip-path="url(#id_0)" d="M190.0 135.0L182.0 135.0L182.0 151.0C182.0 152.10457 182.89543 153.0 184.0 153.0L188.0 153.0C189.10457 153.0 190.0 152.10457 190.0 151.0Z" fill-rule="nonzero"/><path fill="#ea4335" clip-path="url(#id_0)" d="M190.0 135.0L182.0 135.0L182.0 151.0C182.0 152.10457 182.89543 153.0 184.0 153.0L188.0 153.0C189.10457 153.0 190.0 152.10457 190.0 151.0Z" fill-rule="nonzero"/><path stroke="#000000" stroke-width="2.0" stroke-linecap="butt" stroke-opacity="0.0" clip-path="url(#id_0)" d="M202.0 129.0L194.0 129.0L194.0 129.0L202.0 129.0Z" fill-rule="nonzero"/><path fill="#ea4335" clip-path="url(#id_0)" d="M202.0 129.0L194.0 129.0L194.0 129.0L202.0 129.0Z" fill-rule="nonzero"/><path stroke="#000000" stroke-width="2.0" stroke-linecap="butt" stroke-opacity="0.0" clip-path="url(#id_0)" d="M214.0 135.0L206.0 135.0L206.0 194.0C206.0 195.10457 206.89543 196.0 208.0 196.0L212.0 196.0C213.10457 196.0 214.0 195.10457 214.0 194.0Z" fill-rule="nonzero"/><path fill="#ea4335" clip-path="url(#id_0)" d="M214.0 135.0L206.0 135.0L206.0 194.0C206.0 195.10457 206.89543 196.0 208.0 196.0L212.0 196.0C213.10457 196.0 214.0 195.10457 214.0 194.0Z" fill-rule="nonzero"/><path stroke="#000000" stroke-width="2.0" stroke-linecap="butt" stroke-opacity="0.0" clip-path="url(#id_0)" d="M226.0 135.0L218.0 135.0L218.0 139.0C218.0 140.10457 218.89543 141.0 220.0 141.0L224.0 141.0C225.10457 141.0 226.0 140.10457 226.0 139.0Z" fill-rule="nonzero"/><path fill="#ea4335" clip-path="url(#id_0)" d="M226.0 135.0L218.0 135.0L218.0 139.0C218.0 140.10457 218.89543 141.0 220.0 141.0L224.0 141.0C225.10457 141.0 226.0 140.10457 226.0 139.0Z" fill-rule="nonzero"/><path stroke="#000000" stroke-width="2.0" stroke-linecap="butt" stroke-opacity="0.0" clip-path="url(#id_0)" d="M238.0 135.0L230.0 135.0L230.0 157.0C230.0 158.10457 230.89543 159.0 232.0 159.0L236.0 159.0C237.10457 159.0 238.0 158.10457 238.0 157.0Z" fill-rule="nonzero"/><path fill="#ea4335" clip-path="url(#id_0)" d="M238.0 135.0L230.0 135.0L230.0 157.0C230.0 158.10457 230.89543 159.0 232.0 159.0L236.0 159.0C237.10457 159.0 238.0 158.10457 238.0 157.0Z" fill-rule="nonzero"/><path stroke="#000000" stroke-width="2.0" stroke-linecap="butt" stroke-opacity="0.0" clip-path="url(#id_0)" d="M250.0 135.0L242.0 135.0L242.0 139.0C242.0 140.10457 242.89543 141.0 244.0 141.0L248.0 141.0C249.10457 141.0 250.0 140.10457 250.0 139.0Z" fill-rule="nonzero"/><path fill="#ea4335" clip-path="url(#id_0)" d="M250.0 135.0L242.0 135.0L242.0 139.0C242.0 140.10457 242.89543 141.0 244.0 141.0L248.0 141.0C249.10457 141.0 250.0 140.10457 250.0 139.0Z" fill-rule="nonzero"/><path stroke="#000000" stroke-width="2.0" stroke-linecap="butt" stroke-opacity="0.0" clip-path="url(#id_0)" d="M262.0 135.0L254.0 135.0L254.0 145.0C254.0 146.10457 254.89543 147.0 256.0 147.0L260.0 147.0C261.10458 147.0 262.0 146.10457 262.0 145.0Z" fill-rule="nonzero"/><path fill="#ea4335" clip-path="url(#id_0)" d="M262.0 135.0L254.0 135.0L254.0 145.0C254.0 146.10457 254.89543 147.0 256.0 147.0L260.0 147.0C261.10458 147.0 262.0 146.10457 262.0 145.0Z" fill-rule="nonzero"/><path stroke="#000000" stroke-width="2.0" stroke-linecap="butt" stroke-opacity="0.0" clip-path="url(#id_0)" d="M274.0 129.0L266.0 129.0L266.0 129.0L274.0 129.0Z" fill-rule="nonzero"/><path fill="#ea4335" clip-path="url(#id_0)" d="M274.0 129.0L266.0 129.0L266.0 129.0L274.0 129.0Z" fill-rule="nonzero"/><path stroke="#000000" stroke-width="2.0" stroke-linecap="butt" stroke-opacity="0.0" clip-path="url(#id_0)" d="M286.0 135.0L278.0 135.0L278.0 135.0L286.0 135.0Z" fill-rule="nonzero"/><path fill="#ea4335" clip-path="url(#id_0)" d="M286.0 135.0L278.0 135.0L278.0 135.0L286.0 135.0Z" fill-rule="nonzero"/><path stroke="#000000" stroke-width="2.0" stroke-linecap="butt" stroke-opacity="0.0" clip-path="url(#id_0)" d="M298.0 117.0L290.0 117.0L290.0 117.0L298.0 117.0Z" fill-rule="nonzero"/><path fill="#ea4335" clip-path="url(#id_0)" d="M298.0 117.0L290.0 117.0L290.0 117.0L298.0 117.0Z" fill-rule="nonzero"/><path stroke="#000000" stroke-width="2.0" stroke-linecap="butt" stroke-opacity="0.0" clip-path="url(#id_0)" d="M310.0 135.0L302.0 135.0L302.0 206.0C302.0 207.10457 302.89542 208.0 304.0 208.0L308.0 208.0C309.10458 208.0 310.0 207.10457 310.0 206.0Z" fill-rule="nonzero"/><path fill="#ea4335" clip-path="url(#id_0)" d="M310.0 135.0L302.0 135.0L302.0 206.0C302.0 207.10457 302.89542 208.0 304.0 208.0L308.0 208.0C309.10458 208.0 310.0 207.10457 310.0 206.0Z" fill-rule="nonzero"/><path stroke="#000000" stroke-width="2.0" stroke-linecap="butt" stroke-opacity="0.0" clip-path="url(#id_0)" d="M321.0 135.0L313.0 135.0L313.0 135.0L321.0 135.0Z" fill-rule="nonzero"/><path fill="#ea4335" clip-path="url(#id_0)" d="M321.0 135.0L313.0 135.0L313.0 135.0L321.0 135.0Z" fill-rule="nonzero"/><path stroke="#000000" stroke-width="2.0" stroke-linecap="butt" stroke-opacity="0.0" clip-path="url(#id_0)" d="M333.0 123.0L325.0 123.0L325.0 123.0L333.0 123.0Z" fill-rule="nonzero"/><path fill="#ea4335" clip-path="url(#id_0)" d="M333.0 123.0L325.0 123.0L325.0 123.0L333.0 123.0Z" fill-rule="nonzero"/><path stroke="#000000" stroke-width="2.0" stroke-linecap="butt" stroke-opacity="0.0" clip-path="url(#id_0)" d="M345.0 135.0L337.0 135.0L337.0 151.0C337.0 152.10457 337.89542 153.0 339.0 153.0L343.0 153.0C344.10458 153.0 345.0 152.10457 345.0 151.0Z" fill-rule="nonzero"/><path fill="#ea4335" clip-path="url(#id_0)" d="M345.0 135.0L337.0 135.0L337.0 151.0C337.0 152.10457 337.89542 153.0 339.0 153.0L343.0 153.0C344.10458 153.0 345.0 152.10457 345.0 151.0Z" fill-rule="nonzero"/><path stroke="#000000" stroke-width="2.0" stroke-linecap="butt" stroke-opacity="0.0" clip-path="url(#id_0)" d="M357.0 123.0L349.0 123.0L349.0 123.0L357.0 123.0Z" fill-rule="nonzero"/><path fill="#ea4335" clip-path="url(#id_0)" d="M357.0 123.0L349.0 123.0L349.0 123.0L357.0 123.0Z" fill-rule="nonzero"/><path stroke="#000000" stroke-width="2.0" stroke-linecap="butt" stroke-opacity="0.0" clip-path="url(#id_0)" d="M369.0 123.0L361.0 123.0L361.0 123.0L369.0 123.0Z" fill-rule="nonzero"/><path fill="#ea4335" clip-path="url(#id_0)" d="M369.0 123.0L361.0 123.0L361.0 123.0L369.0 123.0Z" fill-rule="nonzero"/><path stroke="#000000" stroke-width="2.0" stroke-linecap="butt" stroke-opacity="0.0" clip-path="url(#id_0)" d="M381.0 135.0L373.0 135.0L373.0 145.0C373.0 146.10457 373.89542 147.0 375.0 147.0L379.0 147.0C380.10458 147.0 381.0 146.10457 381.0 145.0Z" fill-rule="nonzero"/><path fill="#ea4335" clip-path="url(#id_0)" d="M381.0 135.0L373.0 135.0L373.0 145.0C373.0 146.10457 373.89542 147.0 375.0 147.0L379.0 147.0C380.10458 147.0 381.0 146.10457 381.0 145.0Z" fill-rule="nonzero"/><path stroke="#000000" stroke-width="2.0" stroke-linecap="butt" stroke-opacity="0.0" clip-path="url(#id_0)" d="M393.0 129.0L385.0 129.0L385.0 129.0L393.0 129.0Z" fill-rule="nonzero"/><path fill="#ea4335" clip-path="url(#id_0)" d="M393.0 129.0L385.0 129.0L385.0 129.0L393.0 129.0Z" fill-rule="nonzero"/><path stroke="#000000" stroke-width="2.0" stroke-linecap="butt" stroke-opacity="0.0" clip-path="url(#id_0)" d="M405.0 135.0L397.0 135.0L397.0 200.0C397.0 201.10457 397.89542 202.0 399.0 202.0L403.0 202.0C404.10458 202.0 405.0 201.10457 405.0 200.0Z" fill-rule="nonzero"/><path fill="#ea4335" clip-path="url(#id_0)" d="M405.0 135.0L397.0 135.0L397.0 200.0C397.0 201.10457 397.89542 202.0 399.0 202.0L403.0 202.0C404.10458 202.0 405.0 201.10457 405.0 200.0Z" fill-rule="nonzero"/><path stroke="#000000" stroke-width="2.0" stroke-linecap="butt" stroke-opacity="0.0" clip-path="url(#id_0)" d="M417.0 93.0L409.0 93.0L409.0 93.0L417.0 93.0Z" fill-rule="nonzero"/><path fill="#ea4335" clip-path="url(#id_0)" d="M417.0 93.0L409.0 93.0L409.0 93.0L417.0 93.0Z" fill-rule="nonzero"/><path stroke="#000000" stroke-width="2.0" stroke-linecap="butt" stroke-opacity="0.0" clip-path="url(#id_0)" d="M429.0 117.0L421.0 117.0L421.0 117.0L429.0 117.0Z" fill-rule="nonzero"/><path fill="#ea4335" clip-path="url(#id_0)" d="M429.0 117.0L421.0 117.0L421.0 117.0L429.0 117.0Z" fill-rule="nonzero"/><path fill="#000000" d="M12.625 227.17188L12.625 226.10938L15.875 226.10938L15.875 227.17188L12.625 227.17188ZM20.71875 229.75L19.671875 229.75L19.671875 223.03125Q19.28125 223.39062 18.65625 223.76562Q18.046875 224.125 17.5625 224.29688L17.5625 223.28125Q18.4375 222.85938 19.09375 222.28125Q19.765625 221.6875 20.046875 221.125L20.71875 221.125L20.71875 229.75ZM23.75 227.5L24.859375 227.40625Q24.984375 228.21875 25.421875 228.625Q25.875 229.03125 26.515625 229.03125Q27.265625 229.03125 27.796875 228.45312Q28.328125 227.875 28.328125 226.9375Q28.328125 226.03125 27.8125 225.51562Q27.3125 224.98438 26.484375 224.98438Q25.984375 224.98438 25.5625 225.21875Q25.15625 225.45312 24.921875 225.8125L23.9375 225.6875L24.765625 221.28125L29.046875 221.28125L29.046875 222.28125L25.609375 222.28125L25.15625 224.59375Q25.921875 224.04688 26.765625 224.04688Q27.890625 224.04688 28.65625 224.82812Q29.4375 225.60938 29.4375 226.84375Q29.4375 228.0 28.765625 228.85938Q27.9375 229.89062 26.515625 229.89062Q25.34375 229.89062 24.59375 229.23438Q23.859375 228.57812 23.75 227.5ZM30.953125 223.21875Q30.953125 222.29688 31.40625 221.65625Q31.875 221.01562 32.75 221.01562Q33.5625 221.01562 34.09375 221.59375Q34.625 222.17188 34.625 223.28125Q34.625 224.375 34.078125 224.96875Q33.546875 225.54688 32.765625 225.54688Q31.984375 225.54688 31.46875 224.96875Q30.953125 224.39062 30.953125 223.21875ZM32.78125 221.73438Q32.390625 221.73438 32.125 222.07812Q31.875 222.42188 31.875 223.32812Q31.875 224.15625 32.125 224.5Q32.390625 224.82812 32.78125 224.82812Q33.1875 224.82812 33.4375 224.48438Q33.703125 224.14062 33.703125 223.25Q33.703125 222.40625 33.4375 222.07812Q33.171875 221.73438 32.78125 221.73438ZM32.78125 230.0625L37.484375 221.01562L38.34375 221.01562L33.65625 230.0625L32.78125 230.0625ZM36.5 227.73438Q36.5 226.8125 36.953125 226.17188Q37.421875 225.53125 38.3125 225.53125Q39.125 225.53125 39.65625 226.10938Q40.1875 226.67188 40.1875 227.79688Q40.1875 228.89062 39.640625 229.48438Q39.109375 230.0625 38.3125 230.0625Q37.546875 230.0625 37.015625 229.48438Q36.5 228.90625 36.5 227.73438ZM38.34375 226.25Q37.9375 226.25 37.671875 226.59375Q37.421875 226.9375 37.421875 227.84375Q37.421875 228.65625 37.6875 229.0Q37.953125 229.34375 38.34375 229.34375Q38.734375 229.34375 39.0 229.0Q39.265625 228.65625 39.265625 227.75Q39.265625 226.92188 39.0 226.59375Q38.734375 226.25 38.34375 226.25Z" fill-rule="nonzero"/><path fill="#000000" d="M12.625 197.0052L12.625 195.9427L15.875 195.9427L15.875 197.0052L12.625 197.0052ZM20.71875 199.58333L19.671875 199.58333L19.671875 192.86458Q19.28125 193.22395 18.65625 193.59895Q18.046875 193.95833 17.5625 194.1302L17.5625 193.11458Q18.4375 192.6927 19.09375 192.11458Q19.765625 191.52083 20.046875 190.95833L20.71875 190.95833L20.71875 199.58333ZM23.75 195.34895Q23.75 193.8177 24.0625 192.89583Q24.375 191.95833 24.984375 191.45833Q25.609375 190.95833 26.546875 190.95833Q27.234375 190.95833 27.75 191.23958Q28.28125 191.52083 28.625 192.05208Q28.96875 192.5677 29.15625 193.3177Q29.34375 194.0677 29.34375 195.34895Q29.34375 196.86458 29.03125 197.78645Q28.734375 198.70833 28.109375 199.22395Q27.5 199.72395 26.546875 199.72395Q25.3125 199.72395 24.59375 198.83333Q23.75 197.77083 23.75 195.34895ZM24.828125 195.34895Q24.828125 197.45833 25.328125 198.16145Q25.828125 198.86458 26.546875 198.86458Q27.28125 198.86458 27.765625 198.16145Q28.265625 197.45833 28.265625 195.34895Q28.265625 193.22395 27.765625 192.53645Q27.28125 191.83333 26.53125 191.83333Q25.8125 191.83333 25.375 192.4427Q24.828125 193.22395 24.828125 195.34895ZM30.953125 193.05208Q30.953125 192.1302 31.40625 191.48958Q31.875 190.84895 32.75 190.84895Q33.5625 190.84895 34.09375 191.42708Q34.625 192.0052 34.625 193.11458Q34.625 194.20833 34.078125 194.80208Q33.546875 195.3802 32.765625 195.3802Q31.984375 195.3802 31.46875 194.80208Q30.953125 194.22395 30.953125 193.05208ZM32.78125 191.5677Q32.390625 191.5677 32.125 191.91145Q31.875 192.2552 31.875 193.16145Q31.875 193.98958 32.125 194.33333Q32.390625 194.66145 32.78125 194.66145Q33.1875 194.66145 33.4375 194.3177Q33.703125 193.97395 33.703125 193.08333Q33.703125 192.23958 33.4375 191.91145Q33.171875 191.5677 32.78125 191.5677ZM32.78125 199.89583L37.484375 190.84895L38.34375 190.84895L33.65625 199.89583L32.78125 199.89583ZM36.5 197.5677Q36.5 196.64583 36.953125 196.0052Q37.421875 195.36458 38.3125 195.36458Q39.125 195.36458 39.65625 195.9427Q40.1875 196.5052 40.1875 197.6302Q40.1875 198.72395 39.640625 199.3177Q39.109375 199.89583 38.3125 199.89583Q37.546875 199.89583 37.015625 199.3177Q36.5 198.73958 36.5 197.5677ZM38.34375 196.08333Q37.9375 196.08333 37.671875 196.42708Q37.421875 196.77083 37.421875 197.67708Q37.421875 198.48958 37.6875 198.83333Q37.953125 199.17708 38.34375 199.17708Q38.734375 199.17708 39.0 198.83333Q39.265625 198.48958 39.265625 197.58333Q39.265625 196.7552 39.0 196.42708Q38.734375 196.08333 38.34375 196.08333Z" fill-rule="nonzero"/><path fill="#000000" d="M19.625 166.83855L19.625 165.77605L22.875 165.77605L22.875 166.83855L19.625 166.83855ZM23.75 167.16667L24.859375 167.07292Q24.984375 167.88542 25.421875 168.29167Q25.875 168.69792 26.515625 168.69792Q27.265625 168.69792 27.796875 168.1198Q28.328125 167.54167 28.328125 166.60417Q28.328125 165.69792 27.8125 165.1823Q27.3125 164.65105 26.484375 164.65105Q25.984375 164.65105 25.5625 164.88542Q25.15625 165.1198 24.921875 165.47917L23.9375 165.35417L24.765625 160.94792L29.046875 160.94792L29.046875 161.94792L25.609375 161.94792L25.15625 164.26042Q25.921875 163.71355 26.765625 163.71355Q27.890625 163.71355 28.65625 164.4948Q29.4375 165.27605 29.4375 166.51042Q29.4375 167.66667 28.765625 168.52605Q27.9375 169.5573 26.515625 169.5573Q25.34375 169.5573 24.59375 168.90105Q23.859375 168.2448 23.75 167.16667ZM30.953125 162.88542Q30.953125 161.96355 31.40625 161.32292Q31.875 160.6823 32.75 160.6823Q33.5625 160.6823 34.09375 161.26042Q34.625 161.83855 34.625 162.94792Q34.625 164.04167 34.078125 164.63542Q33.546875 165.21355 32.765625 165.21355Q31.984375 165.21355 31.46875 164.63542Q30.953125 164.0573 30.953125 162.88542ZM32.78125 161.40105Q32.390625 161.40105 32.125 161.7448Q31.875 162.08855 31.875 162.9948Q31.875 163.82292 32.125 164.16667Q32.390625 164.4948 32.78125 164.4948Q33.1875 164.4948 33.4375 164.15105Q33.703125 163.8073 33.703125 162.91667Q33.703125 162.07292 33.4375 161.7448Q33.171875 161.40105 32.78125 161.40105ZM32.78125 169.72917L37.484375 160.6823L38.34375 160.6823L33.65625 169.72917L32.78125 169.72917ZM36.5 167.40105Q36.5 166.47917 36.953125 165.83855Q37.421875 165.19792 38.3125 165.19792Q39.125 165.19792 39.65625 165.77605Q40.1875 166.33855 40.1875 167.46355Q40.1875 168.5573 39.640625 169.15105Q39.109375 169.72917 38.3125 169.72917Q37.546875 169.72917 37.015625 169.15105Q36.5 168.57292 36.5 167.40105ZM38.34375 165.91667Q37.9375 165.91667 37.671875 166.26042Q37.421875 166.60417 37.421875 167.51042Q37.421875 168.32292 37.6875 168.66667Q37.953125 169.01042 38.34375 169.01042Q38.734375 169.01042 39.0 168.66667Q39.265625 168.32292 39.265625 167.41667Q39.265625 166.58855 39.0 166.26042Q38.734375 165.91667 38.34375 165.91667Z" fill-rule="nonzero"/><path fill="#000000" d="M23.75 135.01562Q23.75 133.48438 24.0625 132.5625Q24.375 131.625 24.984375 131.125Q25.609375 130.625 26.546875 130.625Q27.234375 130.625 27.75 130.90625Q28.28125 131.1875 28.625 131.71875Q28.96875 132.23438 29.15625 132.98438Q29.34375 133.73438 29.34375 135.01562Q29.34375 136.53125 29.03125 137.45312Q28.734375 138.375 28.109375 138.89062Q27.5 139.39062 26.546875 139.39062Q25.3125 139.39062 24.59375 138.5Q23.75 137.4375 23.75 135.01562ZM24.828125 135.01562Q24.828125 137.125 25.328125 137.82812Q25.828125 138.53125 26.546875 138.53125Q27.28125 138.53125 27.765625 137.82812Q28.265625 137.125 28.265625 135.01562Q28.265625 132.89062 27.765625 132.20312Q27.28125 131.5 26.53125 131.5Q25.8125 131.5 25.375 132.10938Q24.828125 132.89062 24.828125 135.01562ZM30.953125 132.71875Q30.953125 131.79688 31.40625 131.15625Q31.875 130.51562 32.75 130.51562Q33.5625 130.51562 34.09375 131.09375Q34.625 131.67188 34.625 132.78125Q34.625 133.875 34.078125 134.46875Q33.546875 135.04688 32.765625 135.04688Q31.984375 135.04688 31.46875 134.46875Q30.953125 133.89062 30.953125 132.71875ZM32.78125 131.23438Q32.390625 131.23438 32.125 131.57812Q31.875 131.92188 31.875 132.82812Q31.875 133.65625 32.125 134.0Q32.390625 134.32812 32.78125 134.32812Q33.1875 134.32812 33.4375 133.98438Q33.703125 133.64062 33.703125 132.75Q33.703125 131.90625 33.4375 131.57812Q33.171875 131.23438 32.78125 131.23438ZM32.78125 139.5625L37.484375 130.51562L38.34375 130.51562L33.65625 139.5625L32.78125 139.5625ZM36.5 137.23438Q36.5 136.3125 36.953125 135.67188Q37.421875 135.03125 38.3125 135.03125Q39.125 135.03125 39.65625 135.60938Q40.1875 136.17188 40.1875 137.29688Q40.1875 138.39062 39.640625 138.98438Q39.109375 139.5625 38.3125 139.5625Q37.546875 139.5625 37.015625 138.98438Q36.5 138.40625 36.5 137.23438ZM38.34375 135.75Q37.9375 135.75 37.671875 136.09375Q37.421875 136.4375 37.421875 137.34375Q37.421875 138.15625 37.6875 138.5Q37.953125 138.84375 38.34375 138.84375Q38.734375 138.84375 39.0 138.5Q39.265625 138.15625 39.265625 137.25Q39.265625 136.42188 39.0 136.09375Q38.734375 135.75 38.34375 135.75Z" fill-rule="nonzero"/><path fill="#000000" d="M23.75 106.833336L24.859375 106.739586Q24.984375 107.552086 25.421875 107.958336Q25.875 108.364586 26.515625 108.364586Q27.265625 108.364586 27.796875 107.78646Q28.328125 107.208336 28.328125 106.270836Q28.328125 105.364586 27.8125 104.84896Q27.3125 104.31771 26.484375 104.31771Q25.984375 104.31771 25.5625 104.552086Q25.15625 104.78646 24.921875 105.145836L23.9375 105.020836L24.765625 100.614586L29.046875 100.614586L29.046875 101.614586L25.609375 101.614586L25.15625 103.927086Q25.921875 103.38021 26.765625 103.38021Q27.890625 103.38021 28.65625 104.16146Q29.4375 104.94271 29.4375 106.177086Q29.4375 107.333336 28.765625 108.19271Q27.9375 109.22396 26.515625 109.22396Q25.34375 109.22396 24.59375 108.56771Q23.859375 107.91146 23.75 106.833336ZM30.953125 102.552086Q30.953125 101.63021 31.40625 100.989586Q31.875 100.34896 32.75 100.34896Q33.5625 100.34896 34.09375 100.927086Q34.625 101.50521 34.625 102.614586Q34.625 103.708336 34.078125 104.302086Q33.546875 104.88021 32.765625 104.88021Q31.984375 104.88021 31.46875 104.302086Q30.953125 103.72396 30.953125 102.552086ZM32.78125 101.06771Q32.390625 101.06771 32.125 101.41146Q31.875 101.75521 31.875 102.66146Q31.875 103.489586 32.125 103.833336Q32.390625 104.16146 32.78125 104.16146Q33.1875 104.16146 33.4375 103.81771Q33.703125 103.47396 33.703125 102.583336Q33.703125 101.739586 33.4375 101.41146Q33.171875 101.06771 32.78125 101.06771ZM32.78125 109.395836L37.484375 100.34896L38.34375 100.34896L33.65625 109.395836L32.78125 109.395836ZM36.5 107.06771Q36.5 106.145836 36.953125 105.50521Q37.421875 104.864586 38.3125 104.864586Q39.125 104.864586 39.65625 105.44271Q40.1875 106.00521 40.1875 107.13021Q40.1875 108.22396 39.640625 108.81771Q39.109375 109.395836 38.3125 109.395836Q37.546875 109.395836 37.015625 108.81771Q36.5 108.239586 36.5 107.06771ZM38.34375 105.583336Q37.9375 105.583336 37.671875 105.927086Q37.421875 106.270836 37.421875 107.177086Q37.421875 107.989586 37.6875 108.333336Q37.953125 108.677086 38.34375 108.677086Q38.734375 108.677086 39.0 108.333336Q39.265625 107.989586 39.265625 107.083336Q39.265625 106.25521 39.0 105.927086Q38.734375 105.583336 38.34375 105.583336Z" fill-rule="nonzero"/><path fill="#000000" d="M20.71875 78.916664L19.671875 78.916664L19.671875 72.197914Q19.28125 72.55729 18.65625 72.93229Q18.046875 73.291664 17.5625 73.46354L17.5625 72.447914Q18.4375 72.02604 19.09375 71.447914Q19.765625 70.854164 20.046875 70.291664L20.71875 70.291664L20.71875 78.916664ZM23.75 74.68229Q23.75 73.15104 24.0625 72.229164Q24.375 71.291664 24.984375 70.791664Q25.609375 70.291664 26.546875 70.291664Q27.234375 70.291664 27.75 70.572914Q28.28125 70.854164 28.625 71.385414Q28.96875 71.90104 29.15625 72.65104Q29.34375 73.40104 29.34375 74.68229Q29.34375 76.197914 29.03125 77.11979Q28.734375 78.041664 28.109375 78.55729Q27.5 79.05729 26.546875 79.05729Q25.3125 79.05729 24.59375 78.166664Q23.75 77.104164 23.75 74.68229ZM24.828125 74.68229Q24.828125 76.791664 25.328125 77.49479Q25.828125 78.197914 26.546875 78.197914Q27.28125 78.197914 27.765625 77.49479Q28.265625 76.791664 28.265625 74.68229Q28.265625 72.55729 27.765625 71.86979Q27.28125 71.166664 26.53125 71.166664Q25.8125 71.166664 25.375 71.77604Q24.828125 72.55729 24.828125 74.68229ZM30.953125 72.385414Q30.953125 71.46354 31.40625 70.822914Q31.875 70.18229 32.75 70.18229Q33.5625 70.18229 34.09375 70.760414Q34.625 71.33854 34.625 72.447914Q34.625 73.541664 34.078125 74.135414Q33.546875 74.71354 32.765625 74.71354Q31.984375 74.71354 31.46875 74.135414Q30.953125 73.55729 30.953125 72.385414ZM32.78125 70.90104Q32.390625 70.90104 32.125 71.24479Q31.875 71.58854 31.875 72.49479Q31.875 73.322914 32.125 73.666664Q32.390625 73.99479 32.78125 73.99479Q33.1875 73.99479 33.4375 73.65104Q33.703125 73.30729 33.703125 72.416664Q33.703125 71.572914 33.4375 71.24479Q33.171875 70.90104 32.78125 70.90104ZM32.78125 79.229164L37.484375 70.18229L38.34375 70.18229L33.65625 79.229164L32.78125 79.229164ZM36.5 76.90104Q36.5 75.979164 36.953125 75.33854Q37.421875 74.697914 38.3125 74.697914Q39.125 74.697914 39.65625 75.27604Q40.1875 75.83854 40.1875 76.96354Q40.1875 78.05729 39.640625 78.65104Q39.109375 79.229164 38.3125 79.229164Q37.546875 79.229164 37.015625 78.65104Q36.5 78.072914 36.5 76.90104ZM38.34375 75.416664Q37.9375 75.416664 37.671875 75.760414Q37.421875 76.104164 37.421875 77.010414Q37.421875 77.822914 37.6875 78.166664Q37.953125 78.510414 38.34375 78.510414Q38.734375 78.510414 39.0 78.166664Q39.265625 77.822914 39.265625 76.916664Q39.265625 76.08854 39.0 75.760414Q38.734375 75.416664 38.34375 75.416664Z" fill-rule="nonzero"/><path fill="#999999" d="M12.234375 56.75L16.078125 46.734375L17.5 46.734375L21.609375 56.75L20.09375 56.75L18.921875 53.71875L14.734375 53.71875L13.640625 56.75L12.234375 56.75ZM15.125 52.640625L18.515625 52.640625L17.46875 49.859375Q17.0 48.59375 16.765625 47.78125Q16.578125 48.75 16.21875 49.6875L15.125 52.640625ZM26.890625 56.75L26.890625 55.828125Q26.1875 56.921875 24.859375 56.921875Q23.984375 56.921875 23.25 56.4375Q22.53125 55.953125 22.125 55.09375Q21.734375 54.234375 21.734375 53.125Q21.734375 52.046875 22.09375 51.15625Q22.453125 50.265625 23.171875 49.796875Q23.90625 49.328125 24.796875 49.328125Q25.453125 49.328125 25.96875 49.609375Q26.484375 49.875 26.796875 50.328125L26.796875 46.734375L28.03125 46.734375L28.03125 56.75L26.890625 56.75ZM23.0 53.125Q23.0 54.515625 23.578125 55.21875Q24.171875 55.90625 24.96875 55.90625Q25.78125 55.90625 26.34375 55.25Q26.90625 54.578125 26.90625 53.234375Q26.90625 51.734375 26.328125 51.046875Q25.75 50.34375 24.921875 50.34375Q24.09375 50.34375 23.546875 51.015625Q23.0 51.6875 23.0 53.125ZM34.890625 56.75L34.890625 55.828125Q34.1875 56.921875 32.859375 56.921875Q31.984375 56.921875 31.25 56.4375Q30.53125 55.953125 30.125 55.09375Q29.734375 54.234375 29.734375 53.125Q29.734375 52.046875 30.09375 51.15625Q30.453125 50.265625 31.171875 49.796875Q31.90625 49.328125 32.796875 49.328125Q33.453125 49.328125 33.96875 49.609375Q34.484375 49.875 34.796875 50.328125L34.796875 46.734375L36.03125 46.734375L36.03125 56.75L34.890625 56.75ZM31.0 53.125Q31.0 54.515625 31.578125 55.21875Q32.171875 55.90625 32.96875 55.90625Q33.78125 55.90625 34.34375 55.25Q34.90625 54.578125 34.90625 53.234375Q34.90625 51.734375 34.328125 51.046875Q33.75 50.34375 32.921875 50.34375Q32.09375 50.34375 31.546875 51.015625Q31.0 51.6875 31.0 53.125ZM38.1875 48.140625L38.1875 46.734375L39.40625 46.734375L39.40625 48.140625L38.1875 48.140625ZM38.1875 56.75L38.1875 49.484375L39.40625 49.484375L39.40625 56.75L38.1875 56.75ZM43.859375 55.65625L44.03125 56.734375Q43.515625 56.84375 43.109375 56.84375Q42.4375 56.84375 42.0625 56.640625Q41.703125 56.421875 41.546875 56.078125Q41.40625 55.734375 41.40625 54.625L41.40625 50.453125L40.5 50.453125L40.5 49.484375L41.40625 49.484375L41.40625 47.6875L42.625 46.953125L42.625 49.484375L43.859375 49.484375L43.859375 50.453125L42.625 50.453125L42.625 54.6875Q42.625 55.21875 42.6875 55.375Q42.75 55.515625 42.890625 55.609375Q43.046875 55.703125 43.3125 55.703125Q43.53125 55.703125 43.859375 55.65625ZM45.1875 48.140625L45.1875 46.734375L46.40625 46.734375L46.40625 48.140625L45.1875 48.140625ZM45.1875 56.75L45.1875 49.484375L46.40625 49.484375L46.40625 56.75L45.1875 56.75ZM47.71875 53.125Q47.71875 51.109375 48.84375 50.125Q49.765625 49.328125 51.125 49.328125Q52.609375 49.328125 53.5625 50.3125Q54.515625 51.28125 54.515625 53.015625Q54.515625 54.421875 54.09375 55.234375Q53.671875 56.03125 52.859375 56.484375Q52.0625 56.921875 51.125 56.921875Q49.59375 56.921875 48.65625 55.9375Q47.71875 54.953125 47.71875 53.125ZM48.984375 53.125Q48.984375 54.515625 49.59375 55.21875Q50.203125 55.90625 51.125 55.90625Q52.03125 55.90625 52.640625 55.203125Q53.25 54.5 53.25 53.078125Q53.25 51.734375 52.640625 51.046875Q52.03125 50.34375 51.125 50.34375Q50.203125 50.34375 49.59375 51.03125Q48.984375 51.71875 48.984375 53.125ZM56.171875 56.75L56.171875 49.484375L57.28125 49.484375L57.28125 50.515625Q58.078125 49.328125 59.59375 49.328125Q60.25 49.328125 60.796875 49.5625Q61.34375 49.796875 61.609375 50.1875Q61.890625 50.5625 62.0 51.09375Q62.078125 51.4375 62.078125 52.28125L62.078125 56.75L60.84375 56.75L60.84375 52.328125Q60.84375 51.578125 60.703125 51.21875Q60.5625 50.84375 60.1875 50.625Q59.828125 50.390625 59.328125 50.390625Q58.546875 50.390625 57.96875 50.890625Q57.40625 51.390625 57.40625 52.78125L57.40625 56.75L56.171875 56.75ZM63.6875 53.734375L63.6875 52.5L67.46875 52.5L67.46875 53.734375L63.6875 53.734375ZM70.3125 56.75L69.171875 56.75L69.171875 46.734375L70.390625 46.734375L70.390625 50.296875Q71.171875 49.328125 72.390625 49.328125Q73.0625 49.328125 73.65625 49.59375Q74.25 49.859375 74.640625 50.359375Q75.03125 50.84375 75.25 51.53125Q75.46875 52.21875 75.46875 53.015625Q75.46875 54.875 74.53125 55.90625Q73.609375 56.921875 72.328125 56.921875Q71.046875 56.921875 70.3125 55.84375L70.3125 56.75ZM70.296875 53.0625Q70.296875 54.375 70.65625 54.953125Q71.234375 55.90625 72.21875 55.90625Q73.03125 55.90625 73.609375 55.203125Q74.203125 54.5 74.203125 53.109375Q74.203125 51.6875 73.640625 51.015625Q73.078125 50.34375 72.28125 50.34375Q71.46875 50.34375 70.875 51.046875Q70.296875 51.734375 70.296875 53.0625ZM81.90625 55.859375Q81.234375 56.4375 80.59375 56.6875Q79.96875 56.921875 79.234375 56.921875Q78.046875 56.921875 77.390625 56.34375Q76.75 55.75 76.75 54.828125Q76.75 54.296875 76.984375 53.859375Q77.234375 53.421875 77.625 53.15625Q78.03125 52.890625 78.515625 52.75Q78.875 52.65625 79.609375 52.5625Q81.109375 52.390625 81.8125 52.140625Q81.8125 51.890625 81.8125 51.828125Q81.8125 51.0625 81.46875 50.765625Q81.0 50.34375 80.0625 50.34375Q79.203125 50.34375 78.78125 50.65625Q78.375 50.953125 78.171875 51.71875L76.96875 51.5625Q77.125 50.78125 77.5 50.3125Q77.890625 49.84375 78.59375 49.59375Q79.3125 49.328125 80.25 49.328125Q81.171875 49.328125 81.75 49.546875Q82.328125 49.765625 82.59375 50.09375Q82.875 50.421875 82.984375 50.9375Q83.046875 51.25 83.046875 52.0625L83.046875 53.703125Q83.046875 55.421875 83.125 55.875Q83.203125 56.328125 83.4375 56.75L82.15625 56.75Q81.96875 56.359375 81.90625 55.859375ZM81.8125 53.109375Q81.140625 53.375 79.796875 53.578125Q79.046875 53.6875 78.71875 53.828125Q78.40625 53.953125 78.234375 54.21875Q78.0625 54.484375 78.0625 54.796875Q78.0625 55.296875 78.4375 55.625Q78.8125 55.953125 79.53125 55.953125Q80.25 55.953125 80.796875 55.640625Q81.34375 55.328125 81.609375 54.78125Q81.8125 54.375 81.8125 53.5625L81.8125 53.109375ZM84.6875 54.578125L85.890625 54.390625Q86.0 55.125 86.46875 55.515625Q86.9375 55.90625 87.78125 55.90625Q88.625 55.90625 89.03125 55.5625Q89.453125 55.21875 89.453125 54.75Q89.453125 54.328125 89.078125 54.09375Q88.828125 53.921875 87.828125 53.671875Q86.46875 53.328125 85.9375 53.078125Q85.421875 52.828125 85.15625 52.390625Q84.890625 51.953125 84.890625 51.421875Q84.890625 50.9375 85.109375 50.53125Q85.328125 50.109375 85.71875 49.828125Q86.0 49.625 86.484375 49.484375Q86.984375 49.328125 87.5625 49.328125Q88.40625 49.328125 89.046875 49.578125Q89.703125 49.8125 90.015625 50.234375Q90.328125 50.65625 90.4375 51.359375L89.234375 51.53125Q89.15625 50.96875 88.75 50.65625Q88.359375 50.34375 87.640625 50.34375Q86.796875 50.34375 86.4375 50.625Q86.078125 50.890625 86.078125 51.28125Q86.078125 51.515625 86.21875 51.703125Q86.375 51.90625 86.703125 52.03125Q86.875 52.09375 87.78125 52.34375Q89.09375 52.703125 89.609375 52.921875Q90.125 53.140625 90.40625 53.5625Q90.703125 53.984375 90.703125 54.609375Q90.703125 55.234375 90.34375 55.78125Q90.0 56.3125 89.3125 56.625Q88.640625 56.921875 87.78125 56.921875Q86.375 56.921875 85.625 56.328125Q84.890625 55.734375 84.6875 54.578125ZM97.140625 54.40625L98.421875 54.5625Q98.109375 55.6875 97.296875 56.3125Q96.484375 56.921875 95.21875 56.921875Q93.625 56.921875 92.6875 55.9375Q91.765625 54.953125 91.765625 53.1875Q91.765625 51.34375 92.703125 50.34375Q93.65625 49.328125 95.15625 49.328125Q96.609375 49.328125 97.53125 50.328125Q98.453125 51.3125 98.453125 53.109375Q98.453125 53.21875 98.453125 53.4375L93.03125 53.4375Q93.109375 54.625 93.703125 55.265625Q94.3125 55.90625 95.234375 55.90625Q95.90625 55.90625 96.375 55.546875Q96.859375 55.1875 97.140625 54.40625ZM93.109375 52.421875L97.15625 52.421875Q97.078125 51.5 96.6875 51.046875Q96.109375 50.34375 95.171875 50.34375Q94.3125 50.34375 93.734375 50.90625Q93.171875 51.46875 93.109375 52.421875ZM104.890625 56.75L104.890625 55.828125Q104.1875 56.921875 102.859375 56.921875Q101.984375 56.921875 101.25 56.4375Q100.53125 55.953125 100.125 55.09375Q99.734375 54.234375 99.734375 53.125Q99.734375 52.046875 100.09375 51.15625Q100.453125 50.265625 101.171875 49.796875Q101.90625 49.328125 102.796875 49.328125Q103.453125 49.328125 103.96875 49.609375Q104.484375 49.875 104.796875 50.328125L104.796875 46.734375L106.03125 46.734375L106.03125 56.75L104.890625 56.75ZM101.0 53.125Q101.0 54.515625 101.578125 55.21875Q102.171875 55.90625 102.96875 55.90625Q103.78125 55.90625 104.34375 55.25Q104.90625 54.578125 104.90625 53.234375Q104.90625 51.734375 104.328125 51.046875Q103.75 50.34375 102.921875 50.34375Q102.09375 50.34375 101.546875 51.015625Q101.0 51.6875 101.0 53.125ZM112.171875 56.75L112.171875 46.734375L113.40625 46.734375L113.40625 50.328125Q114.265625 49.328125 115.578125 49.328125Q116.390625 49.328125 116.984375 49.65625Q117.578125 49.96875 117.828125 50.53125Q118.09375 51.078125 118.09375 52.15625L118.09375 56.75L116.859375 56.75L116.859375 52.15625Q116.859375 51.21875 116.453125 50.8125Q116.0625 50.390625 115.328125 50.390625Q114.78125 50.390625 114.296875 50.671875Q113.8125 50.953125 113.609375 51.4375Q113.40625 51.921875 113.40625 52.78125L113.40625 56.75L112.171875 56.75ZM124.90625 55.859375Q124.234375 56.4375 123.59375 56.6875Q122.96875 56.921875 122.234375 56.921875Q121.046875 56.921875 120.390625 56.34375Q119.75 55.75 119.75 54.828125Q119.75 54.296875 119.984375 53.859375Q120.234375 53.421875 120.625 53.15625Q121.03125 52.890625 121.515625 52.75Q121.875 52.65625 122.609375 52.5625Q124.109375 52.390625 124.8125 52.140625Q124.8125 51.890625 124.8125 51.828125Q124.8125 51.0625 124.46875 50.765625Q124.0 50.34375 123.0625 50.34375Q122.203125 50.34375 121.78125 50.65625Q121.375 50.953125 121.171875 51.71875L119.96875 51.5625Q120.125 50.78125 120.5 50.3125Q120.890625 49.84375 121.59375 49.59375Q122.3125 49.328125 123.25 49.328125Q124.171875 49.328125 124.75 49.546875Q125.328125 49.765625 125.59375 50.09375Q125.875 50.421875 125.984375 50.9375Q126.046875 51.25 126.046875 52.0625L126.046875 53.703125Q126.046875 55.421875 126.125 55.875Q126.203125 56.328125 126.4375 56.75L125.15625 56.75Q124.96875 56.359375 124.90625 55.859375ZM124.8125 53.109375Q124.140625 53.375 122.796875 53.578125Q122.046875 53.6875 121.71875 53.828125Q121.40625 53.953125 121.234375 54.21875Q121.0625 54.484375 121.0625 54.796875Q121.0625 55.296875 121.4375 55.625Q121.8125 55.953125 122.53125 55.953125Q123.25 55.953125 123.796875 55.640625Q124.34375 55.328125 124.609375 54.78125Q124.8125 54.375 124.8125 53.5625L124.8125 53.109375ZM127.6875 54.578125L128.89062 54.390625Q129.0 55.125 129.46875 55.515625Q129.9375 55.90625 130.78125 55.90625Q131.625 55.90625 132.03125 55.5625Q132.45312 55.21875 132.45312 54.75Q132.45312 54.328125 132.07812 54.09375Q131.82812 53.921875 130.82812 53.671875Q129.46875 53.328125 128.9375 53.078125Q128.42188 52.828125 128.15625 52.390625Q127.890625 51.953125 127.890625 51.421875Q127.890625 50.9375 128.10938 50.53125Q128.32812 50.109375 128.71875 49.828125Q129.0 49.625 129.48438 49.484375Q129.98438 49.328125 130.5625 49.328125Q131.40625 49.328125 132.04688 49.578125Q132.70312 49.8125 133.01562 50.234375Q133.32812 50.65625 133.4375 51.359375L132.23438 51.53125Q132.15625 50.96875 131.75 50.65625Q131.35938 50.34375 130.64062 50.34375Q129.79688 50.34375 129.4375 50.625Q129.07812 50.890625 129.07812 51.28125Q129.07812 51.515625 129.21875 51.703125Q129.375 51.90625 129.70312 52.03125Q129.875 52.09375 130.78125 52.34375Q132.09375 52.703125 132.60938 52.921875Q133.125 53.140625 133.40625 53.5625Q133.70312 53.984375 133.70312 54.609375Q133.70312 55.234375 133.34375 55.78125Q133.0 56.3125 132.3125 56.625Q131.64062 56.921875 130.78125 56.921875Q129.375 56.921875 128.625 56.328125Q127.890625 55.734375 127.6875 54.578125ZM135.17188 56.75L135.17188 46.734375L136.40625 46.734375L136.40625 50.328125Q137.26562 49.328125 138.57812 49.328125Q139.39062 49.328125 139.98438 49.65625Q140.57812 49.96875 140.82812 50.53125Q141.09375 51.078125 141.09375 52.15625L141.09375 56.75L139.85938 56.75L139.85938 52.15625Q139.85938 51.21875 139.45312 50.8125Q139.0625 50.390625 138.32812 50.390625Q137.78125 50.390625 137.29688 50.671875Q136.8125 50.953125 136.60938 51.4375Q136.40625 51.921875 136.40625 52.78125L136.40625 56.75L135.17188 56.75ZM143.5 56.75L143.5 55.34375L144.89062 55.34375L144.89062 56.75Q144.89062 57.515625 144.60938 57.984375Q144.34375 58.46875 143.75 58.734375L143.40625 58.203125Q143.79688 58.03125 143.98438 57.703125Q144.17188 57.375 144.1875 56.75L143.5 56.75ZM155.89062 56.75L155.89062 55.828125Q155.1875 56.921875 153.85938 56.921875Q152.98438 56.921875 152.25 56.4375Q151.53125 55.953125 151.125 55.09375Q150.73438 54.234375 150.73438 53.125Q150.73438 52.046875 151.09375 51.15625Q151.45312 50.265625 152.17188 49.796875Q152.90625 49.328125 153.79688 49.328125Q154.45312 49.328125 154.96875 49.609375Q155.48438 49.875 155.79688 50.328125L155.79688 46.734375L157.03125 46.734375L157.03125 56.75L155.89062 56.75ZM152.0 53.125Q152.0 54.515625 152.57812 55.21875Q153.17188 55.90625 153.96875 55.90625Q154.78125 55.90625 155.34375 55.25Q155.90625 54.578125 155.90625 53.234375Q155.90625 51.734375 155.32812 51.046875Q154.75 50.34375 153.92188 50.34375Q153.09375 50.34375 152.54688 51.015625Q152.0 51.6875 152.0 53.125ZM158.71875 53.125Q158.71875 51.109375 159.84375 50.125Q160.76562 49.328125 162.125 49.328125Q163.60938 49.328125 164.5625 50.3125Q165.51562 51.28125 165.51562 53.015625Q165.51562 54.421875 165.09375 55.234375Q164.67188 56.03125 163.85938 56.484375Q163.0625 56.921875 162.125 56.921875Q160.59375 56.921875 159.65625 55.9375Q158.71875 54.953125 158.71875 53.125ZM159.98438 53.125Q159.98438 54.515625 160.59375 55.21875Q161.20312 55.90625 162.125 55.90625Q163.03125 55.90625 163.64062 55.203125Q164.25 54.5 164.25 53.078125Q164.25 51.734375 163.64062 51.046875Q163.03125 50.34375 162.125 50.34375Q161.20312 50.34375 160.59375 51.03125Q159.98438 51.71875 159.98438 53.125ZM167.17188 56.75L167.17188 49.484375L168.28125 49.484375L168.28125 50.515625Q168.60938 49.96875 169.17188 49.65625Q169.75 49.328125 170.46875 49.328125Q171.28125 49.328125 171.79688 49.671875Q172.3125 50.0 172.53125 50.59375Q173.39062 49.328125 174.76562 49.328125Q175.84375 49.328125 176.42188 49.921875Q177.01562 50.515625 177.01562 51.765625L177.01562 56.75L175.78125 56.75L175.78125 52.171875Q175.78125 51.4375 175.65625 51.109375Q175.54688 50.78125 175.23438 50.59375Q174.92188 50.390625 174.5 50.390625Q173.73438 50.390625 173.21875 50.90625Q172.71875 51.40625 172.71875 52.53125L172.71875 56.75L171.48438 56.75L171.48438 52.03125Q171.48438 51.21875 171.1875 50.8125Q170.89062 50.390625 170.20312 50.390625Q169.6875 50.390625 169.23438 50.671875Q168.79688 50.9375 168.59375 51.46875Q168.40625 51.984375 168.40625 52.984375L168.40625 56.75L167.17188 56.75ZM183.90625 55.859375Q183.23438 56.4375 182.59375 56.6875Q181.96875 56.921875 181.23438 56.921875Q180.04688 56.921875 179.39062 56.34375Q178.75 55.75 178.75 54.828125Q178.75 54.296875 178.98438 53.859375Q179.23438 53.421875 179.625 53.15625Q180.03125 52.890625 180.51562 52.75Q180.875 52.65625 181.60938 52.5625Q183.10938 52.390625 183.8125 52.140625Q183.8125 51.890625 183.8125 51.828125Q183.8125 51.0625 183.46875 50.765625Q183.0 50.34375 182.0625 50.34375Q181.20312 50.34375 180.78125 50.65625Q180.375 50.953125 180.17188 51.71875L178.96875 51.5625Q179.125 50.78125 179.5 50.3125Q179.89062 49.84375 180.59375 49.59375Q181.3125 49.328125 182.25 49.328125Q183.17188 49.328125 183.75 49.546875Q184.32812 49.765625 184.59375 50.09375Q184.875 50.421875 184.98438 50.9375Q185.04688 51.25 185.04688 52.0625L185.04688 53.703125Q185.04688 55.421875 185.125 55.875Q185.20312 56.328125 185.4375 56.75L184.15625 56.75Q183.96875 56.359375 183.90625 55.859375ZM183.8125 53.109375Q183.14062 53.375 181.79688 53.578125Q181.04688 53.6875 180.71875 53.828125Q180.40625 53.953125 180.23438 54.21875Q180.0625 54.484375 180.0625 54.796875Q180.0625 55.296875 180.4375 55.625Q180.8125 55.953125 181.53125 55.953125Q182.25 55.953125 182.79688 55.640625Q183.34375 55.328125 183.60938 54.78125Q183.8125 54.375 183.8125 53.5625L183.8125 53.109375ZM187.1875 48.140625L187.1875 46.734375L188.40625 46.734375L188.40625 48.140625L187.1875 48.140625ZM187.1875 56.75L187.1875 49.484375L188.40625 49.484375L188.40625 56.75L187.1875 56.75ZM190.17188 56.75L190.17188 49.484375L191.28125 49.484375L191.28125 50.515625Q192.07812 49.328125 193.59375 49.328125Q194.25 49.328125 194.79688 49.5625Q195.34375 49.796875 195.60938 50.1875Q195.89062 50.5625 196.0 51.09375Q196.07812 51.4375 196.07812 52.28125L196.07812 56.75L194.84375 56.75L194.84375 52.328125Q194.84375 51.578125 194.70312 51.21875Q194.5625 50.84375 194.1875 50.625Q193.82812 50.390625 193.32812 50.390625Q192.54688 50.390625 191.96875 50.890625Q191.40625 51.390625 191.40625 52.78125L191.40625 56.75L190.17188 56.75ZM202.17188 56.75L202.17188 49.484375L203.28125 49.484375L203.28125 50.515625Q204.07812 49.328125 205.59375 49.328125Q206.25 49.328125 206.79688 49.5625Q207.34375 49.796875 207.60938 50.1875Q207.89062 50.5625 208.0 51.09375Q208.07812 51.4375 208.07812 52.28125L208.07812 56.75L206.84375 56.75L206.84375 52.328125Q206.84375 51.578125 206.70312 51.21875Q206.5625 50.84375 206.1875 50.625Q205.82812 50.390625 205.32812 50.390625Q204.54688 50.390625 203.96875 50.890625Q203.40625 51.390625 203.40625 52.78125L203.40625 56.75L202.17188 56.75ZM214.90625 55.859375Q214.23438 56.4375 213.59375 56.6875Q212.96875 56.921875 212.23438 56.921875Q211.04688 56.921875 210.39062 56.34375Q209.75 55.75 209.75 54.828125Q209.75 54.296875 209.98438 53.859375Q210.23438 53.421875 210.625 53.15625Q211.03125 52.890625 211.51562 52.75Q211.875 52.65625 212.60938 52.5625Q214.10938 52.390625 214.8125 52.140625Q214.8125 51.890625 214.8125 51.828125Q214.8125 51.0625 214.46875 50.765625Q214.0 50.34375 213.0625 50.34375Q212.20312 50.34375 211.78125 50.65625Q211.375 50.953125 211.17188 51.71875L209.96875 51.5625Q210.125 50.78125 210.5 50.3125Q210.89062 49.84375 211.59375 49.59375Q212.3125 49.328125 213.25 49.328125Q214.17188 49.328125 214.75 49.546875Q215.32812 49.765625 215.59375 50.09375Q215.875 50.421875 215.98438 50.9375Q216.04688 51.25 216.04688 52.0625L216.04688 53.703125Q216.04688 55.421875 216.125 55.875Q216.20312 56.328125 216.4375 56.75L215.15625 56.75Q214.96875 56.359375 214.90625 55.859375ZM214.8125 53.109375Q214.14062 53.375 212.79688 53.578125Q212.04688 53.6875 211.71875 53.828125Q211.40625 53.953125 211.23438 54.21875Q211.0625 54.484375 211.0625 54.796875Q211.0625 55.296875 211.4375 55.625Q211.8125 55.953125 212.53125 55.953125Q213.25 55.953125 213.79688 55.640625Q214.34375 55.328125 214.60938 54.78125Q214.8125 54.375 214.8125 53.5625L214.8125 53.109375ZM218.17188 56.75L218.17188 49.484375L219.28125 49.484375L219.28125 50.515625Q219.60938 49.96875 220.17188 49.65625Q220.75 49.328125 221.46875 49.328125Q222.28125 49.328125 222.79688 49.671875Q223.3125 50.0 223.53125 50.59375Q224.39062 49.328125 225.76562 49.328125Q226.84375 49.328125 227.42188 49.921875Q228.01562 50.515625 228.01562 51.765625L228.01562 56.75L226.78125 56.75L226.78125 52.171875Q226.78125 51.4375 226.65625 51.109375Q226.54688 50.78125 226.23438 50.59375Q225.92188 50.390625 225.5 50.390625Q224.73438 50.390625 224.21875 50.90625Q223.71875 51.40625 223.71875 52.53125L223.71875 56.75L222.48438 56.75L222.48438 52.03125Q222.48438 51.21875 222.1875 50.8125Q221.89062 50.390625 221.20312 50.390625Q220.6875 50.390625 220.23438 50.671875Q219.79688 50.9375 219.59375 51.46875Q219.40625 51.984375 219.40625 52.984375L219.40625 56.75L218.17188 56.75ZM235.14062 54.40625L236.42188 54.5625Q236.10938 55.6875 235.29688 56.3125Q234.48438 56.921875 233.21875 56.921875Q231.625 56.921875 230.6875 55.9375Q229.76562 54.953125 229.76562 53.1875Q229.76562 51.34375 230.70312 50.34375Q231.65625 49.328125 233.15625 49.328125Q234.60938 49.328125 235.53125 50.328125Q236.45312 51.3125 236.45312 53.109375Q236.45312 53.21875 236.45312 53.4375L231.03125 53.4375Q231.10938 54.625 231.70312 55.265625Q232.3125 55.90625 233.23438 55.90625Q233.90625 55.90625 234.375 55.546875Q234.85938 55.1875 235.14062 54.40625ZM231.10938 52.421875L235.15625 52.421875Q235.07812 51.5 234.6875 51.046875Q234.10938 50.34375 233.17188 50.34375Q232.3125 50.34375 231.73438 50.90625Q231.17188 51.46875 231.10938 52.421875ZM237.6875 54.578125L238.89062 54.390625Q239.0 55.125 239.46875 55.515625Q239.9375 55.90625 240.78125 55.90625Q241.625 55.90625 242.03125 55.5625Q242.45312 55.21875 242.45312 54.75Q242.45312 54.328125 242.07812 54.09375Q241.82812 53.921875 240.82812 53.671875Q239.46875 53.328125 238.9375 53.078125Q238.42188 52.828125 238.15625 52.390625Q237.89062 51.953125 237.89062 51.421875Q237.89062 50.9375 238.10938 50.53125Q238.32812 50.109375 238.71875 49.828125Q239.0 49.625 239.48438 49.484375Q239.98438 49.328125 240.5625 49.328125Q241.40625 49.328125 242.04688 49.578125Q242.70312 49.8125 243.01562 50.234375Q243.32812 50.65625 243.4375 51.359375L242.23438 51.53125Q242.15625 50.96875 241.75 50.65625Q241.35938 50.34375 240.64062 50.34375Q239.79688 50.34375 239.4375 50.625Q239.07812 50.890625 239.07812 51.28125Q239.07812 51.515625 239.21875 51.703125Q239.375 51.90625 239.70312 52.03125Q239.875 52.09375 240.78125 52.34375Q242.09375 52.703125 242.60938 52.921875Q243.125 53.140625 243.40625 53.5625Q243.70312 53.984375 243.70312 54.609375Q243.70312 55.234375 243.34375 55.78125Q243.0 56.3125 242.3125 56.625Q241.64062 56.921875 240.78125 56.921875Q239.375 56.921875 238.625 56.328125Q237.89062 55.734375 237.6875 54.578125Z" fill-rule="nonzero"/><path fill="#757575" d="M13.71875 31.25L13.71875 16.9375L19.09375 16.9375Q20.734375 16.9375 21.71875 17.375Q22.703125 17.796875 23.265625 18.703125Q23.828125 19.609375 23.828125 20.59375Q23.828125 21.515625 23.328125 22.328125Q22.84375 23.140625 21.828125 23.625Q23.125 24.015625 23.828125 24.9375Q24.53125 25.84375 24.53125 27.09375Q24.53125 28.109375 24.09375 28.96875Q23.671875 29.828125 23.046875 30.296875Q22.421875 30.765625 21.484375 31.015625Q20.546875 31.25 19.171875 31.25L13.71875 31.25ZM15.609375 22.953125L18.703125 22.953125Q19.96875 22.953125 20.515625 22.78125Q21.234375 22.5625 21.59375 22.078125Q21.96875 21.578125 21.96875 20.8125Q21.96875 20.109375 21.625 19.5625Q21.28125 19.015625 20.640625 18.828125Q20.015625 18.625 18.46875 18.625L15.609375 18.625L15.609375 22.953125ZM15.609375 29.5625L19.171875 29.5625Q20.09375 29.5625 20.46875 29.484375Q21.125 29.375 21.5625 29.109375Q22.0 28.828125 22.28125 28.3125Q22.5625 27.78125 22.5625 27.09375Q22.5625 26.296875 22.15625 25.703125Q21.75 25.109375 21.015625 24.875Q20.28125 24.640625 18.921875 24.640625L15.609375 24.640625L15.609375 29.5625ZM26.578125 18.953125L26.578125 16.9375L28.34375 16.9375L28.34375 18.953125L26.578125 18.953125ZM26.578125 31.25L26.578125 20.875L28.34375 20.875L28.34375 31.25L26.578125 31.25ZM34.40625 29.671875L34.65625 31.234375Q33.921875 31.390625 33.328125 31.390625Q32.375 31.390625 31.84375 31.09375Q31.328125 30.78125 31.109375 30.296875Q30.890625 29.796875 30.890625 28.21875L30.890625 22.25L29.609375 22.25L29.609375 20.875L30.890625 20.875L30.890625 18.3125L32.640625 17.25L32.640625 20.875L34.40625 20.875L34.40625 22.25L32.640625 22.25L32.640625 28.3125Q32.640625 29.0625 32.734375 29.28125Q32.828125 29.484375 33.03125 29.625Q33.25 29.75 33.640625 29.75Q33.921875 29.75 34.40625 29.671875ZM42.5625 35.21875L42.5625 20.875L44.171875 20.875L44.171875 22.21875Q44.734375 21.4375 45.4375 21.046875Q46.15625 20.640625 47.171875 20.640625Q48.5 20.640625 49.515625 21.328125Q50.53125 22.015625 51.046875 23.265625Q51.578125 24.5 51.578125 25.984375Q51.578125 27.578125 51.0 28.859375Q50.4375 30.125 49.34375 30.8125Q48.25 31.484375 47.046875 31.484375Q46.171875 31.484375 45.46875 31.109375Q44.78125 30.734375 44.328125 30.171875L44.328125 35.21875L42.5625 35.21875ZM44.15625 26.125Q44.15625 28.125 44.96875 29.078125Q45.78125 30.03125 46.9375 30.03125Q48.109375 30.03125 48.9375 29.046875Q49.78125 28.0625 49.78125 25.96875Q49.78125 24.0 48.953125 23.015625Q48.140625 22.015625 47.015625 22.015625Q45.890625 22.015625 45.015625 23.078125Q44.15625 24.125 44.15625 26.125ZM53.546875 31.25L53.546875 20.875L55.125 20.875L55.125 22.453125Q55.734375 21.34375 56.25 21.0Q56.765625 20.640625 57.375 20.640625Q58.265625 20.640625 59.1875 21.203125L58.578125 22.84375Q57.9375 22.453125 57.296875 22.453125Q56.71875 22.453125 56.25 22.8125Q55.796875 23.15625 55.59375 23.765625Q55.3125 24.703125 55.3125 25.8125L55.3125 31.25L53.546875 31.25ZM59.921875 26.0625Q59.921875 23.1875 61.515625 21.796875Q62.859375 20.640625 64.78125 20.640625Q66.921875 20.640625 68.265625 22.046875Q69.625 23.453125 69.625 25.921875Q69.625 27.921875 69.03125 29.078125Q68.4375 30.21875 67.28125 30.859375Q66.140625 31.484375 64.78125 31.484375Q62.59375 31.484375 61.25 30.09375Q59.921875 28.6875 59.921875 26.0625ZM61.71875 26.0625Q61.71875 28.0625 62.578125 29.046875Q63.453125 30.03125 64.78125 30.03125Q66.09375 30.03125 66.953125 29.046875Q67.828125 28.046875 67.828125 26.0Q67.828125 24.078125 66.953125 23.09375Q66.078125 22.09375 64.78125 22.09375Q63.453125 22.09375 62.578125 23.09375Q61.71875 24.078125 61.71875 26.0625ZM73.1875 31.25L71.5625 31.25L71.5625 16.9375L73.3125 16.9375L73.3125 22.046875Q74.4375 20.640625 76.15625 20.640625Q77.109375 20.640625 77.96875 21.03125Q78.828125 21.421875 79.375 22.125Q79.921875 22.8125 80.234375 23.796875Q80.546875 24.78125 80.546875 25.90625Q80.546875 28.578125 79.234375 30.03125Q77.921875 31.484375 76.078125 31.484375Q74.234375 31.484375 73.1875 29.953125L73.1875 31.25ZM73.171875 25.984375Q73.171875 27.84375 73.671875 28.6875Q74.515625 30.03125 75.921875 30.03125Q77.078125 30.03125 77.90625 29.03125Q78.75 28.03125 78.75 26.046875Q78.75 24.015625 77.9375 23.0625Q77.140625 22.09375 76.0 22.09375Q74.84375 22.09375 74.0 23.09375Q73.171875 24.09375 73.171875 25.984375ZM89.34375 29.96875Q88.359375 30.796875 87.453125 31.140625Q86.546875 31.484375 85.515625 31.484375Q83.8125 31.484375 82.890625 30.65625Q81.96875 29.8125 81.96875 28.515625Q81.96875 27.75 82.3125 27.125Q82.671875 26.5 83.234375 26.125Q83.796875 25.734375 84.5 25.53125Q85.015625 25.40625 86.0625 25.265625Q88.1875 25.015625 89.1875 24.671875Q89.203125 24.3125 89.203125 24.203125Q89.203125 23.140625 88.703125 22.6875Q88.03125 22.09375 86.703125 22.09375Q85.453125 22.09375 84.859375 22.53125Q84.28125 22.96875 84.0 24.078125L82.28125 23.84375Q82.515625 22.734375 83.046875 22.0625Q83.578125 21.375 84.59375 21.015625Q85.609375 20.640625 86.953125 20.640625Q88.28125 20.640625 89.109375 20.953125Q89.9375 21.265625 90.328125 21.75Q90.71875 22.21875 90.875 22.9375Q90.96875 23.390625 90.96875 24.5625L90.96875 26.90625Q90.96875 29.359375 91.078125 30.015625Q91.1875 30.65625 91.53125 31.25L89.6875 31.25Q89.421875 30.703125 89.34375 29.96875ZM89.1875 26.046875Q88.234375 26.4375 86.3125 26.703125Q85.234375 26.859375 84.78125 27.0625Q84.34375 27.25 84.09375 27.625Q83.84375 28.0 83.84375 28.46875Q83.84375 29.171875 84.375 29.640625Q84.90625 30.109375 85.9375 30.109375Q86.953125 30.109375 87.734375 29.671875Q88.53125 29.21875 88.90625 28.453125Q89.1875 27.84375 89.1875 26.6875L89.1875 26.046875ZM95.1875 31.25L93.5625 31.25L93.5625 16.9375L95.3125 16.9375L95.3125 22.046875Q96.4375 20.640625 98.15625 20.640625Q99.109375 20.640625 99.96875 21.03125Q100.828125 21.421875 101.375 22.125Q101.921875 22.8125 102.234375 23.796875Q102.546875 24.78125 102.546875 25.90625Q102.546875 28.578125 101.234375 30.03125Q99.921875 31.484375 98.078125 31.484375Q96.234375 31.484375 95.1875 29.953125L95.1875 31.25ZM95.171875 25.984375Q95.171875 27.84375 95.671875 28.6875Q96.515625 30.03125 97.921875 30.03125Q99.078125 30.03125 99.90625 29.03125Q100.75 28.03125 100.75 26.046875Q100.75 24.015625 99.9375 23.0625Q99.140625 22.09375 98.0 22.09375Q96.84375 22.09375 96.0 23.09375Q95.171875 24.09375 95.171875 25.984375ZM104.578125 18.953125L104.578125 16.9375L106.34375 16.9375L106.34375 18.953125L104.578125 18.953125ZM104.578125 31.25L104.578125 20.875L106.34375 20.875L106.34375 31.25L104.578125 31.25ZM108.53125 31.25L108.53125 16.9375L110.28125 16.9375L110.28125 31.25L108.53125 31.25ZM112.578125 18.953125L112.578125 16.9375L114.34375 16.9375L114.34375 18.953125L112.578125 18.953125ZM112.578125 31.25L112.578125 20.875L114.34375 20.875L114.34375 31.25L112.578125 31.25ZM120.40625 29.671875L120.65625 31.234375Q119.921875 31.390625 119.328125 31.390625Q118.375 31.390625 117.84375 31.09375Q117.328125 30.78125 117.109375 30.296875Q116.890625 29.796875 116.890625 28.21875L116.890625 22.25L115.609375 22.25L115.609375 20.875L116.890625 20.875L116.890625 18.3125L118.640625 17.25L118.640625 20.875L120.40625 20.875L120.40625 22.25L118.640625 22.25L118.640625 28.3125Q118.640625 29.0625 118.734375 29.28125Q118.828125 29.484375 119.03125 29.625Q119.25 29.75 119.640625 29.75Q119.921875 29.75 120.40625 29.671875ZM122.578125 18.953125L122.578125 16.9375L124.34375 16.9375L124.34375 18.953125L122.578125 18.953125ZM122.578125 31.25L122.578125 20.875L124.34375 20.875L124.34375 31.25L122.578125 31.25ZM133.67188 27.90625L135.48438 28.140625Q135.0625 29.71875 133.89062 30.609375Q132.73438 31.484375 130.92188 31.484375Q128.65625 31.484375 127.3125 30.09375Q125.984375 28.6875 125.984375 26.15625Q125.984375 23.53125 127.328125 22.09375Q128.67188 20.640625 130.82812 20.640625Q132.90625 20.640625 134.21875 22.0625Q135.54688 23.46875 135.54688 26.046875Q135.54688 26.203125 135.53125 26.515625L127.796875 26.515625Q127.890625 28.21875 128.76562 29.125Q129.64062 30.03125 130.9375 30.03125Q131.90625 30.03125 132.57812 29.53125Q133.26562 29.015625 133.67188 27.90625ZM127.890625 25.0625L133.6875 25.0625Q133.57812 23.765625 133.03125 23.109375Q132.1875 22.09375 130.84375 22.09375Q129.64062 22.09375 128.8125 22.90625Q127.984375 23.703125 127.890625 25.0625ZM136.85938 28.15625L138.60938 27.875Q138.75 28.921875 139.42188 29.484375Q140.09375 30.03125 141.29688 30.03125Q142.5 30.03125 143.07812 29.546875Q143.67188 29.046875 143.67188 28.390625Q143.67188 27.796875 143.15625 27.453125Q142.79688 27.21875 141.35938 26.859375Q139.42188 26.359375 138.67188 26.015625Q137.9375 25.65625 137.54688 25.03125Q137.15625 24.390625 137.15625 23.625Q137.15625 22.9375 137.46875 22.34375Q137.79688 21.75 138.34375 21.359375Q138.75 21.0625 139.45312 20.859375Q140.17188 20.640625 140.98438 20.640625Q142.20312 20.640625 143.125 21.0Q144.04688 21.34375 144.48438 21.953125Q144.92188 22.546875 145.09375 23.546875L143.375 23.78125Q143.25 22.984375 142.6875 22.546875Q142.125 22.09375 141.10938 22.09375Q139.89062 22.09375 139.375 22.5Q138.85938 22.890625 138.85938 23.421875Q138.85938 23.765625 139.07812 24.046875Q139.28125 24.328125 139.75 24.515625Q140.01562 24.609375 141.29688 24.953125Q143.17188 25.453125 143.90625 25.78125Q144.64062 26.09375 145.0625 26.703125Q145.48438 27.296875 145.48438 28.203125Q145.48438 29.078125 144.96875 29.859375Q144.45312 30.640625 143.48438 31.0625Q142.51562 31.484375 141.29688 31.484375Q139.28125 31.484375 138.21875 30.640625Q137.15625 29.796875 136.85938 28.15625ZM148.03125 31.25L148.03125 29.25L150.03125 29.25L150.03125 31.25Q150.03125 32.359375 149.64062 33.03125Q149.25 33.71875 148.40625 34.078125L147.90625 33.328125Q148.46875 33.09375 148.73438 32.609375Q149.0 32.140625 149.03125 31.25L148.03125 31.25ZM158.92188 26.0625Q158.92188 23.1875 160.51562 21.796875Q161.85938 20.640625 163.78125 20.640625Q165.92188 20.640625 167.26562 22.046875Q168.625 23.453125 168.625 25.921875Q168.625 27.921875 168.03125 29.078125Q167.4375 30.21875 166.28125 30.859375Q165.14062 31.484375 163.78125 31.484375Q161.59375 31.484375 160.25 30.09375Q158.92188 28.6875 158.92188 26.0625ZM160.71875 26.0625Q160.71875 28.0625 161.57812 29.046875Q162.45312 30.03125 163.78125 30.03125Q165.09375 30.03125 165.95312 29.046875Q166.82812 28.046875 166.82812 26.0Q166.82812 24.078125 165.95312 23.09375Q165.07812 22.09375 163.78125 22.09375Q162.45312 22.09375 161.57812 23.09375Q160.71875 24.078125 160.71875 26.0625ZM170.98438 31.25L170.98438 22.25L169.4375 22.25L169.4375 20.875L170.98438 20.875L170.98438 19.78125Q170.98438 18.734375 171.17188 18.21875Q171.42188 17.53125 172.0625 17.109375Q172.70312 16.6875 173.85938 16.6875Q174.60938 16.6875 175.5 16.859375L175.23438 18.390625Q174.6875 18.296875 174.20312 18.296875Q173.40625 18.296875 173.0625 18.640625Q172.73438 18.984375 172.73438 19.921875L172.73438 20.875L174.76562 20.875L174.76562 22.25L172.73438 22.25L172.73438 31.25L170.98438 31.25ZM176.98438 31.25L176.98438 22.25L175.4375 22.25L175.4375 20.875L176.98438 20.875L176.98438 19.78125Q176.98438 18.734375 177.17188 18.21875Q177.42188 17.53125 178.0625 17.109375Q178.70312 16.6875 179.85938 16.6875Q180.60938 16.6875 181.5 16.859375L181.23438 18.390625Q180.6875 18.296875 180.20312 18.296875Q179.40625 18.296875 179.0625 18.640625Q178.73438 18.984375 178.73438 19.921875L178.73438 20.875L180.76562 20.875L180.76562 22.25L178.73438 22.25L178.73438 31.25L176.98438 31.25ZM181.85938 28.15625L183.60938 27.875Q183.75 28.921875 184.42188 29.484375Q185.09375 30.03125 186.29688 30.03125Q187.5 30.03125 188.07812 29.546875Q188.67188 29.046875 188.67188 28.390625Q188.67188 27.796875 188.15625 27.453125Q187.79688 27.21875 186.35938 26.859375Q184.42188 26.359375 183.67188 26.015625Q182.9375 25.65625 182.54688 25.03125Q182.15625 24.390625 182.15625 23.625Q182.15625 22.9375 182.46875 22.34375Q182.79688 21.75 183.34375 21.359375Q183.75 21.0625 184.45312 20.859375Q185.17188 20.640625 185.98438 20.640625Q187.20312 20.640625 188.125 21.0Q189.04688 21.34375 189.48438 21.953125Q189.92188 22.546875 190.09375 23.546875L188.375 23.78125Q188.25 22.984375 187.6875 22.546875Q187.125 22.09375 186.10938 22.09375Q184.89062 22.09375 184.375 22.5Q183.85938 22.890625 183.85938 23.421875Q183.85938 23.765625 184.07812 24.046875Q184.28125 24.328125 184.75 24.515625Q185.01562 24.609375 186.29688 24.953125Q188.17188 25.453125 188.90625 25.78125Q189.64062 26.09375 190.0625 26.703125Q190.48438 27.296875 190.48438 28.203125Q190.48438 29.078125 189.96875 29.859375Q189.45312 30.640625 188.48438 31.0625Q187.51562 31.484375 186.29688 31.484375Q184.28125 31.484375 183.21875 30.640625Q182.15625 29.796875 181.85938 28.15625ZM199.67188 27.90625L201.48438 28.140625Q201.0625 29.71875 199.89062 30.609375Q198.73438 31.484375 196.92188 31.484375Q194.65625 31.484375 193.3125 30.09375Q191.98438 28.6875 191.98438 26.15625Q191.98438 23.53125 193.32812 22.09375Q194.67188 20.640625 196.82812 20.640625Q198.90625 20.640625 200.21875 22.0625Q201.54688 23.46875 201.54688 26.046875Q201.54688 26.203125 201.53125 26.515625L193.79688 26.515625Q193.89062 28.21875 194.76562 29.125Q195.64062 30.03125 196.9375 30.03125Q197.90625 30.03125 198.57812 29.53125Q199.26562 29.015625 199.67188 27.90625ZM193.89062 25.0625L199.6875 25.0625Q199.57812 23.765625 199.03125 23.109375Q198.1875 22.09375 196.84375 22.09375Q195.64062 22.09375 194.8125 22.90625Q193.98438 23.703125 193.89062 25.0625ZM207.40625 29.671875L207.65625 31.234375Q206.92188 31.390625 206.32812 31.390625Q205.375 31.390625 204.84375 31.09375Q204.32812 30.78125 204.10938 30.296875Q203.89062 29.796875 203.89062 28.21875L203.89062 22.25L202.60938 22.25L202.60938 20.875L203.89062 20.875L203.89062 18.3125L205.64062 17.25L205.64062 20.875L207.40625 20.875L207.40625 22.25L205.64062 22.25L205.64062 28.3125Q205.64062 29.0625 205.73438 29.28125Q205.82812 29.484375 206.03125 29.625Q206.25 29.75 206.64062 29.75Q206.92188 29.75 207.40625 29.671875ZM215.98438 31.25L215.98438 22.25L214.4375 22.25L214.4375 20.875L215.98438 20.875L215.98438 19.78125Q215.98438 18.734375 216.17188 18.21875Q216.42188 17.53125 217.0625 17.109375Q217.70312 16.6875 218.85938 16.6875Q219.60938 16.6875 220.5 16.859375L220.23438 18.390625Q219.6875 18.296875 219.20312 18.296875Q218.40625 18.296875 218.0625 18.640625Q217.73438 18.984375 217.73438 19.921875L217.73438 20.875L219.76562 20.875L219.76562 22.25L217.73438 22.25L217.73438 31.25L215.98438 31.25ZM221.54688 31.25L221.54688 20.875L223.125 20.875L223.125 22.453125Q223.73438 21.34375 224.25 21.0Q224.76562 20.640625 225.375 20.640625Q226.26562 20.640625 227.1875 21.203125L226.57812 22.84375Q225.9375 22.453125 225.29688 22.453125Q224.71875 22.453125 224.25 22.8125Q223.79688 23.15625 223.59375 23.765625Q223.3125 24.703125 223.3125 25.8125L223.3125 31.25L221.54688 31.25ZM227.92188 26.0625Q227.92188 23.1875 229.51562 21.796875Q230.85938 20.640625 232.78125 20.640625Q234.92188 20.640625 236.26562 22.046875Q237.625 23.453125 237.625 25.921875Q237.625 27.921875 237.03125 29.078125Q236.4375 30.21875 235.28125 30.859375Q234.14062 31.484375 232.78125 31.484375Q230.59375 31.484375 229.25 30.09375Q227.92188 28.6875 227.92188 26.0625ZM229.71875 26.0625Q229.71875 28.0625 230.57812 29.046875Q231.45312 30.03125 232.78125 30.03125Q234.09375 30.03125 234.95312 29.046875Q235.82812 28.046875 235.82812 26.0Q235.82812 24.078125 234.95312 23.09375Q234.07812 22.09375 232.78125 22.09375Q231.45312 22.09375 230.57812 23.09375Q229.71875 24.078125 229.71875 26.0625ZM239.5625 31.25L239.5625 20.875L241.14062 20.875L241.14062 22.328125Q241.625 21.578125 242.4375 21.109375Q243.25 20.640625 244.28125 20.640625Q245.4375 20.640625 246.17188 21.125Q246.90625 21.59375 247.21875 22.453125Q248.45312 20.640625 250.42188 20.640625Q251.96875 20.640625 252.79688 21.5Q253.625 22.359375 253.625 24.125L253.625 31.25L251.875 31.25L251.875 24.71875Q251.875 23.65625 251.70312 23.203125Q251.53125 22.734375 251.07812 22.453125Q250.64062 22.171875 250.03125 22.171875Q248.9375 22.171875 248.20312 22.90625Q247.48438 23.625 247.48438 25.21875L247.48438 31.25L245.73438 31.25L245.73438 24.515625Q245.73438 23.34375 245.29688 22.765625Q244.875 22.171875 243.89062 22.171875Q243.15625 22.171875 242.51562 22.5625Q241.89062 22.953125 241.60938 23.703125Q241.32812 24.453125 241.32812 25.875L241.32812 31.25L239.5625 31.25ZM262.07812 27.5L263.92188 27.34375Q264.125 28.6875 264.875 29.375Q265.625 30.046875 266.6875 30.046875Q267.95312 30.046875 268.82812 29.09375Q269.70312 28.140625 269.70312 26.546875Q269.70312 25.046875 268.85938 24.1875Q268.01562 23.3125 266.65625 23.3125Q265.79688 23.3125 265.10938 23.703125Q264.4375 24.078125 264.04688 24.703125L262.39062 24.484375L263.78125 17.125L270.90625 17.125L270.90625 18.8125L265.1875 18.8125L264.42188 22.65625Q265.70312 21.75 267.125 21.75Q269.0 21.75 270.28125 23.0625Q271.57812 24.359375 271.57812 26.390625Q271.57812 28.34375 270.4375 29.75Q269.0625 31.5 266.6875 31.5Q264.73438 31.5 263.48438 30.40625Q262.25 29.3125 262.07812 27.5ZM273.07812 24.1875Q273.07812 21.65625 273.59375 20.109375Q274.125 18.546875 275.15625 17.71875Q276.1875 16.875 277.75 16.875Q278.90625 16.875 279.76562 17.34375Q280.64062 17.796875 281.20312 18.671875Q281.76562 19.546875 282.09375 20.8125Q282.42188 22.0625 282.42188 24.1875Q282.42188 26.703125 281.89062 28.25Q281.375 29.796875 280.34375 30.65625Q279.32812 31.5 277.75 31.5Q275.67188 31.5 274.5 30.015625Q273.07812 28.21875 273.07812 24.1875ZM274.89062 24.1875Q274.89062 27.71875 275.70312 28.890625Q276.53125 30.046875 277.75 30.046875Q278.95312 30.046875 279.78125 28.875Q280.60938 27.703125 280.60938 24.1875Q280.60938 20.65625 279.78125 19.5Q278.95312 18.328125 277.73438 18.328125Q276.51562 18.328125 275.79688 19.359375Q274.89062 20.65625 274.89062 24.1875ZM284.40625 20.375Q284.40625 18.84375 285.17188 17.765625Q285.95312 16.6875 287.42188 16.6875Q288.76562 16.6875 289.64062 17.65625Q290.53125 18.609375 290.53125 20.484375Q290.53125 22.296875 289.64062 23.28125Q288.75 24.25 287.4375 24.25Q286.14062 24.25 285.26562 23.296875Q284.40625 22.328125 284.40625 20.375ZM287.46875 17.90625Q286.8125 17.90625 286.375 18.46875Q285.95312 19.03125 285.95312 20.546875Q285.95312 21.921875 286.39062 22.484375Q286.82812 23.046875 287.46875 23.046875Q288.14062 23.046875 288.5625 22.484375Q289.0 21.90625 289.0 20.40625Q289.0 19.015625 288.5625 18.46875Q288.125 17.90625 287.46875 17.90625ZM287.48438 31.78125L295.3125 16.6875L296.73438 16.6875L288.9375 31.78125L287.48438 31.78125ZM293.67188 27.890625Q293.67188 26.34375 294.4375 25.28125Q295.21875 24.203125 296.6875 24.203125Q298.03125 24.203125 298.90625 25.171875Q299.79688 26.125 299.79688 28.0Q299.79688 29.8125 298.90625 30.796875Q298.01562 31.78125 296.70312 31.78125Q295.40625 31.78125 294.53125 30.8125Q293.67188 29.828125 293.67188 27.890625ZM296.73438 25.421875Q296.07812 25.421875 295.64062 25.984375Q295.20312 26.546875 295.20312 28.0625Q295.20312 29.4375 295.64062 30.0Q296.07812 30.5625 296.73438 30.5625Q297.40625 30.5625 297.82812 30.0Q298.26562 29.4375 298.26562 27.921875Q298.26562 26.546875 297.82812 25.984375Q297.39062 25.421875 296.73438 25.421875Z" fill-rule="nonzero"/></svg>